<?xml version="1.0" encoding="utf-8" standalone="no"?>
<!DOCTYPE svg PUBLIC "-//W3C//DTD SVG 1.1//EN"
  "http://www.w3.org/Graphics/SVG/1.1/DTD/svg11.dtd">
<svg xmlns:xlink="http://www.w3.org/1999/xlink" width="860.07316pt" height="572.507925pt" viewBox="0 0 860.07316 572.507925" xmlns="http://www.w3.org/2000/svg" version="1.1">
 <metadata>
  <rdf:RDF xmlns:dc="http://purl.org/dc/elements/1.1/" xmlns:cc="http://creativecommons.org/ns#" xmlns:rdf="http://www.w3.org/1999/02/22-rdf-syntax-ns#">
   <cc:Work>
    <dc:type rdf:resource="http://purl.org/dc/dcmitype/StillImage"/>
    <dc:date>2026-05-03T14:44:43.318709</dc:date>
    <dc:format>image/svg+xml</dc:format>
    <dc:creator>
     <cc:Agent>
      <dc:title>Matplotlib v3.9.4, https://matplotlib.org/</dc:title>
     </cc:Agent>
    </dc:creator>
   </cc:Work>
  </rdf:RDF>
 </metadata>
 <defs>
  <style type="text/css">*{stroke-linejoin: round; stroke-linecap: butt}</style>
 </defs>
 <g id="figure_1">
  <g id="patch_1">
   <path d="M 0 572.507925 
L 860.07316 572.507925 
L 860.07316 0 
L 0 0 
z
" style="fill: #ffffff"/>
  </g>
  <g id="axes_1">
   <g id="patch_2">
    <path d="M 665.072267 142.865495 
Q 398.468164 264.69473 184.113169 454.627662 
" clip-path="url(#p9017fc714a)" style="fill: none; opacity: 0.82; stroke: #1f77b4; stroke-width: 6.01557; stroke-linecap: round"/>
    <path d="M 191.88952 452.547188 
L 184.113169 454.627662 
L 187.1146 447.158297 
z
" clip-path="url(#p9017fc714a)" style="fill: #1f77b4; opacity: 0.82; stroke: #1f77b4; stroke-width: 6.01557; stroke-linecap: round"/>
   </g>
   <g id="patch_3">
    <path d="M 663.262036 361.422558 
Q 415.471391 378.074875 188.425497 463.55103 
" clip-path="url(#p9017fc714a)" style="fill: none; opacity: 0.82; stroke: #1f77b4; stroke-width: 5.140172; stroke-linecap: round"/>
    <path d="M 196.432191 464.383408 
L 188.425497 463.55103 
L 193.895415 457.645102 
z
" clip-path="url(#p9017fc714a)" style="fill: #1f77b4; opacity: 0.82; stroke: #1f77b4; stroke-width: 5.140172; stroke-linecap: round"/>
   </g>
   <g id="patch_4">
    <path d="M 183.72531 83.166679 
Q 419.655124 144.489428 659.51526 135.310977 
" clip-path="url(#p9017fc714a)" style="fill: none; opacity: 0.82; stroke: #1f77b4; stroke-width: 3.339257; stroke-linecap: round"/>
    <path d="M 652.182869 131.988922 
L 659.51526 135.310977 
L 652.458182 139.183656 
z
" clip-path="url(#p9017fc714a)" style="fill: #1f77b4; opacity: 0.82; stroke: #1f77b4; stroke-width: 3.339257; stroke-linecap: round"/>
   </g>
   <g id="patch_5">
    <path d="M 184.300616 273.078359 
Q 434.288193 243.412762 661.937021 144.095559 
" clip-path="url(#p9017fc714a)" style="fill: none; opacity: 0.82; stroke: #1f77b4; stroke-width: 3.015199; stroke-linecap: round"/>
    <path d="M 653.898169 143.675011 
L 661.937021 144.095559 
L 656.777271 150.274312 
z
" clip-path="url(#p9017fc714a)" style="fill: #1f77b4; opacity: 0.82; stroke: #1f77b4; stroke-width: 3.015199; stroke-linecap: round"/>
   </g>
   <g id="patch_6">
    <path d="M 183.971767 271.051715 
Q 438.50602 215.267614 663.626621 89.412838 
" clip-path="url(#p9017fc714a)" style="fill: none; opacity: 0.82; stroke: #1f77b4; stroke-width: 2.381967; stroke-linecap: round"/>
    <path d="M 655.585336 89.783973 
L 663.626621 89.412838 
L 659.098758 96.068547 
z
" clip-path="url(#p9017fc714a)" style="fill: #1f77b4; opacity: 0.82; stroke: #1f77b4; stroke-width: 2.381967; stroke-linecap: round"/>
   </g>
   <g id="patch_7">
    <path d="M 664.42229 466.08977 
Q 431.138467 385.150244 186.689066 375.089677 
" clip-path="url(#p9017fc714a)" style="fill: none; opacity: 0.82; stroke: #1f77b4; stroke-width: 2.030317; stroke-linecap: round"/>
    <path d="M 193.734939 378.982705 
L 186.689066 375.089677 
L 194.031012 371.788795 
z
" clip-path="url(#p9017fc714a)" style="fill: #1f77b4; opacity: 0.82; stroke: #1f77b4; stroke-width: 2.030317; stroke-linecap: round"/>
   </g>
   <g id="patch_8">
    <path d="M 664.614987 183.193738 
Q 432.190857 95.692156 185.515865 79.114181 
" clip-path="url(#p9017fc714a)" style="fill: none; opacity: 0.82; stroke: #1f77b4; stroke-linecap: round"/>
    <path d="M 192.458264 83.188871 
L 185.515865 79.114181 
L 192.941056 76.005076 
z
" clip-path="url(#p9017fc714a)" style="fill: #1f77b4; opacity: 0.82; stroke: #1f77b4; stroke-linecap: round"/>
   </g>
   <g id="patch_9">
    <path d="M 663.93269 128.827203 
Q 428.002876 67.504453 185.529284 76.782911 
" clip-path="url(#p9017fc714a)" style="fill: none; opacity: 0.82; stroke: #1f77b4; stroke-linecap: round"/>
    <path d="M 192.861675 80.104966 
L 185.529284 76.782911 
L 192.586362 72.910231 
z
" clip-path="url(#p9017fc714a)" style="fill: #1f77b4; opacity: 0.82; stroke: #1f77b4; stroke-linecap: round"/>
   </g>
   <g id="patch_10">
    <path d="M 184.438413 275.243474 
Q 430.096261 271.582997 663.183174 197.531667 
" clip-path="url(#p9017fc714a)" style="fill: none; opacity: 0.82; stroke: #1f77b4; stroke-linecap: round"/>
    <path d="M 655.231123 196.280709 
L 663.183174 197.531667 
L 657.411177 203.142733 
z
" clip-path="url(#p9017fc714a)" style="fill: #1f77b4; opacity: 0.82; stroke: #1f77b4; stroke-linecap: round"/>
   </g>
   <g id="patch_11">
    <path d="M 184.337172 277.487737 
Q 425.915889 299.786318 662.571491 251.719631 
" clip-path="url(#p9017fc714a)" style="fill: none; opacity: 0.82; stroke: #1f77b4; stroke-linecap: round"/>
    <path d="M 654.799 249.624783 
L 662.571491 251.719631 
L 656.232118 256.680714 
z
" clip-path="url(#p9017fc714a)" style="fill: #1f77b4; opacity: 0.82; stroke: #1f77b4; stroke-linecap: round"/>
   </g>
   <g id="patch_12">
    <path d="M 184.244855 272.569527 
Q 452.745956 239.367154 666.819702 402.964677 
" clip-path="url(#p9017fc714a)" style="fill: none; opacity: 0.82; stroke: #1f77b4; stroke-linecap: round"/>
    <path d="M 663.284887 395.732451 
L 666.819702 402.964677 
L 658.913033 401.453193 
z
" clip-path="url(#p9017fc714a)" style="fill: #1f77b4; opacity: 0.82; stroke: #1f77b4; stroke-linecap: round"/>
   </g>
   <g id="patch_13">
    <path d="M 179.951922 288.404016 
Q 394.914244 452.679513 661.328252 419.734364 
" clip-path="url(#p9017fc714a)" style="fill: none; opacity: 0.82; stroke: #d62728; stroke-width: 1.881191; stroke-linecap: round"/>
    <path d="M 653.740864 417.04521 
L 661.328252 419.734364 
L 654.624496 424.190782 
z
" clip-path="url(#p9017fc714a)" style="fill: #d62728; opacity: 0.82; stroke: #d62728; stroke-width: 1.881191; stroke-linecap: round"/>
   </g>
   <g id="patch_14">
    <path d="M 183.991821 279.735655 
Q 421.743094 328.024735 660.642745 305.973299 
" clip-path="url(#p9017fc714a)" style="fill: none; opacity: 0.82; stroke: #d62728; stroke-width: 2.406422; stroke-linecap: round"/>
    <path d="M 653.142335 303.050315 
L 660.642745 305.973299 
L 653.804111 310.219837 
z
" clip-path="url(#p9017fc714a)" style="fill: #d62728; opacity: 0.82; stroke: #d62728; stroke-width: 2.406422; stroke-linecap: round"/>
   </g>
   <g id="patch_15">
    <path d="M 184.424939 177.219725 
Q 473.195761 189.494701 667.499986 398.26293 
" clip-path="url(#p9017fc714a)" style="fill: none; opacity: 0.82; stroke: #d62728; stroke-width: 3.428258; stroke-linecap: round"/>
    <path d="M 665.229903 390.539801 
L 667.499986 398.26293 
L 659.959433 395.445119 
z
" clip-path="url(#p9017fc714a)" style="fill: #d62728; opacity: 0.82; stroke: #d62728; stroke-width: 3.428258; stroke-linecap: round"/>
   </g>
   <g id="patch_16">
    <path d="M 177.546799 192.143272 
Q 374.462391 403.717166 659.403791 415.829299 
" clip-path="url(#p9017fc714a)" style="fill: none; opacity: 0.82; stroke: #d62728; stroke-width: 3.428258; stroke-linecap: round"/>
    <path d="M 652.363176 411.926769 
L 659.403791 415.829299 
L 652.057398 419.120273 
z
" clip-path="url(#p9017fc714a)" style="fill: #d62728; opacity: 0.82; stroke: #d62728; stroke-width: 3.428258; stroke-linecap: round"/>
   </g>
   <g id="patch_17">
    <path d="M 666.451586 292.468987 
Q 440.628284 151.984829 187.558775 84.104612 
" clip-path="url(#p9017fc714a)" style="fill: none; opacity: 0.82; stroke: #d62728; stroke-width: 3.523801; stroke-linecap: round"/>
    <path d="M 193.580305 89.447006 
L 187.558775 84.104612 
L 195.445609 82.492825 
z
" clip-path="url(#p9017fc714a)" style="fill: #d62728; opacity: 0.82; stroke: #d62728; stroke-width: 3.523801; stroke-linecap: round"/>
   </g>
   <g id="text_1">
    <!-- Neurons -->
    <g style="fill: #444444" transform="translate(137.507672 35.937211) scale(0.11 -0.11)">
     <defs>
      <path id="DejaVuSans-Bold-4e" d="M 588 4666 
L 1931 4666 
L 3628 1466 
L 3628 4666 
L 4769 4666 
L 4769 0 
L 3425 0 
L 1728 3200 
L 1728 0 
L 588 0 
L 588 4666 
z
" transform="scale(0.015625)"/>
      <path id="DejaVuSans-Bold-65" d="M 4031 1759 
L 4031 1441 
L 1416 1441 
Q 1456 1047 1700 850 
Q 1944 653 2381 653 
Q 2734 653 3104 758 
Q 3475 863 3866 1075 
L 3866 213 
Q 3469 63 3072 -14 
Q 2675 -91 2278 -91 
Q 1328 -91 801 392 
Q 275 875 275 1747 
Q 275 2603 792 3093 
Q 1309 3584 2216 3584 
Q 3041 3584 3536 3087 
Q 4031 2591 4031 1759 
z
M 2881 2131 
Q 2881 2450 2695 2645 
Q 2509 2841 2209 2841 
Q 1884 2841 1681 2658 
Q 1478 2475 1428 2131 
L 2881 2131 
z
" transform="scale(0.015625)"/>
      <path id="DejaVuSans-Bold-75" d="M 500 1363 
L 500 3500 
L 1625 3500 
L 1625 3150 
Q 1625 2866 1622 2436 
Q 1619 2006 1619 1863 
Q 1619 1441 1641 1255 
Q 1663 1069 1716 984 
Q 1784 875 1895 815 
Q 2006 756 2150 756 
Q 2500 756 2700 1025 
Q 2900 1294 2900 1772 
L 2900 3500 
L 4019 3500 
L 4019 0 
L 2900 0 
L 2900 506 
Q 2647 200 2364 54 
Q 2081 -91 1741 -91 
Q 1134 -91 817 281 
Q 500 653 500 1363 
z
" transform="scale(0.015625)"/>
      <path id="DejaVuSans-Bold-72" d="M 3138 2547 
Q 2991 2616 2845 2648 
Q 2700 2681 2553 2681 
Q 2122 2681 1889 2404 
Q 1656 2128 1656 1613 
L 1656 0 
L 538 0 
L 538 3500 
L 1656 3500 
L 1656 2925 
Q 1872 3269 2151 3426 
Q 2431 3584 2822 3584 
Q 2878 3584 2943 3579 
Q 3009 3575 3134 3559 
L 3138 2547 
z
" transform="scale(0.015625)"/>
      <path id="DejaVuSans-Bold-6f" d="M 2203 2784 
Q 1831 2784 1636 2517 
Q 1441 2250 1441 1747 
Q 1441 1244 1636 976 
Q 1831 709 2203 709 
Q 2569 709 2762 976 
Q 2956 1244 2956 1747 
Q 2956 2250 2762 2517 
Q 2569 2784 2203 2784 
z
M 2203 3584 
Q 3106 3584 3614 3096 
Q 4122 2609 4122 1747 
Q 4122 884 3614 396 
Q 3106 -91 2203 -91 
Q 1297 -91 786 396 
Q 275 884 275 1747 
Q 275 2609 786 3096 
Q 1297 3584 2203 3584 
z
" transform="scale(0.015625)"/>
      <path id="DejaVuSans-Bold-6e" d="M 4056 2131 
L 4056 0 
L 2931 0 
L 2931 347 
L 2931 1631 
Q 2931 2084 2911 2256 
Q 2891 2428 2841 2509 
Q 2775 2619 2662 2680 
Q 2550 2741 2406 2741 
Q 2056 2741 1856 2470 
Q 1656 2200 1656 1722 
L 1656 0 
L 538 0 
L 538 3500 
L 1656 3500 
L 1656 2988 
Q 1909 3294 2193 3439 
Q 2478 3584 2822 3584 
Q 3428 3584 3742 3212 
Q 4056 2841 4056 2131 
z
" transform="scale(0.015625)"/>
      <path id="DejaVuSans-Bold-73" d="M 3272 3391 
L 3272 2541 
Q 2913 2691 2578 2766 
Q 2244 2841 1947 2841 
Q 1628 2841 1473 2761 
Q 1319 2681 1319 2516 
Q 1319 2381 1436 2309 
Q 1553 2238 1856 2203 
L 2053 2175 
Q 2913 2066 3209 1816 
Q 3506 1566 3506 1031 
Q 3506 472 3093 190 
Q 2681 -91 1863 -91 
Q 1516 -91 1145 -36 
Q 775 19 384 128 
L 384 978 
Q 719 816 1070 734 
Q 1422 653 1784 653 
Q 2113 653 2278 743 
Q 2444 834 2444 1013 
Q 2444 1163 2330 1236 
Q 2216 1309 1875 1350 
L 1678 1375 
Q 931 1469 631 1722 
Q 331 1975 331 2491 
Q 331 3047 712 3315 
Q 1094 3584 1881 3584 
Q 2191 3584 2531 3537 
Q 2872 3491 3272 3391 
z
" transform="scale(0.015625)"/>
     </defs>
     <use xlink:href="#DejaVuSans-Bold-4e"/>
     <use xlink:href="#DejaVuSans-Bold-65" x="83.691406"/>
     <use xlink:href="#DejaVuSans-Bold-75" x="151.513672"/>
     <use xlink:href="#DejaVuSans-Bold-72" x="222.705078"/>
     <use xlink:href="#DejaVuSans-Bold-6f" x="272.021484"/>
     <use xlink:href="#DejaVuSans-Bold-6e" x="340.722656"/>
     <use xlink:href="#DejaVuSans-Bold-73" x="411.914062"/>
    </g>
   </g>
   <g id="text_2">
    <!-- Glia -->
    <g style="fill: #444444" transform="translate(672.22525 35.937211) scale(0.11 -0.11)">
     <defs>
      <path id="DejaVuSans-Bold-47" d="M 4781 347 
Q 4331 128 3847 18 
Q 3363 -91 2847 -91 
Q 1681 -91 1000 561 
Q 319 1213 319 2328 
Q 319 3456 1012 4103 
Q 1706 4750 2913 4750 
Q 3378 4750 3804 4662 
Q 4231 4575 4609 4403 
L 4609 3438 
Q 4219 3659 3833 3768 
Q 3447 3878 3059 3878 
Q 2341 3878 1952 3476 
Q 1563 3075 1563 2328 
Q 1563 1588 1938 1184 
Q 2313 781 3003 781 
Q 3191 781 3352 804 
Q 3513 828 3641 878 
L 3641 1784 
L 2906 1784 
L 2906 2591 
L 4781 2591 
L 4781 347 
z
" transform="scale(0.015625)"/>
      <path id="DejaVuSans-Bold-6c" d="M 538 4863 
L 1656 4863 
L 1656 0 
L 538 0 
L 538 4863 
z
" transform="scale(0.015625)"/>
      <path id="DejaVuSans-Bold-69" d="M 538 3500 
L 1656 3500 
L 1656 0 
L 538 0 
L 538 3500 
z
M 538 4863 
L 1656 4863 
L 1656 3950 
L 538 3950 
L 538 4863 
z
" transform="scale(0.015625)"/>
      <path id="DejaVuSans-Bold-61" d="M 2106 1575 
Q 1756 1575 1579 1456 
Q 1403 1338 1403 1106 
Q 1403 894 1545 773 
Q 1688 653 1941 653 
Q 2256 653 2472 879 
Q 2688 1106 2688 1447 
L 2688 1575 
L 2106 1575 
z
M 3816 1997 
L 3816 0 
L 2688 0 
L 2688 519 
Q 2463 200 2181 54 
Q 1900 -91 1497 -91 
Q 953 -91 614 226 
Q 275 544 275 1050 
Q 275 1666 698 1953 
Q 1122 2241 2028 2241 
L 2688 2241 
L 2688 2328 
Q 2688 2594 2478 2717 
Q 2269 2841 1825 2841 
Q 1466 2841 1156 2769 
Q 847 2697 581 2553 
L 581 3406 
Q 941 3494 1303 3539 
Q 1666 3584 2028 3584 
Q 2975 3584 3395 3211 
Q 3816 2838 3816 1997 
z
" transform="scale(0.015625)"/>
     </defs>
     <use xlink:href="#DejaVuSans-Bold-47"/>
     <use xlink:href="#DejaVuSans-Bold-6c" x="82.080078"/>
     <use xlink:href="#DejaVuSans-Bold-69" x="116.357422"/>
     <use xlink:href="#DejaVuSans-Bold-61" x="150.634766"/>
    </g>
   </g>
   <g id="text_3">
    <!-- Neuron ↔ glia cell-cell communication  (LIANA+, padj &lt; 0.05) -->
    <g transform="translate(217.472125 16.318125) scale(0.12 -0.12)">
     <defs>
      <path id="DejaVuSans-Bold-20" transform="scale(0.015625)"/>
      <path id="DejaVuSans-Bold-2194" d="M 313 1788 
L 313 2225 
L 1541 3453 
L 1994 3000 
L 1375 2381 
L 3988 2381 
L 3369 3000 
L 3822 3453 
L 5050 2225 
L 5050 1788 
L 3822 559 
L 3369 1013 
L 3988 1631 
L 1375 1631 
L 1994 1013 
L 1541 559 
L 313 1788 
z
" transform="scale(0.015625)"/>
      <path id="DejaVuSans-Bold-67" d="M 2919 594 
Q 2688 288 2409 144 
Q 2131 0 1766 0 
Q 1125 0 706 504 
Q 288 1009 288 1791 
Q 288 2575 706 3076 
Q 1125 3578 1766 3578 
Q 2131 3578 2409 3434 
Q 2688 3291 2919 2981 
L 2919 3500 
L 4044 3500 
L 4044 353 
Q 4044 -491 3511 -936 
Q 2978 -1381 1966 -1381 
Q 1638 -1381 1331 -1331 
Q 1025 -1281 716 -1178 
L 716 -306 
Q 1009 -475 1290 -558 
Q 1572 -641 1856 -641 
Q 2406 -641 2662 -400 
Q 2919 -159 2919 353 
L 2919 594 
z
M 2181 2772 
Q 1834 2772 1640 2515 
Q 1447 2259 1447 1791 
Q 1447 1309 1634 1061 
Q 1822 813 2181 813 
Q 2531 813 2725 1069 
Q 2919 1325 2919 1791 
Q 2919 2259 2725 2515 
Q 2531 2772 2181 2772 
z
" transform="scale(0.015625)"/>
      <path id="DejaVuSans-Bold-63" d="M 3366 3391 
L 3366 2478 
Q 3138 2634 2908 2709 
Q 2678 2784 2431 2784 
Q 1963 2784 1702 2511 
Q 1441 2238 1441 1747 
Q 1441 1256 1702 982 
Q 1963 709 2431 709 
Q 2694 709 2930 787 
Q 3166 866 3366 1019 
L 3366 103 
Q 3103 6 2833 -42 
Q 2563 -91 2291 -91 
Q 1344 -91 809 395 
Q 275 881 275 1747 
Q 275 2613 809 3098 
Q 1344 3584 2291 3584 
Q 2566 3584 2833 3536 
Q 3100 3488 3366 3391 
z
" transform="scale(0.015625)"/>
      <path id="DejaVuSans-Bold-2d" d="M 347 2297 
L 2309 2297 
L 2309 1388 
L 347 1388 
L 347 2297 
z
" transform="scale(0.015625)"/>
      <path id="DejaVuSans-Bold-6d" d="M 3781 2919 
Q 3994 3244 4286 3414 
Q 4578 3584 4928 3584 
Q 5531 3584 5847 3212 
Q 6163 2841 6163 2131 
L 6163 0 
L 5038 0 
L 5038 1825 
Q 5041 1866 5042 1909 
Q 5044 1953 5044 2034 
Q 5044 2406 4934 2573 
Q 4825 2741 4581 2741 
Q 4263 2741 4089 2478 
Q 3916 2216 3909 1719 
L 3909 0 
L 2784 0 
L 2784 1825 
Q 2784 2406 2684 2573 
Q 2584 2741 2328 2741 
Q 2006 2741 1831 2477 
Q 1656 2213 1656 1722 
L 1656 0 
L 531 0 
L 531 3500 
L 1656 3500 
L 1656 2988 
Q 1863 3284 2130 3434 
Q 2397 3584 2719 3584 
Q 3081 3584 3359 3409 
Q 3638 3234 3781 2919 
z
" transform="scale(0.015625)"/>
      <path id="DejaVuSans-Bold-74" d="M 1759 4494 
L 1759 3500 
L 2913 3500 
L 2913 2700 
L 1759 2700 
L 1759 1216 
Q 1759 972 1856 886 
Q 1953 800 2241 800 
L 2816 800 
L 2816 0 
L 1856 0 
Q 1194 0 917 276 
Q 641 553 641 1216 
L 641 2700 
L 84 2700 
L 84 3500 
L 641 3500 
L 641 4494 
L 1759 4494 
z
" transform="scale(0.015625)"/>
      <path id="DejaVuSans-Bold-28" d="M 2413 -844 
L 1484 -844 
Q 1006 -72 778 623 
Q 550 1319 550 2003 
Q 550 2688 779 3389 
Q 1009 4091 1484 4856 
L 2413 4856 
Q 2013 4116 1813 3408 
Q 1613 2700 1613 2009 
Q 1613 1319 1811 609 
Q 2009 -100 2413 -844 
z
" transform="scale(0.015625)"/>
      <path id="DejaVuSans-Bold-4c" d="M 588 4666 
L 1791 4666 
L 1791 909 
L 3903 909 
L 3903 0 
L 588 0 
L 588 4666 
z
" transform="scale(0.015625)"/>
      <path id="DejaVuSans-Bold-49" d="M 588 4666 
L 1791 4666 
L 1791 0 
L 588 0 
L 588 4666 
z
" transform="scale(0.015625)"/>
      <path id="DejaVuSans-Bold-41" d="M 3419 850 
L 1538 850 
L 1241 0 
L 31 0 
L 1759 4666 
L 3194 4666 
L 4922 0 
L 3713 0 
L 3419 850 
z
M 1838 1716 
L 3116 1716 
L 2478 3572 
L 1838 1716 
z
" transform="scale(0.015625)"/>
      <path id="DejaVuSans-Bold-2b" d="M 3053 4013 
L 3053 2375 
L 4684 2375 
L 4684 1638 
L 3053 1638 
L 3053 0 
L 2309 0 
L 2309 1638 
L 678 1638 
L 678 2375 
L 2309 2375 
L 2309 4013 
L 3053 4013 
z
" transform="scale(0.015625)"/>
      <path id="DejaVuSans-Bold-2c" d="M 653 1209 
L 1778 1209 
L 1778 256 
L 1006 -909 
L 341 -909 
L 653 256 
L 653 1209 
z
" transform="scale(0.015625)"/>
      <path id="DejaVuSans-Bold-70" d="M 1656 506 
L 1656 -1331 
L 538 -1331 
L 538 3500 
L 1656 3500 
L 1656 2988 
Q 1888 3294 2169 3439 
Q 2450 3584 2816 3584 
Q 3463 3584 3878 3070 
Q 4294 2556 4294 1747 
Q 4294 938 3878 423 
Q 3463 -91 2816 -91 
Q 2450 -91 2169 54 
Q 1888 200 1656 506 
z
M 2400 2772 
Q 2041 2772 1848 2508 
Q 1656 2244 1656 1747 
Q 1656 1250 1848 986 
Q 2041 722 2400 722 
Q 2759 722 2948 984 
Q 3138 1247 3138 1747 
Q 3138 2247 2948 2509 
Q 2759 2772 2400 2772 
z
" transform="scale(0.015625)"/>
      <path id="DejaVuSans-Bold-64" d="M 2919 2988 
L 2919 4863 
L 4044 4863 
L 4044 0 
L 2919 0 
L 2919 506 
Q 2688 197 2409 53 
Q 2131 -91 1766 -91 
Q 1119 -91 703 423 
Q 288 938 288 1747 
Q 288 2556 703 3070 
Q 1119 3584 1766 3584 
Q 2128 3584 2408 3439 
Q 2688 3294 2919 2988 
z
M 2181 722 
Q 2541 722 2730 984 
Q 2919 1247 2919 1747 
Q 2919 2247 2730 2509 
Q 2541 2772 2181 2772 
Q 1825 2772 1636 2509 
Q 1447 2247 1447 1747 
Q 1447 1247 1636 984 
Q 1825 722 2181 722 
z
" transform="scale(0.015625)"/>
      <path id="DejaVuSans-Bold-6a" d="M 538 3500 
L 1656 3500 
L 1656 63 
Q 1656 -641 1318 -1011 
Q 981 -1381 341 -1381 
L -213 -1381 
L -213 -647 
L -19 -647 
Q 300 -647 419 -503 
Q 538 -359 538 63 
L 538 3500 
z
M 538 4863 
L 1656 4863 
L 1656 3950 
L 538 3950 
L 538 4863 
z
" transform="scale(0.015625)"/>
      <path id="DejaVuSans-Bold-3c" d="M 4684 3041 
L 1672 2003 
L 4684 972 
L 4684 191 
L 678 1638 
L 678 2375 
L 4684 3822 
L 4684 3041 
z
" transform="scale(0.015625)"/>
      <path id="DejaVuSans-Bold-30" d="M 2944 2338 
Q 2944 3213 2780 3570 
Q 2616 3928 2228 3928 
Q 1841 3928 1675 3570 
Q 1509 3213 1509 2338 
Q 1509 1453 1675 1090 
Q 1841 728 2228 728 
Q 2613 728 2778 1090 
Q 2944 1453 2944 2338 
z
M 4147 2328 
Q 4147 1169 3647 539 
Q 3147 -91 2228 -91 
Q 1306 -91 806 539 
Q 306 1169 306 2328 
Q 306 3491 806 4120 
Q 1306 4750 2228 4750 
Q 3147 4750 3647 4120 
Q 4147 3491 4147 2328 
z
" transform="scale(0.015625)"/>
      <path id="DejaVuSans-Bold-2e" d="M 653 1209 
L 1778 1209 
L 1778 0 
L 653 0 
L 653 1209 
z
" transform="scale(0.015625)"/>
      <path id="DejaVuSans-Bold-35" d="M 678 4666 
L 3669 4666 
L 3669 3781 
L 1638 3781 
L 1638 3059 
Q 1775 3097 1914 3117 
Q 2053 3138 2203 3138 
Q 3056 3138 3531 2711 
Q 4006 2284 4006 1522 
Q 4006 766 3489 337 
Q 2972 -91 2053 -91 
Q 1656 -91 1267 -14 
Q 878 63 494 219 
L 494 1166 
Q 875 947 1217 837 
Q 1559 728 1863 728 
Q 2300 728 2551 942 
Q 2803 1156 2803 1522 
Q 2803 1891 2551 2103 
Q 2300 2316 1863 2316 
Q 1603 2316 1309 2248 
Q 1016 2181 678 2041 
L 678 4666 
z
" transform="scale(0.015625)"/>
      <path id="DejaVuSans-Bold-29" d="M 513 -844 
Q 913 -100 1113 609 
Q 1313 1319 1313 2009 
Q 1313 2700 1113 3408 
Q 913 4116 513 4856 
L 1441 4856 
Q 1916 4091 2145 3389 
Q 2375 2688 2375 2003 
Q 2375 1319 2147 623 
Q 1919 -72 1441 -844 
L 513 -844 
z
" transform="scale(0.015625)"/>
     </defs>
     <use xlink:href="#DejaVuSans-Bold-4e"/>
     <use xlink:href="#DejaVuSans-Bold-65" x="83.691406"/>
     <use xlink:href="#DejaVuSans-Bold-75" x="151.513672"/>
     <use xlink:href="#DejaVuSans-Bold-72" x="222.705078"/>
     <use xlink:href="#DejaVuSans-Bold-6f" x="272.021484"/>
     <use xlink:href="#DejaVuSans-Bold-6e" x="340.722656"/>
     <use xlink:href="#DejaVuSans-Bold-20" x="411.914062"/>
     <use xlink:href="#DejaVuSans-Bold-2194" x="446.728516"/>
     <use xlink:href="#DejaVuSans-Bold-20" x="530.517578"/>
     <use xlink:href="#DejaVuSans-Bold-67" x="565.332031"/>
     <use xlink:href="#DejaVuSans-Bold-6c" x="636.914062"/>
     <use xlink:href="#DejaVuSans-Bold-69" x="671.191406"/>
     <use xlink:href="#DejaVuSans-Bold-61" x="705.46875"/>
     <use xlink:href="#DejaVuSans-Bold-20" x="772.949219"/>
     <use xlink:href="#DejaVuSans-Bold-63" x="807.763672"/>
     <use xlink:href="#DejaVuSans-Bold-65" x="867.041016"/>
     <use xlink:href="#DejaVuSans-Bold-6c" x="934.863281"/>
     <use xlink:href="#DejaVuSans-Bold-6c" x="969.140625"/>
     <use xlink:href="#DejaVuSans-Bold-2d" x="1003.417969"/>
     <use xlink:href="#DejaVuSans-Bold-63" x="1044.921875"/>
     <use xlink:href="#DejaVuSans-Bold-65" x="1104.199219"/>
     <use xlink:href="#DejaVuSans-Bold-6c" x="1172.021484"/>
     <use xlink:href="#DejaVuSans-Bold-6c" x="1206.298828"/>
     <use xlink:href="#DejaVuSans-Bold-20" x="1240.576172"/>
     <use xlink:href="#DejaVuSans-Bold-63" x="1275.390625"/>
     <use xlink:href="#DejaVuSans-Bold-6f" x="1334.667969"/>
     <use xlink:href="#DejaVuSans-Bold-6d" x="1403.369141"/>
     <use xlink:href="#DejaVuSans-Bold-6d" x="1507.568359"/>
     <use xlink:href="#DejaVuSans-Bold-75" x="1611.767578"/>
     <use xlink:href="#DejaVuSans-Bold-6e" x="1682.958984"/>
     <use xlink:href="#DejaVuSans-Bold-69" x="1754.150391"/>
     <use xlink:href="#DejaVuSans-Bold-63" x="1788.427734"/>
     <use xlink:href="#DejaVuSans-Bold-61" x="1847.705078"/>
     <use xlink:href="#DejaVuSans-Bold-74" x="1915.185547"/>
     <use xlink:href="#DejaVuSans-Bold-69" x="1962.988281"/>
     <use xlink:href="#DejaVuSans-Bold-6f" x="1997.265625"/>
     <use xlink:href="#DejaVuSans-Bold-6e" x="2065.966797"/>
     <use xlink:href="#DejaVuSans-Bold-20" x="2137.158203"/>
     <use xlink:href="#DejaVuSans-Bold-20" x="2171.972656"/>
     <use xlink:href="#DejaVuSans-Bold-28" x="2206.787109"/>
     <use xlink:href="#DejaVuSans-Bold-4c" x="2252.490234"/>
     <use xlink:href="#DejaVuSans-Bold-49" x="2316.210938"/>
     <use xlink:href="#DejaVuSans-Bold-41" x="2353.417969"/>
     <use xlink:href="#DejaVuSans-Bold-4e" x="2430.810547"/>
     <use xlink:href="#DejaVuSans-Bold-41" x="2514.501953"/>
     <use xlink:href="#DejaVuSans-Bold-2b" x="2591.894531"/>
     <use xlink:href="#DejaVuSans-Bold-2c" x="2675.683594"/>
     <use xlink:href="#DejaVuSans-Bold-20" x="2713.671875"/>
     <use xlink:href="#DejaVuSans-Bold-70" x="2748.486328"/>
     <use xlink:href="#DejaVuSans-Bold-61" x="2820.068359"/>
     <use xlink:href="#DejaVuSans-Bold-64" x="2887.548828"/>
     <use xlink:href="#DejaVuSans-Bold-6a" x="2959.130859"/>
     <use xlink:href="#DejaVuSans-Bold-20" x="2993.408203"/>
     <use xlink:href="#DejaVuSans-Bold-3c" x="3028.222656"/>
     <use xlink:href="#DejaVuSans-Bold-20" x="3112.011719"/>
     <use xlink:href="#DejaVuSans-Bold-30" x="3146.826172"/>
     <use xlink:href="#DejaVuSans-Bold-2e" x="3216.40625"/>
     <use xlink:href="#DejaVuSans-Bold-30" x="3254.394531"/>
     <use xlink:href="#DejaVuSans-Bold-35" x="3323.974609"/>
     <use xlink:href="#DejaVuSans-Bold-29" x="3393.554688"/>
    </g>
   </g>
   <g id="patch_18">
    <path d="M 163.435875 92.781386 
C 168.684212 92.781386 173.718297 91.198488 177.429432 88.381307 
C 181.140566 85.564126 183.225752 81.742672 183.225752 77.758577 
C 183.225752 73.774481 181.140566 69.953027 177.429432 67.135846 
C 173.718297 64.318665 168.684212 62.735767 163.435875 62.735767 
C 158.187538 62.735767 153.153453 64.318665 149.442318 67.135846 
C 145.731184 69.953027 143.645998 73.774481 143.645998 77.758577 
C 143.645998 81.742672 145.731184 85.564126 149.442318 88.381307 
C 153.153453 91.198488 158.187538 92.781386 163.435875 92.781386 
z
" clip-path="url(#p9017fc714a)" style="fill: #0f3466; stroke: #ffffff; stroke-width: 1.8; stroke-linejoin: miter"/>
   </g>
   <g id="patch_19">
    <path d="M 163.435875 191.61566 
C 168.684212 191.61566 173.718297 190.032762 177.429432 187.215581 
C 181.140566 184.3984 183.225752 180.576947 183.225752 176.592851 
C 183.225752 172.608755 181.140566 168.787301 177.429432 165.97012 
C 173.718297 163.152939 168.684212 161.570041 163.435875 161.570041 
C 158.187538 161.570041 153.153453 163.152939 149.442318 165.97012 
C 145.731184 168.787301 143.645998 172.608755 143.645998 176.592851 
C 143.645998 180.576947 145.731184 184.3984 149.442318 187.215581 
C 153.153453 190.032762 158.187538 191.61566 163.435875 191.61566 
z
" clip-path="url(#p9017fc714a)" style="fill: #ff7391; stroke: #ffffff; stroke-width: 1.8; stroke-linejoin: miter"/>
   </g>
   <g id="patch_20">
    <path d="M 163.435875 290.449935 
C 168.684212 290.449935 173.718297 288.867037 177.429432 286.049856 
C 181.140566 283.232675 183.225752 279.411221 183.225752 275.427125 
C 183.225752 271.443029 181.140566 267.621575 177.429432 264.804394 
C 173.718297 261.987213 168.684212 260.404315 163.435875 260.404315 
C 158.187538 260.404315 153.153453 261.987213 149.442318 264.804394 
C 145.731184 267.621575 143.645998 271.443029 143.645998 275.427125 
C 143.645998 279.411221 145.731184 283.232675 149.442318 286.049856 
C 153.153453 288.867037 158.187538 290.449935 163.435875 290.449935 
z
" clip-path="url(#p9017fc714a)" style="fill: #cc2400; stroke: #ffffff; stroke-width: 1.8; stroke-linejoin: miter"/>
   </g>
   <g id="patch_21">
    <path d="M 163.435875 389.284209 
C 168.684212 389.284209 173.718297 387.701311 177.429432 384.88413 
C 181.140566 382.066949 183.225752 378.245495 183.225752 374.261399 
C 183.225752 370.277303 181.140566 366.45585 177.429432 363.638669 
C 173.718297 360.821488 168.684212 359.23859 163.435875 359.23859 
C 158.187538 359.23859 153.153453 360.821488 149.442318 363.638669 
C 145.731184 366.45585 143.645998 370.277303 143.645998 374.261399 
C 143.645998 378.245495 145.731184 382.066949 149.442318 384.88413 
C 153.153453 387.701311 158.187538 389.284209 163.435875 389.284209 
z
" clip-path="url(#p9017fc714a)" style="fill: #c973ff; stroke: #ffffff; stroke-width: 1.8; stroke-linejoin: miter"/>
   </g>
   <g id="patch_22">
    <path d="M 163.435875 488.118483 
C 168.684212 488.118483 173.718297 486.535585 177.429432 483.718404 
C 181.140566 480.901223 183.225752 477.079769 183.225752 473.095673 
C 183.225752 469.111578 181.140566 465.290124 177.429432 462.472943 
C 173.718297 459.655762 168.684212 458.072864 163.435875 458.072864 
C 158.187538 458.072864 153.153453 459.655762 149.442318 462.472943 
C 145.731184 465.290124 143.645998 469.111578 143.645998 473.095673 
C 143.645998 477.079769 145.731184 480.901223 149.442318 483.718404 
C 153.153453 486.535585 158.187538 488.118483 163.435875 488.118483 
z
" clip-path="url(#p9017fc714a)" style="fill: #661f3b; stroke: #ffffff; stroke-width: 1.8; stroke-linejoin: miter"/>
   </g>
   <g id="patch_23">
    <path d="M 684.222125 92.781386 
C 689.470462 92.781386 694.504547 91.198488 698.215682 88.381307 
C 701.926816 85.564126 704.012002 81.742672 704.012002 77.758577 
C 704.012002 73.774481 701.926816 69.953027 698.215682 67.135846 
C 694.504547 64.318665 689.470462 62.735767 684.222125 62.735767 
C 678.973788 62.735767 673.939703 64.318665 670.228568 67.135846 
C 666.517434 69.953027 664.432248 73.774481 664.432248 77.758577 
C 664.432248 81.742672 666.517434 85.564126 670.228568 88.381307 
C 673.939703 91.198488 678.973788 92.781386 684.222125 92.781386 
z
" clip-path="url(#p9017fc714a)" style="fill: #994567; stroke: #ffffff; stroke-width: 1.8; stroke-linejoin: miter"/>
   </g>
   <g id="patch_24">
    <path d="M 684.222125 149.258114 
C 689.470462 149.258114 694.504547 147.675216 698.215682 144.858035 
C 701.926816 142.040854 704.012002 138.2194 704.012002 134.235305 
C 704.012002 130.251209 701.926816 126.429755 698.215682 123.612574 
C 694.504547 120.795393 689.470462 119.212495 684.222125 119.212495 
C 678.973788 119.212495 673.939703 120.795393 670.228568 123.612574 
C 666.517434 126.429755 664.432248 130.251209 664.432248 134.235305 
C 664.432248 138.2194 666.517434 142.040854 670.228568 144.858035 
C 673.939703 147.675216 678.973788 149.258114 684.222125 149.258114 
z
" clip-path="url(#p9017fc714a)" style="fill: #99ffbc; stroke: #ffffff; stroke-width: 1.8; stroke-linejoin: miter"/>
   </g>
   <g id="patch_25">
    <path d="M 684.222125 205.734843 
C 689.470462 205.734843 694.504547 204.151945 698.215682 201.334763 
C 701.926816 198.517582 704.012002 194.696129 704.012002 190.712033 
C 704.012002 186.727937 701.926816 182.906483 698.215682 180.089302 
C 694.504547 177.272121 689.470462 175.689223 684.222125 175.689223 
C 678.973788 175.689223 673.939703 177.272121 670.228568 180.089302 
C 666.517434 182.906483 664.432248 186.727937 664.432248 190.712033 
C 664.432248 194.696129 666.517434 198.517582 670.228568 201.334763 
C 673.939703 204.151945 678.973788 205.734843 684.222125 205.734843 
z
" clip-path="url(#p9017fc714a)" style="fill: #3dccb1; stroke: #ffffff; stroke-width: 1.8; stroke-linejoin: miter"/>
   </g>
   <g id="patch_26">
    <path d="M 684.222125 262.211571 
C 689.470462 262.211571 694.504547 260.628673 698.215682 257.811492 
C 701.926816 254.99431 704.012002 251.172857 704.012002 247.188761 
C 704.012002 243.204665 701.926816 239.383211 698.215682 236.56603 
C 694.504547 233.748849 689.470462 232.165951 684.222125 232.165951 
C 678.973788 232.165951 673.939703 233.748849 670.228568 236.56603 
C 666.517434 239.383211 664.432248 243.204665 664.432248 247.188761 
C 664.432248 251.172857 666.517434 254.99431 670.228568 257.811492 
C 673.939703 260.628673 678.973788 262.211571 684.222125 262.211571 
z
" clip-path="url(#p9017fc714a)" style="fill: #ff26cb; stroke: #ffffff; stroke-width: 1.8; stroke-linejoin: miter"/>
   </g>
   <g id="patch_27">
    <path d="M 684.222125 318.688299 
C 689.470462 318.688299 694.504547 317.105401 698.215682 314.28822 
C 701.926816 311.471039 704.012002 307.649585 704.012002 303.665489 
C 704.012002 299.681393 701.926816 295.85994 698.215682 293.042758 
C 694.504547 290.225577 689.470462 288.642679 684.222125 288.642679 
C 678.973788 288.642679 673.939703 290.225577 670.228568 293.042758 
C 666.517434 295.85994 664.432248 299.681393 664.432248 303.665489 
C 664.432248 307.649585 666.517434 311.471039 670.228568 314.28822 
C 673.939703 317.105401 678.973788 318.688299 684.222125 318.688299 
z
" clip-path="url(#p9017fc714a)" style="fill: #cc1f4e; stroke: #ffffff; stroke-width: 1.8; stroke-linejoin: miter"/>
   </g>
   <g id="patch_28">
    <path d="M 684.222125 375.165027 
C 689.470462 375.165027 694.504547 373.582129 698.215682 370.764948 
C 701.926816 367.947767 704.012002 364.126313 704.012002 360.142217 
C 704.012002 356.158121 701.926816 352.336668 698.215682 349.519487 
C 694.504547 346.702305 689.470462 345.119407 684.222125 345.119407 
C 678.973788 345.119407 673.939703 346.702305 670.228568 349.519487 
C 666.517434 352.336668 664.432248 356.158121 664.432248 360.142217 
C 664.432248 364.126313 666.517434 367.947767 670.228568 370.764948 
C 673.939703 373.582129 678.973788 375.165027 684.222125 375.165027 
z
" clip-path="url(#p9017fc714a)" style="fill: #2d9917; stroke: #ffffff; stroke-width: 1.8; stroke-linejoin: miter"/>
   </g>
   <g id="patch_29">
    <path d="M 684.222125 431.641755 
C 689.470462 431.641755 694.504547 430.058857 698.215682 427.241676 
C 701.926816 424.424495 704.012002 420.603041 704.012002 416.618945 
C 704.012002 412.63485 701.926816 408.813396 698.215682 405.996215 
C 694.504547 403.179034 689.470462 401.596136 684.222125 401.596136 
C 678.973788 401.596136 673.939703 403.179034 670.228568 405.996215 
C 666.517434 408.813396 664.432248 412.63485 664.432248 416.618945 
C 664.432248 420.603041 666.517434 424.424495 670.228568 427.241676 
C 673.939703 430.058857 678.973788 431.641755 684.222125 431.641755 
z
" clip-path="url(#p9017fc714a)" style="fill: #ad5ccc; stroke: #ffffff; stroke-width: 1.8; stroke-linejoin: miter"/>
   </g>
   <g id="patch_30">
    <path d="M 684.222125 488.118483 
C 689.470462 488.118483 694.504547 486.535585 698.215682 483.718404 
C 701.926816 480.901223 704.012002 477.079769 704.012002 473.095673 
C 704.012002 469.111578 701.926816 465.290124 698.215682 462.472943 
C 694.504547 459.655762 689.470462 458.072864 684.222125 458.072864 
C 678.973788 458.072864 673.939703 459.655762 670.228568 462.472943 
C 666.517434 465.290124 664.432248 469.111578 664.432248 473.095673 
C 664.432248 477.079769 666.517434 480.901223 670.228568 483.718404 
C 673.939703 486.535585 678.973788 488.118483 684.222125 488.118483 
z
" clip-path="url(#p9017fc714a)" style="fill: #653d66; stroke: #ffffff; stroke-width: 1.8; stroke-linejoin: miter"/>
   </g>
   <g id="text_4">
    <!-- CA1-ProS -->
    <g style="fill: #222222" transform="translate(80.733529 80.379983) scale(0.095 -0.095)">
     <defs>
      <path id="DejaVuSans-Bold-43" d="M 4288 256 
Q 3956 84 3597 -3 
Q 3238 -91 2847 -91 
Q 1681 -91 1000 561 
Q 319 1213 319 2328 
Q 319 3447 1000 4098 
Q 1681 4750 2847 4750 
Q 3238 4750 3597 4662 
Q 3956 4575 4288 4403 
L 4288 3438 
Q 3953 3666 3628 3772 
Q 3303 3878 2944 3878 
Q 2300 3878 1931 3465 
Q 1563 3053 1563 2328 
Q 1563 1606 1931 1193 
Q 2300 781 2944 781 
Q 3303 781 3628 887 
Q 3953 994 4288 1222 
L 4288 256 
z
" transform="scale(0.015625)"/>
      <path id="DejaVuSans-Bold-31" d="M 750 831 
L 1813 831 
L 1813 3847 
L 722 3622 
L 722 4441 
L 1806 4666 
L 2950 4666 
L 2950 831 
L 4013 831 
L 4013 0 
L 750 0 
L 750 831 
z
" transform="scale(0.015625)"/>
      <path id="DejaVuSans-Bold-50" d="M 588 4666 
L 2584 4666 
Q 3475 4666 3951 4270 
Q 4428 3875 4428 3144 
Q 4428 2409 3951 2014 
Q 3475 1619 2584 1619 
L 1791 1619 
L 1791 0 
L 588 0 
L 588 4666 
z
M 1791 3794 
L 1791 2491 
L 2456 2491 
Q 2806 2491 2997 2661 
Q 3188 2831 3188 3144 
Q 3188 3456 2997 3625 
Q 2806 3794 2456 3794 
L 1791 3794 
z
" transform="scale(0.015625)"/>
      <path id="DejaVuSans-Bold-53" d="M 3834 4519 
L 3834 3531 
Q 3450 3703 3084 3790 
Q 2719 3878 2394 3878 
Q 1963 3878 1756 3759 
Q 1550 3641 1550 3391 
Q 1550 3203 1689 3098 
Q 1828 2994 2194 2919 
L 2706 2816 
Q 3484 2659 3812 2340 
Q 4141 2022 4141 1434 
Q 4141 663 3683 286 
Q 3225 -91 2284 -91 
Q 1841 -91 1394 -6 
Q 947 78 500 244 
L 500 1259 
Q 947 1022 1364 901 
Q 1781 781 2169 781 
Q 2563 781 2772 912 
Q 2981 1044 2981 1288 
Q 2981 1506 2839 1625 
Q 2697 1744 2272 1838 
L 1806 1941 
Q 1106 2091 782 2419 
Q 459 2747 459 3303 
Q 459 4000 909 4375 
Q 1359 4750 2203 4750 
Q 2588 4750 2994 4692 
Q 3400 4634 3834 4519 
z
" transform="scale(0.015625)"/>
     </defs>
     <use xlink:href="#DejaVuSans-Bold-43"/>
     <use xlink:href="#DejaVuSans-Bold-41" x="73.388672"/>
     <use xlink:href="#DejaVuSans-Bold-31" x="150.78125"/>
     <use xlink:href="#DejaVuSans-Bold-2d" x="220.361328"/>
     <use xlink:href="#DejaVuSans-Bold-50" x="261.865234"/>
     <use xlink:href="#DejaVuSans-Bold-72" x="335.15625"/>
     <use xlink:href="#DejaVuSans-Bold-6f" x="384.472656"/>
     <use xlink:href="#DejaVuSans-Bold-53" x="453.173828"/>
    </g>
   </g>
   <g id="text_5">
    <!-- CA2-FC-IG -->
    <g style="fill: #222222" transform="translate(76.799935 179.214257) scale(0.095 -0.095)">
     <defs>
      <path id="DejaVuSans-Bold-32" d="M 1844 884 
L 3897 884 
L 3897 0 
L 506 0 
L 506 884 
L 2209 2388 
Q 2438 2594 2547 2791 
Q 2656 2988 2656 3200 
Q 2656 3528 2436 3728 
Q 2216 3928 1850 3928 
Q 1569 3928 1234 3808 
Q 900 3688 519 3450 
L 519 4475 
Q 925 4609 1322 4679 
Q 1719 4750 2100 4750 
Q 2938 4750 3402 4381 
Q 3866 4013 3866 3353 
Q 3866 2972 3669 2642 
Q 3472 2313 2841 1759 
L 1844 884 
z
" transform="scale(0.015625)"/>
      <path id="DejaVuSans-Bold-46" d="M 588 4666 
L 3834 4666 
L 3834 3756 
L 1791 3756 
L 1791 2888 
L 3713 2888 
L 3713 1978 
L 1791 1978 
L 1791 0 
L 588 0 
L 588 4666 
z
" transform="scale(0.015625)"/>
     </defs>
     <use xlink:href="#DejaVuSans-Bold-43"/>
     <use xlink:href="#DejaVuSans-Bold-41" x="73.388672"/>
     <use xlink:href="#DejaVuSans-Bold-32" x="150.78125"/>
     <use xlink:href="#DejaVuSans-Bold-2d" x="220.361328"/>
     <use xlink:href="#DejaVuSans-Bold-46" x="261.865234"/>
     <use xlink:href="#DejaVuSans-Bold-43" x="330.175781"/>
     <use xlink:href="#DejaVuSans-Bold-2d" x="405.814453"/>
     <use xlink:href="#DejaVuSans-Bold-49" x="447.318359"/>
     <use xlink:href="#DejaVuSans-Bold-47" x="484.525391"/>
    </g>
   </g>
   <g id="text_6">
    <!-- DG -->
    <g style="fill: #222222" transform="translate(114.942435 278.048531) scale(0.095 -0.095)">
     <defs>
      <path id="DejaVuSans-Bold-44" d="M 1791 3756 
L 1791 909 
L 2222 909 
Q 2959 909 3348 1275 
Q 3738 1641 3738 2338 
Q 3738 3031 3350 3393 
Q 2963 3756 2222 3756 
L 1791 3756 
z
M 588 4666 
L 1856 4666 
Q 2919 4666 3439 4514 
Q 3959 4363 4331 4000 
Q 4659 3684 4818 3271 
Q 4978 2859 4978 2338 
Q 4978 1809 4818 1395 
Q 4659 981 4331 666 
Q 3956 303 3431 151 
Q 2906 0 1856 0 
L 588 0 
L 588 4666 
z
" transform="scale(0.015625)"/>
     </defs>
     <use xlink:href="#DejaVuSans-Bold-44"/>
     <use xlink:href="#DejaVuSans-Bold-47" x="83.007812"/>
    </g>
   </g>
   <g id="text_7">
    <!-- CA3 -->
    <g style="fill: #222222" transform="translate(109.692201 376.882805) scale(0.095 -0.095)">
     <defs>
      <path id="DejaVuSans-Bold-33" d="M 2981 2516 
Q 3453 2394 3698 2092 
Q 3944 1791 3944 1325 
Q 3944 631 3412 270 
Q 2881 -91 1863 -91 
Q 1503 -91 1142 -33 
Q 781 25 428 141 
L 428 1069 
Q 766 900 1098 814 
Q 1431 728 1753 728 
Q 2231 728 2486 893 
Q 2741 1059 2741 1369 
Q 2741 1688 2480 1852 
Q 2219 2016 1709 2016 
L 1228 2016 
L 1228 2791 
L 1734 2791 
Q 2188 2791 2409 2933 
Q 2631 3075 2631 3366 
Q 2631 3634 2415 3781 
Q 2200 3928 1806 3928 
Q 1516 3928 1219 3862 
Q 922 3797 628 3669 
L 628 4550 
Q 984 4650 1334 4700 
Q 1684 4750 2022 4750 
Q 2931 4750 3382 4451 
Q 3834 4153 3834 3553 
Q 3834 3144 3618 2883 
Q 3403 2622 2981 2516 
z
" transform="scale(0.015625)"/>
     </defs>
     <use xlink:href="#DejaVuSans-Bold-43"/>
     <use xlink:href="#DejaVuSans-Bold-41" x="73.388672"/>
     <use xlink:href="#DejaVuSans-Bold-33" x="150.78125"/>
    </g>
   </g>
   <g id="text_8">
    <!-- Pvalb -->
    <g style="fill: #222222" transform="translate(101.002669 475.71708) scale(0.095 -0.095)">
     <defs>
      <path id="DejaVuSans-Bold-76" d="M 97 3500 
L 1216 3500 
L 2088 1081 
L 2956 3500 
L 4078 3500 
L 2700 0 
L 1472 0 
L 97 3500 
z
" transform="scale(0.015625)"/>
      <path id="DejaVuSans-Bold-62" d="M 2400 722 
Q 2759 722 2948 984 
Q 3138 1247 3138 1747 
Q 3138 2247 2948 2509 
Q 2759 2772 2400 2772 
Q 2041 2772 1848 2508 
Q 1656 2244 1656 1747 
Q 1656 1250 1848 986 
Q 2041 722 2400 722 
z
M 1656 2988 
Q 1888 3294 2169 3439 
Q 2450 3584 2816 3584 
Q 3463 3584 3878 3070 
Q 4294 2556 4294 1747 
Q 4294 938 3878 423 
Q 3463 -91 2816 -91 
Q 2450 -91 2169 54 
Q 1888 200 1656 506 
L 1656 0 
L 538 0 
L 538 4863 
L 1656 4863 
L 1656 2988 
z
" transform="scale(0.015625)"/>
     </defs>
     <use xlink:href="#DejaVuSans-Bold-50"/>
     <use xlink:href="#DejaVuSans-Bold-76" x="73.291016"/>
     <use xlink:href="#DejaVuSans-Bold-61" x="138.476562"/>
     <use xlink:href="#DejaVuSans-Bold-6c" x="205.957031"/>
     <use xlink:href="#DejaVuSans-Bold-62" x="240.234375"/>
    </g>
   </g>
   <g id="text_9">
    <!-- Endo -->
    <g style="fill: #222222" transform="translate(717.031659 80.379983) scale(0.095 -0.095)">
     <defs>
      <path id="DejaVuSans-Bold-45" d="M 588 4666 
L 3834 4666 
L 3834 3756 
L 1791 3756 
L 1791 2888 
L 3713 2888 
L 3713 1978 
L 1791 1978 
L 1791 909 
L 3903 909 
L 3903 0 
L 588 0 
L 588 4666 
z
" transform="scale(0.015625)"/>
     </defs>
     <use xlink:href="#DejaVuSans-Bold-45"/>
     <use xlink:href="#DejaVuSans-Bold-6e" x="68.310547"/>
     <use xlink:href="#DejaVuSans-Bold-64" x="139.501953"/>
     <use xlink:href="#DejaVuSans-Bold-6f" x="211.083984"/>
    </g>
   </g>
   <g id="text_10">
    <!-- Oligo -->
    <g style="fill: #222222" transform="translate(717.031659 136.819602) scale(0.095 -0.095)">
     <defs>
      <path id="DejaVuSans-Bold-4f" d="M 2719 3878 
Q 2169 3878 1866 3472 
Q 1563 3066 1563 2328 
Q 1563 1594 1866 1187 
Q 2169 781 2719 781 
Q 3272 781 3575 1187 
Q 3878 1594 3878 2328 
Q 3878 3066 3575 3472 
Q 3272 3878 2719 3878 
z
M 2719 4750 
Q 3844 4750 4481 4106 
Q 5119 3463 5119 2328 
Q 5119 1197 4481 553 
Q 3844 -91 2719 -91 
Q 1597 -91 958 553 
Q 319 1197 319 2328 
Q 319 3463 958 4106 
Q 1597 4750 2719 4750 
z
" transform="scale(0.015625)"/>
     </defs>
     <use xlink:href="#DejaVuSans-Bold-4f"/>
     <use xlink:href="#DejaVuSans-Bold-6c" x="85.009766"/>
     <use xlink:href="#DejaVuSans-Bold-69" x="119.287109"/>
     <use xlink:href="#DejaVuSans-Bold-67" x="153.564453"/>
     <use xlink:href="#DejaVuSans-Bold-6f" x="225.146484"/>
    </g>
   </g>
   <g id="text_11">
    <!-- Astro-TE -->
    <g style="fill: #222222" transform="translate(717.031659 193.333439) scale(0.095 -0.095)">
     <defs>
      <path id="DejaVuSans-Bold-54" d="M 31 4666 
L 4331 4666 
L 4331 3756 
L 2784 3756 
L 2784 0 
L 1581 0 
L 1581 3756 
L 31 3756 
L 31 4666 
z
" transform="scale(0.015625)"/>
     </defs>
     <use xlink:href="#DejaVuSans-Bold-41"/>
     <use xlink:href="#DejaVuSans-Bold-73" x="77.392578"/>
     <use xlink:href="#DejaVuSans-Bold-74" x="136.914062"/>
     <use xlink:href="#DejaVuSans-Bold-72" x="184.716797"/>
     <use xlink:href="#DejaVuSans-Bold-6f" x="234.033203"/>
     <use xlink:href="#DejaVuSans-Bold-2d" x="302.734375"/>
     <use xlink:href="#DejaVuSans-Bold-54" x="329.488281"/>
     <use xlink:href="#DejaVuSans-Bold-45" x="397.701172"/>
    </g>
   </g>
   <g id="text_12">
    <!-- OPC -->
    <g style="fill: #222222" transform="translate(717.031659 249.810167) scale(0.095 -0.095)">
     <use xlink:href="#DejaVuSans-Bold-4f"/>
     <use xlink:href="#DejaVuSans-Bold-50" x="85.009766"/>
     <use xlink:href="#DejaVuSans-Bold-43" x="158.300781"/>
    </g>
   </g>
   <g id="text_13">
    <!-- Microglia -->
    <g style="fill: #222222" transform="translate(717.031659 306.249786) scale(0.095 -0.095)">
     <defs>
      <path id="DejaVuSans-Bold-4d" d="M 588 4666 
L 2119 4666 
L 3181 2169 
L 4250 4666 
L 5778 4666 
L 5778 0 
L 4641 0 
L 4641 3413 
L 3566 897 
L 2803 897 
L 1728 3413 
L 1728 0 
L 588 0 
L 588 4666 
z
" transform="scale(0.015625)"/>
     </defs>
     <use xlink:href="#DejaVuSans-Bold-4d"/>
     <use xlink:href="#DejaVuSans-Bold-69" x="99.511719"/>
     <use xlink:href="#DejaVuSans-Bold-63" x="133.789062"/>
     <use xlink:href="#DejaVuSans-Bold-72" x="193.066406"/>
     <use xlink:href="#DejaVuSans-Bold-6f" x="242.382812"/>
     <use xlink:href="#DejaVuSans-Bold-67" x="311.083984"/>
     <use xlink:href="#DejaVuSans-Bold-6c" x="382.666016"/>
     <use xlink:href="#DejaVuSans-Bold-69" x="416.943359"/>
     <use xlink:href="#DejaVuSans-Bold-61" x="451.220703"/>
    </g>
   </g>
   <g id="text_14">
    <!-- CHOR -->
    <g style="fill: #222222" transform="translate(717.031659 362.763623) scale(0.095 -0.095)">
     <defs>
      <path id="DejaVuSans-Bold-48" d="M 588 4666 
L 1791 4666 
L 1791 2888 
L 3566 2888 
L 3566 4666 
L 4769 4666 
L 4769 0 
L 3566 0 
L 3566 1978 
L 1791 1978 
L 1791 0 
L 588 0 
L 588 4666 
z
" transform="scale(0.015625)"/>
      <path id="DejaVuSans-Bold-52" d="M 2297 2597 
Q 2675 2597 2839 2737 
Q 3003 2878 3003 3200 
Q 3003 3519 2839 3656 
Q 2675 3794 2297 3794 
L 1791 3794 
L 1791 2597 
L 2297 2597 
z
M 1791 1766 
L 1791 0 
L 588 0 
L 588 4666 
L 2425 4666 
Q 3347 4666 3776 4356 
Q 4206 4047 4206 3378 
Q 4206 2916 3982 2619 
Q 3759 2322 3309 2181 
Q 3556 2125 3751 1926 
Q 3947 1728 4147 1325 
L 4800 0 
L 3519 0 
L 2950 1159 
Q 2778 1509 2601 1637 
Q 2425 1766 2131 1766 
L 1791 1766 
z
" transform="scale(0.015625)"/>
     </defs>
     <use xlink:href="#DejaVuSans-Bold-43"/>
     <use xlink:href="#DejaVuSans-Bold-48" x="73.388672"/>
     <use xlink:href="#DejaVuSans-Bold-4f" x="157.080078"/>
     <use xlink:href="#DejaVuSans-Bold-52" x="242.089844"/>
    </g>
   </g>
   <g id="text_15">
    <!-- Astro-NT -->
    <g style="fill: #222222" transform="translate(717.031659 419.240352) scale(0.095 -0.095)">
     <use xlink:href="#DejaVuSans-Bold-41"/>
     <use xlink:href="#DejaVuSans-Bold-73" x="77.392578"/>
     <use xlink:href="#DejaVuSans-Bold-74" x="136.914062"/>
     <use xlink:href="#DejaVuSans-Bold-72" x="184.716797"/>
     <use xlink:href="#DejaVuSans-Bold-6f" x="234.033203"/>
     <use xlink:href="#DejaVuSans-Bold-2d" x="302.734375"/>
     <use xlink:href="#DejaVuSans-Bold-4e" x="344.238281"/>
     <use xlink:href="#DejaVuSans-Bold-54" x="427.929688"/>
    </g>
   </g>
   <g id="text_16">
    <!-- VLMC -->
    <g style="fill: #222222" transform="translate(717.031659 475.71708) scale(0.095 -0.095)">
     <defs>
      <path id="DejaVuSans-Bold-56" d="M 31 4666 
L 1241 4666 
L 2478 1222 
L 3713 4666 
L 4922 4666 
L 3194 0 
L 1759 0 
L 31 4666 
z
" transform="scale(0.015625)"/>
     </defs>
     <use xlink:href="#DejaVuSans-Bold-56"/>
     <use xlink:href="#DejaVuSans-Bold-4c" x="77.392578"/>
     <use xlink:href="#DejaVuSans-Bold-4d" x="141.113281"/>
     <use xlink:href="#DejaVuSans-Bold-43" x="240.625"/>
    </g>
   </g>
   <g id="legend_1">
    <g id="text_17">
     <!-- Direction -->
     <g transform="translate(37.196168 535.083394) scale(0.09 -0.09)">
      <defs>
       <path id="DejaVuSans-44" d="M 1259 4147 
L 1259 519 
L 2022 519 
Q 2988 519 3436 956 
Q 3884 1394 3884 2338 
Q 3884 3275 3436 3711 
Q 2988 4147 2022 4147 
L 1259 4147 
z
M 628 4666 
L 1925 4666 
Q 3281 4666 3915 4102 
Q 4550 3538 4550 2338 
Q 4550 1131 3912 565 
Q 3275 0 1925 0 
L 628 0 
L 628 4666 
z
" transform="scale(0.015625)"/>
       <path id="DejaVuSans-69" d="M 603 3500 
L 1178 3500 
L 1178 0 
L 603 0 
L 603 3500 
z
M 603 4863 
L 1178 4863 
L 1178 4134 
L 603 4134 
L 603 4863 
z
" transform="scale(0.015625)"/>
       <path id="DejaVuSans-72" d="M 2631 2963 
Q 2534 3019 2420 3045 
Q 2306 3072 2169 3072 
Q 1681 3072 1420 2755 
Q 1159 2438 1159 1844 
L 1159 0 
L 581 0 
L 581 3500 
L 1159 3500 
L 1159 2956 
Q 1341 3275 1631 3429 
Q 1922 3584 2338 3584 
Q 2397 3584 2469 3576 
Q 2541 3569 2628 3553 
L 2631 2963 
z
" transform="scale(0.015625)"/>
       <path id="DejaVuSans-65" d="M 3597 1894 
L 3597 1613 
L 953 1613 
Q 991 1019 1311 708 
Q 1631 397 2203 397 
Q 2534 397 2845 478 
Q 3156 559 3463 722 
L 3463 178 
Q 3153 47 2828 -22 
Q 2503 -91 2169 -91 
Q 1331 -91 842 396 
Q 353 884 353 1716 
Q 353 2575 817 3079 
Q 1281 3584 2069 3584 
Q 2775 3584 3186 3129 
Q 3597 2675 3597 1894 
z
M 3022 2063 
Q 3016 2534 2758 2815 
Q 2500 3097 2075 3097 
Q 1594 3097 1305 2825 
Q 1016 2553 972 2059 
L 3022 2063 
z
" transform="scale(0.015625)"/>
       <path id="DejaVuSans-63" d="M 3122 3366 
L 3122 2828 
Q 2878 2963 2633 3030 
Q 2388 3097 2138 3097 
Q 1578 3097 1268 2742 
Q 959 2388 959 1747 
Q 959 1106 1268 751 
Q 1578 397 2138 397 
Q 2388 397 2633 464 
Q 2878 531 3122 666 
L 3122 134 
Q 2881 22 2623 -34 
Q 2366 -91 2075 -91 
Q 1284 -91 818 406 
Q 353 903 353 1747 
Q 353 2603 823 3093 
Q 1294 3584 2113 3584 
Q 2378 3584 2631 3529 
Q 2884 3475 3122 3366 
z
" transform="scale(0.015625)"/>
       <path id="DejaVuSans-74" d="M 1172 4494 
L 1172 3500 
L 2356 3500 
L 2356 3053 
L 1172 3053 
L 1172 1153 
Q 1172 725 1289 603 
Q 1406 481 1766 481 
L 2356 481 
L 2356 0 
L 1766 0 
Q 1100 0 847 248 
Q 594 497 594 1153 
L 594 3053 
L 172 3053 
L 172 3500 
L 594 3500 
L 594 4494 
L 1172 4494 
z
" transform="scale(0.015625)"/>
       <path id="DejaVuSans-6f" d="M 1959 3097 
Q 1497 3097 1228 2736 
Q 959 2375 959 1747 
Q 959 1119 1226 758 
Q 1494 397 1959 397 
Q 2419 397 2687 759 
Q 2956 1122 2956 1747 
Q 2956 2369 2687 2733 
Q 2419 3097 1959 3097 
z
M 1959 3584 
Q 2709 3584 3137 3096 
Q 3566 2609 3566 1747 
Q 3566 888 3137 398 
Q 2709 -91 1959 -91 
Q 1206 -91 779 398 
Q 353 888 353 1747 
Q 353 2609 779 3096 
Q 1206 3584 1959 3584 
z
" transform="scale(0.015625)"/>
       <path id="DejaVuSans-6e" d="M 3513 2113 
L 3513 0 
L 2938 0 
L 2938 2094 
Q 2938 2591 2744 2837 
Q 2550 3084 2163 3084 
Q 1697 3084 1428 2787 
Q 1159 2491 1159 1978 
L 1159 0 
L 581 0 
L 581 3500 
L 1159 3500 
L 1159 2956 
Q 1366 3272 1645 3428 
Q 1925 3584 2291 3584 
Q 2894 3584 3203 3211 
Q 3513 2838 3513 2113 
z
" transform="scale(0.015625)"/>
      </defs>
      <use xlink:href="#DejaVuSans-44"/>
      <use xlink:href="#DejaVuSans-69" x="77.001953"/>
      <use xlink:href="#DejaVuSans-72" x="104.785156"/>
      <use xlink:href="#DejaVuSans-65" x="143.648438"/>
      <use xlink:href="#DejaVuSans-63" x="205.171875"/>
      <use xlink:href="#DejaVuSans-74" x="260.152344"/>
      <use xlink:href="#DejaVuSans-69" x="299.361328"/>
      <use xlink:href="#DejaVuSans-6f" x="327.144531"/>
      <use xlink:href="#DejaVuSans-6e" x="388.326172"/>
     </g>
    </g>
    <g id="patch_31">
     <path d="M -1.81516 547.663784 
L 15.18484 547.663784 
L 15.18484 541.713784 
L -1.81516 541.713784 
z
" style="fill: #d62728; stroke: #d62728; stroke-linejoin: miter"/>
    </g>
    <g id="text_18">
     <!-- Upregulated in PPD -->
     <g transform="translate(21.98484 547.663784) scale(0.085 -0.085)">
      <defs>
       <path id="DejaVuSans-55" d="M 556 4666 
L 1191 4666 
L 1191 1831 
Q 1191 1081 1462 751 
Q 1734 422 2344 422 
Q 2950 422 3222 751 
Q 3494 1081 3494 1831 
L 3494 4666 
L 4128 4666 
L 4128 1753 
Q 4128 841 3676 375 
Q 3225 -91 2344 -91 
Q 1459 -91 1007 375 
Q 556 841 556 1753 
L 556 4666 
z
" transform="scale(0.015625)"/>
       <path id="DejaVuSans-70" d="M 1159 525 
L 1159 -1331 
L 581 -1331 
L 581 3500 
L 1159 3500 
L 1159 2969 
Q 1341 3281 1617 3432 
Q 1894 3584 2278 3584 
Q 2916 3584 3314 3078 
Q 3713 2572 3713 1747 
Q 3713 922 3314 415 
Q 2916 -91 2278 -91 
Q 1894 -91 1617 61 
Q 1341 213 1159 525 
z
M 3116 1747 
Q 3116 2381 2855 2742 
Q 2594 3103 2138 3103 
Q 1681 3103 1420 2742 
Q 1159 2381 1159 1747 
Q 1159 1113 1420 752 
Q 1681 391 2138 391 
Q 2594 391 2855 752 
Q 3116 1113 3116 1747 
z
" transform="scale(0.015625)"/>
       <path id="DejaVuSans-67" d="M 2906 1791 
Q 2906 2416 2648 2759 
Q 2391 3103 1925 3103 
Q 1463 3103 1205 2759 
Q 947 2416 947 1791 
Q 947 1169 1205 825 
Q 1463 481 1925 481 
Q 2391 481 2648 825 
Q 2906 1169 2906 1791 
z
M 3481 434 
Q 3481 -459 3084 -895 
Q 2688 -1331 1869 -1331 
Q 1566 -1331 1297 -1286 
Q 1028 -1241 775 -1147 
L 775 -588 
Q 1028 -725 1275 -790 
Q 1522 -856 1778 -856 
Q 2344 -856 2625 -561 
Q 2906 -266 2906 331 
L 2906 616 
Q 2728 306 2450 153 
Q 2172 0 1784 0 
Q 1141 0 747 490 
Q 353 981 353 1791 
Q 353 2603 747 3093 
Q 1141 3584 1784 3584 
Q 2172 3584 2450 3431 
Q 2728 3278 2906 2969 
L 2906 3500 
L 3481 3500 
L 3481 434 
z
" transform="scale(0.015625)"/>
       <path id="DejaVuSans-75" d="M 544 1381 
L 544 3500 
L 1119 3500 
L 1119 1403 
Q 1119 906 1312 657 
Q 1506 409 1894 409 
Q 2359 409 2629 706 
Q 2900 1003 2900 1516 
L 2900 3500 
L 3475 3500 
L 3475 0 
L 2900 0 
L 2900 538 
Q 2691 219 2414 64 
Q 2138 -91 1772 -91 
Q 1169 -91 856 284 
Q 544 659 544 1381 
z
M 1991 3584 
L 1991 3584 
z
" transform="scale(0.015625)"/>
       <path id="DejaVuSans-6c" d="M 603 4863 
L 1178 4863 
L 1178 0 
L 603 0 
L 603 4863 
z
" transform="scale(0.015625)"/>
       <path id="DejaVuSans-61" d="M 2194 1759 
Q 1497 1759 1228 1600 
Q 959 1441 959 1056 
Q 959 750 1161 570 
Q 1363 391 1709 391 
Q 2188 391 2477 730 
Q 2766 1069 2766 1631 
L 2766 1759 
L 2194 1759 
z
M 3341 1997 
L 3341 0 
L 2766 0 
L 2766 531 
Q 2569 213 2275 61 
Q 1981 -91 1556 -91 
Q 1019 -91 701 211 
Q 384 513 384 1019 
Q 384 1609 779 1909 
Q 1175 2209 1959 2209 
L 2766 2209 
L 2766 2266 
Q 2766 2663 2505 2880 
Q 2244 3097 1772 3097 
Q 1472 3097 1187 3025 
Q 903 2953 641 2809 
L 641 3341 
Q 956 3463 1253 3523 
Q 1550 3584 1831 3584 
Q 2591 3584 2966 3190 
Q 3341 2797 3341 1997 
z
" transform="scale(0.015625)"/>
       <path id="DejaVuSans-64" d="M 2906 2969 
L 2906 4863 
L 3481 4863 
L 3481 0 
L 2906 0 
L 2906 525 
Q 2725 213 2448 61 
Q 2172 -91 1784 -91 
Q 1150 -91 751 415 
Q 353 922 353 1747 
Q 353 2572 751 3078 
Q 1150 3584 1784 3584 
Q 2172 3584 2448 3432 
Q 2725 3281 2906 2969 
z
M 947 1747 
Q 947 1113 1208 752 
Q 1469 391 1925 391 
Q 2381 391 2643 752 
Q 2906 1113 2906 1747 
Q 2906 2381 2643 2742 
Q 2381 3103 1925 3103 
Q 1469 3103 1208 2742 
Q 947 2381 947 1747 
z
" transform="scale(0.015625)"/>
       <path id="DejaVuSans-20" transform="scale(0.015625)"/>
       <path id="DejaVuSans-50" d="M 1259 4147 
L 1259 2394 
L 2053 2394 
Q 2494 2394 2734 2622 
Q 2975 2850 2975 3272 
Q 2975 3691 2734 3919 
Q 2494 4147 2053 4147 
L 1259 4147 
z
M 628 4666 
L 2053 4666 
Q 2838 4666 3239 4311 
Q 3641 3956 3641 3272 
Q 3641 2581 3239 2228 
Q 2838 1875 2053 1875 
L 1259 1875 
L 1259 0 
L 628 0 
L 628 4666 
z
" transform="scale(0.015625)"/>
      </defs>
      <use xlink:href="#DejaVuSans-55"/>
      <use xlink:href="#DejaVuSans-70" x="73.193359"/>
      <use xlink:href="#DejaVuSans-72" x="136.669922"/>
      <use xlink:href="#DejaVuSans-65" x="175.533203"/>
      <use xlink:href="#DejaVuSans-67" x="237.056641"/>
      <use xlink:href="#DejaVuSans-75" x="300.533203"/>
      <use xlink:href="#DejaVuSans-6c" x="363.912109"/>
      <use xlink:href="#DejaVuSans-61" x="391.695312"/>
      <use xlink:href="#DejaVuSans-74" x="452.974609"/>
      <use xlink:href="#DejaVuSans-65" x="492.183594"/>
      <use xlink:href="#DejaVuSans-64" x="553.707031"/>
      <use xlink:href="#DejaVuSans-20" x="617.183594"/>
      <use xlink:href="#DejaVuSans-69" x="648.970703"/>
      <use xlink:href="#DejaVuSans-6e" x="676.753906"/>
      <use xlink:href="#DejaVuSans-20" x="740.132812"/>
      <use xlink:href="#DejaVuSans-50" x="771.919922"/>
      <use xlink:href="#DejaVuSans-50" x="832.222656"/>
      <use xlink:href="#DejaVuSans-44" x="892.525391"/>
     </g>
    </g>
    <g id="patch_32">
     <path d="M -1.81516 560.140191 
L 15.18484 560.140191 
L 15.18484 554.190191 
L -1.81516 554.190191 
z
" style="fill: #1f77b4; stroke: #1f77b4; stroke-linejoin: miter"/>
    </g>
    <g id="text_19">
     <!-- Downregulated in PPD -->
     <g transform="translate(21.98484 560.140191) scale(0.085 -0.085)">
      <defs>
       <path id="DejaVuSans-77" d="M 269 3500 
L 844 3500 
L 1563 769 
L 2278 3500 
L 2956 3500 
L 3675 769 
L 4391 3500 
L 4966 3500 
L 4050 0 
L 3372 0 
L 2619 2869 
L 1863 0 
L 1184 0 
L 269 3500 
z
" transform="scale(0.015625)"/>
      </defs>
      <use xlink:href="#DejaVuSans-44"/>
      <use xlink:href="#DejaVuSans-6f" x="77.001953"/>
      <use xlink:href="#DejaVuSans-77" x="138.183594"/>
      <use xlink:href="#DejaVuSans-6e" x="219.970703"/>
      <use xlink:href="#DejaVuSans-72" x="283.349609"/>
      <use xlink:href="#DejaVuSans-65" x="322.212891"/>
      <use xlink:href="#DejaVuSans-67" x="383.736328"/>
      <use xlink:href="#DejaVuSans-75" x="447.212891"/>
      <use xlink:href="#DejaVuSans-6c" x="510.591797"/>
      <use xlink:href="#DejaVuSans-61" x="538.375"/>
      <use xlink:href="#DejaVuSans-74" x="599.654297"/>
      <use xlink:href="#DejaVuSans-65" x="638.863281"/>
      <use xlink:href="#DejaVuSans-64" x="700.386719"/>
      <use xlink:href="#DejaVuSans-20" x="763.863281"/>
      <use xlink:href="#DejaVuSans-69" x="795.650391"/>
      <use xlink:href="#DejaVuSans-6e" x="823.433594"/>
      <use xlink:href="#DejaVuSans-20" x="886.8125"/>
      <use xlink:href="#DejaVuSans-50" x="918.599609"/>
      <use xlink:href="#DejaVuSans-50" x="978.902344"/>
      <use xlink:href="#DejaVuSans-44" x="1039.205078"/>
     </g>
    </g>
   </g>
   <g id="legend_2">
    <g id="text_20">
     <!-- Edge weight -->
     <g transform="translate(782.342105 521.786206) scale(0.09 -0.09)">
      <defs>
       <path id="DejaVuSans-45" d="M 628 4666 
L 3578 4666 
L 3578 4134 
L 1259 4134 
L 1259 2753 
L 3481 2753 
L 3481 2222 
L 1259 2222 
L 1259 531 
L 3634 531 
L 3634 0 
L 628 0 
L 628 4666 
z
" transform="scale(0.015625)"/>
       <path id="DejaVuSans-68" d="M 3513 2113 
L 3513 0 
L 2938 0 
L 2938 2094 
Q 2938 2591 2744 2837 
Q 2550 3084 2163 3084 
Q 1697 3084 1428 2787 
Q 1159 2491 1159 1978 
L 1159 0 
L 581 0 
L 581 4863 
L 1159 4863 
L 1159 2956 
Q 1366 3272 1645 3428 
Q 1925 3584 2291 3584 
Q 2894 3584 3203 3211 
Q 3513 2838 3513 2113 
z
" transform="scale(0.015625)"/>
      </defs>
      <use xlink:href="#DejaVuSans-45"/>
      <use xlink:href="#DejaVuSans-64" x="63.183594"/>
      <use xlink:href="#DejaVuSans-67" x="126.660156"/>
      <use xlink:href="#DejaVuSans-65" x="190.136719"/>
      <use xlink:href="#DejaVuSans-20" x="251.660156"/>
      <use xlink:href="#DejaVuSans-77" x="283.447266"/>
      <use xlink:href="#DejaVuSans-65" x="365.234375"/>
      <use xlink:href="#DejaVuSans-69" x="426.757812"/>
      <use xlink:href="#DejaVuSans-67" x="454.541016"/>
      <use xlink:href="#DejaVuSans-68" x="518.017578"/>
      <use xlink:href="#DejaVuSans-74" x="581.396484"/>
     </g>
    </g>
    <g id="line2d_1">
     <path d="M 771.067301 531.428784 
L 779.567301 531.428784 
L 788.067301 531.428784 
" style="fill: none; stroke: #777777; stroke-width: 1.4; stroke-linecap: square"/>
    </g>
    <g id="text_21">
     <!-- |score| = 0.5 -->
     <g transform="translate(794.867301 534.403784) scale(0.085 -0.085)">
      <defs>
       <path id="DejaVuSans-7c" d="M 1344 4891 
L 1344 -1509 
L 813 -1509 
L 813 4891 
L 1344 4891 
z
" transform="scale(0.015625)"/>
       <path id="DejaVuSans-73" d="M 2834 3397 
L 2834 2853 
Q 2591 2978 2328 3040 
Q 2066 3103 1784 3103 
Q 1356 3103 1142 2972 
Q 928 2841 928 2578 
Q 928 2378 1081 2264 
Q 1234 2150 1697 2047 
L 1894 2003 
Q 2506 1872 2764 1633 
Q 3022 1394 3022 966 
Q 3022 478 2636 193 
Q 2250 -91 1575 -91 
Q 1294 -91 989 -36 
Q 684 19 347 128 
L 347 722 
Q 666 556 975 473 
Q 1284 391 1588 391 
Q 1994 391 2212 530 
Q 2431 669 2431 922 
Q 2431 1156 2273 1281 
Q 2116 1406 1581 1522 
L 1381 1569 
Q 847 1681 609 1914 
Q 372 2147 372 2553 
Q 372 3047 722 3315 
Q 1072 3584 1716 3584 
Q 2034 3584 2315 3537 
Q 2597 3491 2834 3397 
z
" transform="scale(0.015625)"/>
       <path id="DejaVuSans-3d" d="M 678 2906 
L 4684 2906 
L 4684 2381 
L 678 2381 
L 678 2906 
z
M 678 1631 
L 4684 1631 
L 4684 1100 
L 678 1100 
L 678 1631 
z
" transform="scale(0.015625)"/>
       <path id="DejaVuSans-30" d="M 2034 4250 
Q 1547 4250 1301 3770 
Q 1056 3291 1056 2328 
Q 1056 1369 1301 889 
Q 1547 409 2034 409 
Q 2525 409 2770 889 
Q 3016 1369 3016 2328 
Q 3016 3291 2770 3770 
Q 2525 4250 2034 4250 
z
M 2034 4750 
Q 2819 4750 3233 4129 
Q 3647 3509 3647 2328 
Q 3647 1150 3233 529 
Q 2819 -91 2034 -91 
Q 1250 -91 836 529 
Q 422 1150 422 2328 
Q 422 3509 836 4129 
Q 1250 4750 2034 4750 
z
" transform="scale(0.015625)"/>
       <path id="DejaVuSans-2e" d="M 684 794 
L 1344 794 
L 1344 0 
L 684 0 
L 684 794 
z
" transform="scale(0.015625)"/>
       <path id="DejaVuSans-35" d="M 691 4666 
L 3169 4666 
L 3169 4134 
L 1269 4134 
L 1269 2991 
Q 1406 3038 1543 3061 
Q 1681 3084 1819 3084 
Q 2600 3084 3056 2656 
Q 3513 2228 3513 1497 
Q 3513 744 3044 326 
Q 2575 -91 1722 -91 
Q 1428 -91 1123 -41 
Q 819 9 494 109 
L 494 744 
Q 775 591 1075 516 
Q 1375 441 1709 441 
Q 2250 441 2565 725 
Q 2881 1009 2881 1497 
Q 2881 1984 2565 2268 
Q 2250 2553 1709 2553 
Q 1456 2553 1204 2497 
Q 953 2441 691 2322 
L 691 4666 
z
" transform="scale(0.015625)"/>
      </defs>
      <use xlink:href="#DejaVuSans-7c"/>
      <use xlink:href="#DejaVuSans-73" x="33.691406"/>
      <use xlink:href="#DejaVuSans-63" x="85.791016"/>
      <use xlink:href="#DejaVuSans-6f" x="140.771484"/>
      <use xlink:href="#DejaVuSans-72" x="201.953125"/>
      <use xlink:href="#DejaVuSans-65" x="240.816406"/>
      <use xlink:href="#DejaVuSans-7c" x="302.339844"/>
      <use xlink:href="#DejaVuSans-20" x="336.03125"/>
      <use xlink:href="#DejaVuSans-3d" x="367.818359"/>
      <use xlink:href="#DejaVuSans-20" x="451.607422"/>
      <use xlink:href="#DejaVuSans-30" x="483.394531"/>
      <use xlink:href="#DejaVuSans-2e" x="547.017578"/>
      <use xlink:href="#DejaVuSans-35" x="578.804688"/>
     </g>
    </g>
    <g id="line2d_2">
     <path d="M 771.067301 544.178784 
L 779.567301 544.178784 
L 788.067301 544.178784 
" style="fill: none; stroke: #777777; stroke-width: 2.8; stroke-linecap: square"/>
    </g>
    <g id="text_22">
     <!-- |score| = 1.0 -->
     <g transform="translate(794.867301 547.153784) scale(0.085 -0.085)">
      <defs>
       <path id="DejaVuSans-31" d="M 794 531 
L 1825 531 
L 1825 4091 
L 703 3866 
L 703 4441 
L 1819 4666 
L 2450 4666 
L 2450 531 
L 3481 531 
L 3481 0 
L 794 0 
L 794 531 
z
" transform="scale(0.015625)"/>
      </defs>
      <use xlink:href="#DejaVuSans-7c"/>
      <use xlink:href="#DejaVuSans-73" x="33.691406"/>
      <use xlink:href="#DejaVuSans-63" x="85.791016"/>
      <use xlink:href="#DejaVuSans-6f" x="140.771484"/>
      <use xlink:href="#DejaVuSans-72" x="201.953125"/>
      <use xlink:href="#DejaVuSans-65" x="240.816406"/>
      <use xlink:href="#DejaVuSans-7c" x="302.339844"/>
      <use xlink:href="#DejaVuSans-20" x="336.03125"/>
      <use xlink:href="#DejaVuSans-3d" x="367.818359"/>
      <use xlink:href="#DejaVuSans-20" x="451.607422"/>
      <use xlink:href="#DejaVuSans-31" x="483.394531"/>
      <use xlink:href="#DejaVuSans-2e" x="547.017578"/>
      <use xlink:href="#DejaVuSans-30" x="578.804688"/>
     </g>
    </g>
    <g id="line2d_3">
     <path d="M 771.067301 556.928784 
L 779.567301 556.928784 
L 788.067301 556.928784 
" style="fill: none; stroke: #777777; stroke-width: 4.2; stroke-linecap: square"/>
    </g>
    <g id="text_23">
     <!-- |score| = 1.5 -->
     <g transform="translate(794.867301 559.903784) scale(0.085 -0.085)">
      <use xlink:href="#DejaVuSans-7c"/>
      <use xlink:href="#DejaVuSans-73" x="33.691406"/>
      <use xlink:href="#DejaVuSans-63" x="85.791016"/>
      <use xlink:href="#DejaVuSans-6f" x="140.771484"/>
      <use xlink:href="#DejaVuSans-72" x="201.953125"/>
      <use xlink:href="#DejaVuSans-65" x="240.816406"/>
      <use xlink:href="#DejaVuSans-7c" x="302.339844"/>
      <use xlink:href="#DejaVuSans-20" x="336.03125"/>
      <use xlink:href="#DejaVuSans-3d" x="367.818359"/>
      <use xlink:href="#DejaVuSans-20" x="451.607422"/>
      <use xlink:href="#DejaVuSans-31" x="483.394531"/>
      <use xlink:href="#DejaVuSans-2e" x="547.017578"/>
      <use xlink:href="#DejaVuSans-35" x="578.804688"/>
     </g>
    </g>
   </g>
  </g>
 </g>
 <defs>
  <clipPath id="p9017fc714a">
   <rect x="7.2" y="30.318125" width="833.258" height="490.218"/>
  </clipPath>
 </defs>
</svg>
