<?xml version="1.0" encoding="utf-8" standalone="no"?>
<!DOCTYPE svg PUBLIC "-//W3C//DTD SVG 1.1//EN"
  "http://www.w3.org/Graphics/SVG/1.1/DTD/svg11.dtd">
<svg xmlns:xlink="http://www.w3.org/1999/xlink" width="1576.8pt" height="883.018021pt" viewBox="0 0 1576.8 883.018021" xmlns="http://www.w3.org/2000/svg" version="1.1">
 <metadata>
  <rdf:RDF xmlns:dc="http://purl.org/dc/elements/1.1/" xmlns:cc="http://creativecommons.org/ns#" xmlns:rdf="http://www.w3.org/1999/02/22-rdf-syntax-ns#">
   <cc:Work>
    <dc:type rdf:resource="http://purl.org/dc/dcmitype/StillImage"/>
    <dc:date>2026-05-03T14:29:09.909945</dc:date>
    <dc:format>image/svg+xml</dc:format>
    <dc:creator>
     <cc:Agent>
      <dc:title>Matplotlib v3.9.4, https://matplotlib.org/</dc:title>
     </cc:Agent>
    </dc:creator>
   </cc:Work>
  </rdf:RDF>
 </metadata>
 <defs>
  <style type="text/css">*{stroke-linejoin: round; stroke-linecap: butt}</style>
 </defs>
 <g id="figure_1">
  <g id="patch_1">
   <path d="M 0 883.018021 
L 1576.8 883.018021 
L 1576.8 0 
L 0 0 
z
" style="fill: #ffffff"/>
  </g>
  <g id="axes_1">
   <g id="patch_2">
    <path d="M 358.568182 258.518674 
C 358.568182 214.775249 341.437369 172.771281 310.845338 141.504448 
L 310.845338 141.504448 
C 280.253307 110.237615 238.633042 92.194567 194.900027 91.240309 
L 194.900027 91.240309 
C 151.167012 90.286051 108.799333 106.496476 76.872579 136.399144 
L 76.872579 136.399144 
C 44.945825 166.301813 25.999129 207.518567 24.091068 251.220357 
L 34.120604 251.658256 
C 35.914182 210.578573 53.724075 171.834824 83.735224 143.726316 
L 83.735224 143.726316 
C 113.746373 115.617808 153.571991 100.380009 194.681025 101.277011 
L 194.681025 101.277011 
C 235.790059 102.174013 274.913109 119.134478 303.669618 148.525302 
L 303.669618 148.525302 
C 332.426127 177.916125 348.529091 217.399855 348.529091 258.518674 
z
" clip-path="url(#pf3d0e311ed)" style="fill: #0f3466; opacity: 0.72; stroke: #0f3466; stroke-width: 0.3; stroke-linejoin: miter"/>
   </g>
   <g id="patch_3">
    <path d="M 23.931818 258.518674 
C 23.931818 302.262098 41.062631 344.266067 71.654662 375.5329 
L 71.654662 375.5329 
C 102.246693 406.799733 143.866958 424.842781 187.599973 425.797038 
L 187.599973 425.797038 
C 231.332988 426.751296 273.700667 410.540872 305.627421 380.638203 
L 305.627421 380.638203 
C 337.554175 350.735535 356.500871 309.518781 358.408932 265.81699 
L 348.379396 265.379091 
C 346.585818 306.458775 328.775925 345.202523 298.764776 373.311032 
L 298.764776 373.311032 
C 268.753627 401.41954 228.928009 416.657339 187.818975 415.760337 
L 187.818975 415.760337 
C 146.709941 414.863334 107.586891 397.902869 78.830382 368.512046 
L 78.830382 368.512046 
C 50.073873 339.121223 33.970909 299.637493 33.970909 258.518674 
z
" clip-path="url(#pf3d0e311ed)" style="fill: #cc1f4e; opacity: 0.72; stroke: #cc1f4e; stroke-width: 0.3; stroke-linejoin: miter"/>
   </g>
   <g id="patch_4">
    <path d="M 38.990455 258.518674 
C 38.990455 298.32519 54.579494 336.548801 82.418242 365.001619 
L 82.418242 365.001619 
C 110.25699 393.454437 148.131432 409.873611 187.928476 410.741986 
L 187.928476 410.741986 
C 227.725519 411.61036 266.280107 396.858874 295.333453 369.647446 
L 295.333453 369.647446 
C 324.386799 342.436018 341.628292 304.928771 343.364628 265.160142 
C 308.75855 263.649208 308.870499 258.518674 338.49 258.518674 
L 194.571524 106.295362 
L 44.15014 252.096155 
C 73.74145 253.38814 73.629501 258.518674 38.990455 258.518674 
" clip-path="url(#pf3d0e311ed)" style="fill: #cc1f4e; opacity: 0.72; stroke: #cc1f4e; stroke-width: 0.3; stroke-linejoin: miter"/>
   </g>
   <g id="text_1">
    <!-- CA1-ProS -->
    <g transform="translate(181.312565 81.32782) rotate(-358.75) scale(0.06 -0.06)">
     <defs>
      <path id="DejaVuSans-43" d="M 4122 4306 
L 4122 3641 
Q 3803 3938 3442 4084 
Q 3081 4231 2675 4231 
Q 1875 4231 1450 3742 
Q 1025 3253 1025 2328 
Q 1025 1406 1450 917 
Q 1875 428 2675 428 
Q 3081 428 3442 575 
Q 3803 722 4122 1019 
L 4122 359 
Q 3791 134 3420 21 
Q 3050 -91 2638 -91 
Q 1578 -91 968 557 
Q 359 1206 359 2328 
Q 359 3453 968 4101 
Q 1578 4750 2638 4750 
Q 3056 4750 3426 4639 
Q 3797 4528 4122 4306 
z
" transform="scale(0.015625)"/>
      <path id="DejaVuSans-41" d="M 2188 4044 
L 1331 1722 
L 3047 1722 
L 2188 4044 
z
M 1831 4666 
L 2547 4666 
L 4325 0 
L 3669 0 
L 3244 1197 
L 1141 1197 
L 716 0 
L 50 0 
L 1831 4666 
z
" transform="scale(0.015625)"/>
      <path id="DejaVuSans-31" d="M 794 531 
L 1825 531 
L 1825 4091 
L 703 3866 
L 703 4441 
L 1819 4666 
L 2450 4666 
L 2450 531 
L 3481 531 
L 3481 0 
L 794 0 
L 794 531 
z
" transform="scale(0.015625)"/>
      <path id="DejaVuSans-2d" d="M 313 2009 
L 1997 2009 
L 1997 1497 
L 313 1497 
L 313 2009 
z
" transform="scale(0.015625)"/>
      <path id="DejaVuSans-50" d="M 1259 4147 
L 1259 2394 
L 2053 2394 
Q 2494 2394 2734 2622 
Q 2975 2850 2975 3272 
Q 2975 3691 2734 3919 
Q 2494 4147 2053 4147 
L 1259 4147 
z
M 628 4666 
L 2053 4666 
Q 2838 4666 3239 4311 
Q 3641 3956 3641 3272 
Q 3641 2581 3239 2228 
Q 2838 1875 2053 1875 
L 1259 1875 
L 1259 0 
L 628 0 
L 628 4666 
z
" transform="scale(0.015625)"/>
      <path id="DejaVuSans-72" d="M 2631 2963 
Q 2534 3019 2420 3045 
Q 2306 3072 2169 3072 
Q 1681 3072 1420 2755 
Q 1159 2438 1159 1844 
L 1159 0 
L 581 0 
L 581 3500 
L 1159 3500 
L 1159 2956 
Q 1341 3275 1631 3429 
Q 1922 3584 2338 3584 
Q 2397 3584 2469 3576 
Q 2541 3569 2628 3553 
L 2631 2963 
z
" transform="scale(0.015625)"/>
      <path id="DejaVuSans-6f" d="M 1959 3097 
Q 1497 3097 1228 2736 
Q 959 2375 959 1747 
Q 959 1119 1226 758 
Q 1494 397 1959 397 
Q 2419 397 2687 759 
Q 2956 1122 2956 1747 
Q 2956 2369 2687 2733 
Q 2419 3097 1959 3097 
z
M 1959 3584 
Q 2709 3584 3137 3096 
Q 3566 2609 3566 1747 
Q 3566 888 3137 398 
Q 2709 -91 1959 -91 
Q 1206 -91 779 398 
Q 353 888 353 1747 
Q 353 2609 779 3096 
Q 1206 3584 1959 3584 
z
" transform="scale(0.015625)"/>
      <path id="DejaVuSans-53" d="M 3425 4513 
L 3425 3897 
Q 3066 4069 2747 4153 
Q 2428 4238 2131 4238 
Q 1616 4238 1336 4038 
Q 1056 3838 1056 3469 
Q 1056 3159 1242 3001 
Q 1428 2844 1947 2747 
L 2328 2669 
Q 3034 2534 3370 2195 
Q 3706 1856 3706 1288 
Q 3706 609 3251 259 
Q 2797 -91 1919 -91 
Q 1588 -91 1214 -16 
Q 841 59 441 206 
L 441 856 
Q 825 641 1194 531 
Q 1563 422 1919 422 
Q 2459 422 2753 634 
Q 3047 847 3047 1241 
Q 3047 1584 2836 1778 
Q 2625 1972 2144 2069 
L 1759 2144 
Q 1053 2284 737 2584 
Q 422 2884 422 3419 
Q 422 4038 858 4394 
Q 1294 4750 2059 4750 
Q 2388 4750 2728 4690 
Q 3069 4631 3425 4513 
z
" transform="scale(0.015625)"/>
     </defs>
     <use xlink:href="#DejaVuSans-43"/>
     <use xlink:href="#DejaVuSans-41" x="69.824219"/>
     <use xlink:href="#DejaVuSans-31" x="138.232422"/>
     <use xlink:href="#DejaVuSans-2d" x="201.855469"/>
     <use xlink:href="#DejaVuSans-50" x="237.939453"/>
     <use xlink:href="#DejaVuSans-72" x="296.492188"/>
     <use xlink:href="#DejaVuSans-6f" x="335.355469"/>
     <use xlink:href="#DejaVuSans-53" x="396.537109"/>
    </g>
   </g>
   <g id="text_2">
    <!-- Microglia -->
    <g transform="translate(173.838569 438.424812) rotate(-358.75) scale(0.06 -0.06)">
     <defs>
      <path id="DejaVuSans-4d" d="M 628 4666 
L 1569 4666 
L 2759 1491 
L 3956 4666 
L 4897 4666 
L 4897 0 
L 4281 0 
L 4281 4097 
L 3078 897 
L 2444 897 
L 1241 4097 
L 1241 0 
L 628 0 
L 628 4666 
z
" transform="scale(0.015625)"/>
      <path id="DejaVuSans-69" d="M 603 3500 
L 1178 3500 
L 1178 0 
L 603 0 
L 603 3500 
z
M 603 4863 
L 1178 4863 
L 1178 4134 
L 603 4134 
L 603 4863 
z
" transform="scale(0.015625)"/>
      <path id="DejaVuSans-63" d="M 3122 3366 
L 3122 2828 
Q 2878 2963 2633 3030 
Q 2388 3097 2138 3097 
Q 1578 3097 1268 2742 
Q 959 2388 959 1747 
Q 959 1106 1268 751 
Q 1578 397 2138 397 
Q 2388 397 2633 464 
Q 2878 531 3122 666 
L 3122 134 
Q 2881 22 2623 -34 
Q 2366 -91 2075 -91 
Q 1284 -91 818 406 
Q 353 903 353 1747 
Q 353 2603 823 3093 
Q 1294 3584 2113 3584 
Q 2378 3584 2631 3529 
Q 2884 3475 3122 3366 
z
" transform="scale(0.015625)"/>
      <path id="DejaVuSans-67" d="M 2906 1791 
Q 2906 2416 2648 2759 
Q 2391 3103 1925 3103 
Q 1463 3103 1205 2759 
Q 947 2416 947 1791 
Q 947 1169 1205 825 
Q 1463 481 1925 481 
Q 2391 481 2648 825 
Q 2906 1169 2906 1791 
z
M 3481 434 
Q 3481 -459 3084 -895 
Q 2688 -1331 1869 -1331 
Q 1566 -1331 1297 -1286 
Q 1028 -1241 775 -1147 
L 775 -588 
Q 1028 -725 1275 -790 
Q 1522 -856 1778 -856 
Q 2344 -856 2625 -561 
Q 2906 -266 2906 331 
L 2906 616 
Q 2728 306 2450 153 
Q 2172 0 1784 0 
Q 1141 0 747 490 
Q 353 981 353 1791 
Q 353 2603 747 3093 
Q 1141 3584 1784 3584 
Q 2172 3584 2450 3431 
Q 2728 3278 2906 2969 
L 2906 3500 
L 3481 3500 
L 3481 434 
z
" transform="scale(0.015625)"/>
      <path id="DejaVuSans-6c" d="M 603 4863 
L 1178 4863 
L 1178 0 
L 603 0 
L 603 4863 
z
" transform="scale(0.015625)"/>
      <path id="DejaVuSans-61" d="M 2194 1759 
Q 1497 1759 1228 1600 
Q 959 1441 959 1056 
Q 959 750 1161 570 
Q 1363 391 1709 391 
Q 2188 391 2477 730 
Q 2766 1069 2766 1631 
L 2766 1759 
L 2194 1759 
z
M 3341 1997 
L 3341 0 
L 2766 0 
L 2766 531 
Q 2569 213 2275 61 
Q 1981 -91 1556 -91 
Q 1019 -91 701 211 
Q 384 513 384 1019 
Q 384 1609 779 1909 
Q 1175 2209 1959 2209 
L 2766 2209 
L 2766 2266 
Q 2766 2663 2505 2880 
Q 2244 3097 1772 3097 
Q 1472 3097 1187 3025 
Q 903 2953 641 2809 
L 641 3341 
Q 956 3463 1253 3523 
Q 1550 3584 1831 3584 
Q 2591 3584 2966 3190 
Q 3341 2797 3341 1997 
z
" transform="scale(0.015625)"/>
     </defs>
     <use xlink:href="#DejaVuSans-4d"/>
     <use xlink:href="#DejaVuSans-69" x="86.279297"/>
     <use xlink:href="#DejaVuSans-63" x="114.0625"/>
     <use xlink:href="#DejaVuSans-72" x="169.042969"/>
     <use xlink:href="#DejaVuSans-6f" x="207.90625"/>
     <use xlink:href="#DejaVuSans-67" x="269.087891"/>
     <use xlink:href="#DejaVuSans-6c" x="332.564453"/>
     <use xlink:href="#DejaVuSans-69" x="360.347656"/>
     <use xlink:href="#DejaVuSans-61" x="388.130859"/>
    </g>
   </g>
   <g id="text_3">
    <!-- 1 LR pairs · 1 interactions -->
    <g style="fill: #555555" transform="translate(149.591602 460.973674) scale(0.065 -0.065)">
     <defs>
      <path id="DejaVuSans-20" transform="scale(0.015625)"/>
      <path id="DejaVuSans-4c" d="M 628 4666 
L 1259 4666 
L 1259 531 
L 3531 531 
L 3531 0 
L 628 0 
L 628 4666 
z
" transform="scale(0.015625)"/>
      <path id="DejaVuSans-52" d="M 2841 2188 
Q 3044 2119 3236 1894 
Q 3428 1669 3622 1275 
L 4263 0 
L 3584 0 
L 2988 1197 
Q 2756 1666 2539 1819 
Q 2322 1972 1947 1972 
L 1259 1972 
L 1259 0 
L 628 0 
L 628 4666 
L 2053 4666 
Q 2853 4666 3247 4331 
Q 3641 3997 3641 3322 
Q 3641 2881 3436 2590 
Q 3231 2300 2841 2188 
z
M 1259 4147 
L 1259 2491 
L 2053 2491 
Q 2509 2491 2742 2702 
Q 2975 2913 2975 3322 
Q 2975 3731 2742 3939 
Q 2509 4147 2053 4147 
L 1259 4147 
z
" transform="scale(0.015625)"/>
      <path id="DejaVuSans-70" d="M 1159 525 
L 1159 -1331 
L 581 -1331 
L 581 3500 
L 1159 3500 
L 1159 2969 
Q 1341 3281 1617 3432 
Q 1894 3584 2278 3584 
Q 2916 3584 3314 3078 
Q 3713 2572 3713 1747 
Q 3713 922 3314 415 
Q 2916 -91 2278 -91 
Q 1894 -91 1617 61 
Q 1341 213 1159 525 
z
M 3116 1747 
Q 3116 2381 2855 2742 
Q 2594 3103 2138 3103 
Q 1681 3103 1420 2742 
Q 1159 2381 1159 1747 
Q 1159 1113 1420 752 
Q 1681 391 2138 391 
Q 2594 391 2855 752 
Q 3116 1113 3116 1747 
z
" transform="scale(0.015625)"/>
      <path id="DejaVuSans-73" d="M 2834 3397 
L 2834 2853 
Q 2591 2978 2328 3040 
Q 2066 3103 1784 3103 
Q 1356 3103 1142 2972 
Q 928 2841 928 2578 
Q 928 2378 1081 2264 
Q 1234 2150 1697 2047 
L 1894 2003 
Q 2506 1872 2764 1633 
Q 3022 1394 3022 966 
Q 3022 478 2636 193 
Q 2250 -91 1575 -91 
Q 1294 -91 989 -36 
Q 684 19 347 128 
L 347 722 
Q 666 556 975 473 
Q 1284 391 1588 391 
Q 1994 391 2212 530 
Q 2431 669 2431 922 
Q 2431 1156 2273 1281 
Q 2116 1406 1581 1522 
L 1381 1569 
Q 847 1681 609 1914 
Q 372 2147 372 2553 
Q 372 3047 722 3315 
Q 1072 3584 1716 3584 
Q 2034 3584 2315 3537 
Q 2597 3491 2834 3397 
z
" transform="scale(0.015625)"/>
      <path id="DejaVuSans-b7" d="M 684 2619 
L 1344 2619 
L 1344 1825 
L 684 1825 
L 684 2619 
z
" transform="scale(0.015625)"/>
      <path id="DejaVuSans-6e" d="M 3513 2113 
L 3513 0 
L 2938 0 
L 2938 2094 
Q 2938 2591 2744 2837 
Q 2550 3084 2163 3084 
Q 1697 3084 1428 2787 
Q 1159 2491 1159 1978 
L 1159 0 
L 581 0 
L 581 3500 
L 1159 3500 
L 1159 2956 
Q 1366 3272 1645 3428 
Q 1925 3584 2291 3584 
Q 2894 3584 3203 3211 
Q 3513 2838 3513 2113 
z
" transform="scale(0.015625)"/>
      <path id="DejaVuSans-74" d="M 1172 4494 
L 1172 3500 
L 2356 3500 
L 2356 3053 
L 1172 3053 
L 1172 1153 
Q 1172 725 1289 603 
Q 1406 481 1766 481 
L 2356 481 
L 2356 0 
L 1766 0 
Q 1100 0 847 248 
Q 594 497 594 1153 
L 594 3053 
L 172 3053 
L 172 3500 
L 594 3500 
L 594 4494 
L 1172 4494 
z
" transform="scale(0.015625)"/>
      <path id="DejaVuSans-65" d="M 3597 1894 
L 3597 1613 
L 953 1613 
Q 991 1019 1311 708 
Q 1631 397 2203 397 
Q 2534 397 2845 478 
Q 3156 559 3463 722 
L 3463 178 
Q 3153 47 2828 -22 
Q 2503 -91 2169 -91 
Q 1331 -91 842 396 
Q 353 884 353 1716 
Q 353 2575 817 3079 
Q 1281 3584 2069 3584 
Q 2775 3584 3186 3129 
Q 3597 2675 3597 1894 
z
M 3022 2063 
Q 3016 2534 2758 2815 
Q 2500 3097 2075 3097 
Q 1594 3097 1305 2825 
Q 1016 2553 972 2059 
L 3022 2063 
z
" transform="scale(0.015625)"/>
     </defs>
     <use xlink:href="#DejaVuSans-31"/>
     <use xlink:href="#DejaVuSans-20" x="63.623047"/>
     <use xlink:href="#DejaVuSans-4c" x="95.410156"/>
     <use xlink:href="#DejaVuSans-52" x="151.123047"/>
     <use xlink:href="#DejaVuSans-20" x="220.605469"/>
     <use xlink:href="#DejaVuSans-70" x="252.392578"/>
     <use xlink:href="#DejaVuSans-61" x="315.869141"/>
     <use xlink:href="#DejaVuSans-69" x="377.148438"/>
     <use xlink:href="#DejaVuSans-72" x="404.931641"/>
     <use xlink:href="#DejaVuSans-73" x="446.044922"/>
     <use xlink:href="#DejaVuSans-20" x="498.144531"/>
     <use xlink:href="#DejaVuSans-b7" x="529.931641"/>
     <use xlink:href="#DejaVuSans-20" x="561.71875"/>
     <use xlink:href="#DejaVuSans-31" x="593.505859"/>
     <use xlink:href="#DejaVuSans-20" x="657.128906"/>
     <use xlink:href="#DejaVuSans-69" x="688.916016"/>
     <use xlink:href="#DejaVuSans-6e" x="716.699219"/>
     <use xlink:href="#DejaVuSans-74" x="780.078125"/>
     <use xlink:href="#DejaVuSans-65" x="819.287109"/>
     <use xlink:href="#DejaVuSans-72" x="880.810547"/>
     <use xlink:href="#DejaVuSans-61" x="921.923828"/>
     <use xlink:href="#DejaVuSans-63" x="983.203125"/>
     <use xlink:href="#DejaVuSans-74" x="1038.183594"/>
     <use xlink:href="#DejaVuSans-69" x="1077.392578"/>
     <use xlink:href="#DejaVuSans-6f" x="1105.175781"/>
     <use xlink:href="#DejaVuSans-6e" x="1166.357422"/>
     <use xlink:href="#DejaVuSans-73" x="1229.736328"/>
    </g>
   </g>
   <g id="text_4">
    <!-- Axon guidance -->
    <g transform="translate(149.7 66.468674) scale(0.1 -0.1)">
     <defs>
      <path id="DejaVuSans-Bold-41" d="M 3419 850 
L 1538 850 
L 1241 0 
L 31 0 
L 1759 4666 
L 3194 4666 
L 4922 0 
L 3713 0 
L 3419 850 
z
M 1838 1716 
L 3116 1716 
L 2478 3572 
L 1838 1716 
z
" transform="scale(0.015625)"/>
      <path id="DejaVuSans-Bold-78" d="M 1422 1791 
L 159 3500 
L 1344 3500 
L 2059 2463 
L 2784 3500 
L 3969 3500 
L 2706 1797 
L 4031 0 
L 2847 0 
L 2059 1106 
L 1281 0 
L 97 0 
L 1422 1791 
z
" transform="scale(0.015625)"/>
      <path id="DejaVuSans-Bold-6f" d="M 2203 2784 
Q 1831 2784 1636 2517 
Q 1441 2250 1441 1747 
Q 1441 1244 1636 976 
Q 1831 709 2203 709 
Q 2569 709 2762 976 
Q 2956 1244 2956 1747 
Q 2956 2250 2762 2517 
Q 2569 2784 2203 2784 
z
M 2203 3584 
Q 3106 3584 3614 3096 
Q 4122 2609 4122 1747 
Q 4122 884 3614 396 
Q 3106 -91 2203 -91 
Q 1297 -91 786 396 
Q 275 884 275 1747 
Q 275 2609 786 3096 
Q 1297 3584 2203 3584 
z
" transform="scale(0.015625)"/>
      <path id="DejaVuSans-Bold-6e" d="M 4056 2131 
L 4056 0 
L 2931 0 
L 2931 347 
L 2931 1631 
Q 2931 2084 2911 2256 
Q 2891 2428 2841 2509 
Q 2775 2619 2662 2680 
Q 2550 2741 2406 2741 
Q 2056 2741 1856 2470 
Q 1656 2200 1656 1722 
L 1656 0 
L 538 0 
L 538 3500 
L 1656 3500 
L 1656 2988 
Q 1909 3294 2193 3439 
Q 2478 3584 2822 3584 
Q 3428 3584 3742 3212 
Q 4056 2841 4056 2131 
z
" transform="scale(0.015625)"/>
      <path id="DejaVuSans-Bold-20" transform="scale(0.015625)"/>
      <path id="DejaVuSans-Bold-67" d="M 2919 594 
Q 2688 288 2409 144 
Q 2131 0 1766 0 
Q 1125 0 706 504 
Q 288 1009 288 1791 
Q 288 2575 706 3076 
Q 1125 3578 1766 3578 
Q 2131 3578 2409 3434 
Q 2688 3291 2919 2981 
L 2919 3500 
L 4044 3500 
L 4044 353 
Q 4044 -491 3511 -936 
Q 2978 -1381 1966 -1381 
Q 1638 -1381 1331 -1331 
Q 1025 -1281 716 -1178 
L 716 -306 
Q 1009 -475 1290 -558 
Q 1572 -641 1856 -641 
Q 2406 -641 2662 -400 
Q 2919 -159 2919 353 
L 2919 594 
z
M 2181 2772 
Q 1834 2772 1640 2515 
Q 1447 2259 1447 1791 
Q 1447 1309 1634 1061 
Q 1822 813 2181 813 
Q 2531 813 2725 1069 
Q 2919 1325 2919 1791 
Q 2919 2259 2725 2515 
Q 2531 2772 2181 2772 
z
" transform="scale(0.015625)"/>
      <path id="DejaVuSans-Bold-75" d="M 500 1363 
L 500 3500 
L 1625 3500 
L 1625 3150 
Q 1625 2866 1622 2436 
Q 1619 2006 1619 1863 
Q 1619 1441 1641 1255 
Q 1663 1069 1716 984 
Q 1784 875 1895 815 
Q 2006 756 2150 756 
Q 2500 756 2700 1025 
Q 2900 1294 2900 1772 
L 2900 3500 
L 4019 3500 
L 4019 0 
L 2900 0 
L 2900 506 
Q 2647 200 2364 54 
Q 2081 -91 1741 -91 
Q 1134 -91 817 281 
Q 500 653 500 1363 
z
" transform="scale(0.015625)"/>
      <path id="DejaVuSans-Bold-69" d="M 538 3500 
L 1656 3500 
L 1656 0 
L 538 0 
L 538 3500 
z
M 538 4863 
L 1656 4863 
L 1656 3950 
L 538 3950 
L 538 4863 
z
" transform="scale(0.015625)"/>
      <path id="DejaVuSans-Bold-64" d="M 2919 2988 
L 2919 4863 
L 4044 4863 
L 4044 0 
L 2919 0 
L 2919 506 
Q 2688 197 2409 53 
Q 2131 -91 1766 -91 
Q 1119 -91 703 423 
Q 288 938 288 1747 
Q 288 2556 703 3070 
Q 1119 3584 1766 3584 
Q 2128 3584 2408 3439 
Q 2688 3294 2919 2988 
z
M 2181 722 
Q 2541 722 2730 984 
Q 2919 1247 2919 1747 
Q 2919 2247 2730 2509 
Q 2541 2772 2181 2772 
Q 1825 2772 1636 2509 
Q 1447 2247 1447 1747 
Q 1447 1247 1636 984 
Q 1825 722 2181 722 
z
" transform="scale(0.015625)"/>
      <path id="DejaVuSans-Bold-61" d="M 2106 1575 
Q 1756 1575 1579 1456 
Q 1403 1338 1403 1106 
Q 1403 894 1545 773 
Q 1688 653 1941 653 
Q 2256 653 2472 879 
Q 2688 1106 2688 1447 
L 2688 1575 
L 2106 1575 
z
M 3816 1997 
L 3816 0 
L 2688 0 
L 2688 519 
Q 2463 200 2181 54 
Q 1900 -91 1497 -91 
Q 953 -91 614 226 
Q 275 544 275 1050 
Q 275 1666 698 1953 
Q 1122 2241 2028 2241 
L 2688 2241 
L 2688 2328 
Q 2688 2594 2478 2717 
Q 2269 2841 1825 2841 
Q 1466 2841 1156 2769 
Q 847 2697 581 2553 
L 581 3406 
Q 941 3494 1303 3539 
Q 1666 3584 2028 3584 
Q 2975 3584 3395 3211 
Q 3816 2838 3816 1997 
z
" transform="scale(0.015625)"/>
      <path id="DejaVuSans-Bold-63" d="M 3366 3391 
L 3366 2478 
Q 3138 2634 2908 2709 
Q 2678 2784 2431 2784 
Q 1963 2784 1702 2511 
Q 1441 2238 1441 1747 
Q 1441 1256 1702 982 
Q 1963 709 2431 709 
Q 2694 709 2930 787 
Q 3166 866 3366 1019 
L 3366 103 
Q 3103 6 2833 -42 
Q 2563 -91 2291 -91 
Q 1344 -91 809 395 
Q 275 881 275 1747 
Q 275 2613 809 3098 
Q 1344 3584 2291 3584 
Q 2566 3584 2833 3536 
Q 3100 3488 3366 3391 
z
" transform="scale(0.015625)"/>
      <path id="DejaVuSans-Bold-65" d="M 4031 1759 
L 4031 1441 
L 1416 1441 
Q 1456 1047 1700 850 
Q 1944 653 2381 653 
Q 2734 653 3104 758 
Q 3475 863 3866 1075 
L 3866 213 
Q 3469 63 3072 -14 
Q 2675 -91 2278 -91 
Q 1328 -91 801 392 
Q 275 875 275 1747 
Q 275 2603 792 3093 
Q 1309 3584 2216 3584 
Q 3041 3584 3536 3087 
Q 4031 2591 4031 1759 
z
M 2881 2131 
Q 2881 2450 2695 2645 
Q 2509 2841 2209 2841 
Q 1884 2841 1681 2658 
Q 1478 2475 1428 2131 
L 2881 2131 
z
" transform="scale(0.015625)"/>
     </defs>
     <use xlink:href="#DejaVuSans-Bold-41"/>
     <use xlink:href="#DejaVuSans-Bold-78" x="77.392578"/>
     <use xlink:href="#DejaVuSans-Bold-6f" x="141.894531"/>
     <use xlink:href="#DejaVuSans-Bold-6e" x="210.595703"/>
     <use xlink:href="#DejaVuSans-Bold-20" x="281.787109"/>
     <use xlink:href="#DejaVuSans-Bold-67" x="316.601562"/>
     <use xlink:href="#DejaVuSans-Bold-75" x="388.183594"/>
     <use xlink:href="#DejaVuSans-Bold-69" x="459.375"/>
     <use xlink:href="#DejaVuSans-Bold-64" x="493.652344"/>
     <use xlink:href="#DejaVuSans-Bold-61" x="565.234375"/>
     <use xlink:href="#DejaVuSans-Bold-6e" x="632.714844"/>
     <use xlink:href="#DejaVuSans-Bold-63" x="703.90625"/>
     <use xlink:href="#DejaVuSans-Bold-65" x="763.183594"/>
    </g>
   </g>
  </g>
  <g id="axes_2">
   <g id="text_5">
    <!-- No interactions -->
    <g style="fill: #aaaaaa" transform="translate(558.9225 256.247049) scale(0.08 -0.08)">
     <defs>
      <path id="DejaVuSans-4e" d="M 628 4666 
L 1478 4666 
L 3547 763 
L 3547 4666 
L 4159 4666 
L 4159 0 
L 3309 0 
L 1241 3903 
L 1241 0 
L 628 0 
L 628 4666 
z
" transform="scale(0.015625)"/>
     </defs>
     <use xlink:href="#DejaVuSans-4e"/>
     <use xlink:href="#DejaVuSans-6f" x="74.804688"/>
     <use xlink:href="#DejaVuSans-20" x="135.986328"/>
     <use xlink:href="#DejaVuSans-69" x="167.773438"/>
     <use xlink:href="#DejaVuSans-6e" x="195.556641"/>
     <use xlink:href="#DejaVuSans-74" x="258.935547"/>
     <use xlink:href="#DejaVuSans-65" x="298.144531"/>
     <use xlink:href="#DejaVuSans-72" x="359.667969"/>
     <use xlink:href="#DejaVuSans-61" x="400.78125"/>
     <use xlink:href="#DejaVuSans-63" x="462.060547"/>
     <use xlink:href="#DejaVuSans-74" x="517.041016"/>
     <use xlink:href="#DejaVuSans-69" x="556.25"/>
     <use xlink:href="#DejaVuSans-6f" x="584.033203"/>
     <use xlink:href="#DejaVuSans-6e" x="645.214844"/>
     <use xlink:href="#DejaVuSans-73" x="708.59375"/>
    </g>
    <!-- Upregulated in PPD -->
    <g style="fill: #aaaaaa" transform="translate(550.569375 265.205299) scale(0.08 -0.08)">
     <defs>
      <path id="DejaVuSans-55" d="M 556 4666 
L 1191 4666 
L 1191 1831 
Q 1191 1081 1462 751 
Q 1734 422 2344 422 
Q 2950 422 3222 751 
Q 3494 1081 3494 1831 
L 3494 4666 
L 4128 4666 
L 4128 1753 
Q 4128 841 3676 375 
Q 3225 -91 2344 -91 
Q 1459 -91 1007 375 
Q 556 841 556 1753 
L 556 4666 
z
" transform="scale(0.015625)"/>
      <path id="DejaVuSans-75" d="M 544 1381 
L 544 3500 
L 1119 3500 
L 1119 1403 
Q 1119 906 1312 657 
Q 1506 409 1894 409 
Q 2359 409 2629 706 
Q 2900 1003 2900 1516 
L 2900 3500 
L 3475 3500 
L 3475 0 
L 2900 0 
L 2900 538 
Q 2691 219 2414 64 
Q 2138 -91 1772 -91 
Q 1169 -91 856 284 
Q 544 659 544 1381 
z
M 1991 3584 
L 1991 3584 
z
" transform="scale(0.015625)"/>
      <path id="DejaVuSans-64" d="M 2906 2969 
L 2906 4863 
L 3481 4863 
L 3481 0 
L 2906 0 
L 2906 525 
Q 2725 213 2448 61 
Q 2172 -91 1784 -91 
Q 1150 -91 751 415 
Q 353 922 353 1747 
Q 353 2572 751 3078 
Q 1150 3584 1784 3584 
Q 2172 3584 2448 3432 
Q 2725 3281 2906 2969 
z
M 947 1747 
Q 947 1113 1208 752 
Q 1469 391 1925 391 
Q 2381 391 2643 752 
Q 2906 1113 2906 1747 
Q 2906 2381 2643 2742 
Q 2381 3103 1925 3103 
Q 1469 3103 1208 2742 
Q 947 2381 947 1747 
z
" transform="scale(0.015625)"/>
      <path id="DejaVuSans-44" d="M 1259 4147 
L 1259 519 
L 2022 519 
Q 2988 519 3436 956 
Q 3884 1394 3884 2338 
Q 3884 3275 3436 3711 
Q 2988 4147 2022 4147 
L 1259 4147 
z
M 628 4666 
L 1925 4666 
Q 3281 4666 3915 4102 
Q 4550 3538 4550 2338 
Q 4550 1131 3912 565 
Q 3275 0 1925 0 
L 628 0 
L 628 4666 
z
" transform="scale(0.015625)"/>
     </defs>
     <use xlink:href="#DejaVuSans-55"/>
     <use xlink:href="#DejaVuSans-70" x="73.193359"/>
     <use xlink:href="#DejaVuSans-72" x="136.669922"/>
     <use xlink:href="#DejaVuSans-65" x="175.533203"/>
     <use xlink:href="#DejaVuSans-67" x="237.056641"/>
     <use xlink:href="#DejaVuSans-75" x="300.533203"/>
     <use xlink:href="#DejaVuSans-6c" x="363.912109"/>
     <use xlink:href="#DejaVuSans-61" x="391.695312"/>
     <use xlink:href="#DejaVuSans-74" x="452.974609"/>
     <use xlink:href="#DejaVuSans-65" x="492.183594"/>
     <use xlink:href="#DejaVuSans-64" x="553.707031"/>
     <use xlink:href="#DejaVuSans-20" x="617.183594"/>
     <use xlink:href="#DejaVuSans-69" x="648.970703"/>
     <use xlink:href="#DejaVuSans-6e" x="676.753906"/>
     <use xlink:href="#DejaVuSans-20" x="740.132812"/>
     <use xlink:href="#DejaVuSans-50" x="771.919922"/>
     <use xlink:href="#DejaVuSans-50" x="832.222656"/>
     <use xlink:href="#DejaVuSans-44" x="892.525391"/>
    </g>
   </g>
   <g id="text_6">
    <!-- Cell adhesion / CAMs -->
    <g transform="translate(530.733594 58.32) scale(0.1 -0.1)">
     <defs>
      <path id="DejaVuSans-Bold-43" d="M 4288 256 
Q 3956 84 3597 -3 
Q 3238 -91 2847 -91 
Q 1681 -91 1000 561 
Q 319 1213 319 2328 
Q 319 3447 1000 4098 
Q 1681 4750 2847 4750 
Q 3238 4750 3597 4662 
Q 3956 4575 4288 4403 
L 4288 3438 
Q 3953 3666 3628 3772 
Q 3303 3878 2944 3878 
Q 2300 3878 1931 3465 
Q 1563 3053 1563 2328 
Q 1563 1606 1931 1193 
Q 2300 781 2944 781 
Q 3303 781 3628 887 
Q 3953 994 4288 1222 
L 4288 256 
z
" transform="scale(0.015625)"/>
      <path id="DejaVuSans-Bold-6c" d="M 538 4863 
L 1656 4863 
L 1656 0 
L 538 0 
L 538 4863 
z
" transform="scale(0.015625)"/>
      <path id="DejaVuSans-Bold-68" d="M 4056 2131 
L 4056 0 
L 2931 0 
L 2931 347 
L 2931 1625 
Q 2931 2084 2911 2256 
Q 2891 2428 2841 2509 
Q 2775 2619 2662 2680 
Q 2550 2741 2406 2741 
Q 2056 2741 1856 2470 
Q 1656 2200 1656 1722 
L 1656 0 
L 538 0 
L 538 4863 
L 1656 4863 
L 1656 2988 
Q 1909 3294 2193 3439 
Q 2478 3584 2822 3584 
Q 3428 3584 3742 3212 
Q 4056 2841 4056 2131 
z
" transform="scale(0.015625)"/>
      <path id="DejaVuSans-Bold-73" d="M 3272 3391 
L 3272 2541 
Q 2913 2691 2578 2766 
Q 2244 2841 1947 2841 
Q 1628 2841 1473 2761 
Q 1319 2681 1319 2516 
Q 1319 2381 1436 2309 
Q 1553 2238 1856 2203 
L 2053 2175 
Q 2913 2066 3209 1816 
Q 3506 1566 3506 1031 
Q 3506 472 3093 190 
Q 2681 -91 1863 -91 
Q 1516 -91 1145 -36 
Q 775 19 384 128 
L 384 978 
Q 719 816 1070 734 
Q 1422 653 1784 653 
Q 2113 653 2278 743 
Q 2444 834 2444 1013 
Q 2444 1163 2330 1236 
Q 2216 1309 1875 1350 
L 1678 1375 
Q 931 1469 631 1722 
Q 331 1975 331 2491 
Q 331 3047 712 3315 
Q 1094 3584 1881 3584 
Q 2191 3584 2531 3537 
Q 2872 3491 3272 3391 
z
" transform="scale(0.015625)"/>
      <path id="DejaVuSans-Bold-2f" d="M 1644 4666 
L 2338 4666 
L 691 -594 
L 0 -594 
L 1644 4666 
z
" transform="scale(0.015625)"/>
      <path id="DejaVuSans-Bold-4d" d="M 588 4666 
L 2119 4666 
L 3181 2169 
L 4250 4666 
L 5778 4666 
L 5778 0 
L 4641 0 
L 4641 3413 
L 3566 897 
L 2803 897 
L 1728 3413 
L 1728 0 
L 588 0 
L 588 4666 
z
" transform="scale(0.015625)"/>
     </defs>
     <use xlink:href="#DejaVuSans-Bold-43"/>
     <use xlink:href="#DejaVuSans-Bold-65" x="73.388672"/>
     <use xlink:href="#DejaVuSans-Bold-6c" x="141.210938"/>
     <use xlink:href="#DejaVuSans-Bold-6c" x="175.488281"/>
     <use xlink:href="#DejaVuSans-Bold-20" x="209.765625"/>
     <use xlink:href="#DejaVuSans-Bold-61" x="244.580078"/>
     <use xlink:href="#DejaVuSans-Bold-64" x="312.060547"/>
     <use xlink:href="#DejaVuSans-Bold-68" x="383.642578"/>
     <use xlink:href="#DejaVuSans-Bold-65" x="454.833984"/>
     <use xlink:href="#DejaVuSans-Bold-73" x="522.65625"/>
     <use xlink:href="#DejaVuSans-Bold-69" x="582.177734"/>
     <use xlink:href="#DejaVuSans-Bold-6f" x="616.455078"/>
     <use xlink:href="#DejaVuSans-Bold-6e" x="685.15625"/>
     <use xlink:href="#DejaVuSans-Bold-20" x="756.347656"/>
     <use xlink:href="#DejaVuSans-Bold-2f" x="791.162109"/>
     <use xlink:href="#DejaVuSans-Bold-20" x="827.685547"/>
     <use xlink:href="#DejaVuSans-Bold-43" x="862.5"/>
     <use xlink:href="#DejaVuSans-Bold-41" x="935.888672"/>
     <use xlink:href="#DejaVuSans-Bold-4d" x="1013.28125"/>
     <use xlink:href="#DejaVuSans-Bold-73" x="1112.792969"/>
    </g>
   </g>
  </g>
  <g id="axes_3">
   <g id="patch_5">
    <path d="M 1154.768182 258.518674 
C 1154.768182 214.775249 1137.637369 172.771281 1107.045338 141.504448 
L 1107.045338 141.504448 
C 1076.453307 110.237615 1034.833042 92.194567 991.100027 91.240309 
L 991.100027 91.240309 
C 947.367012 90.286051 904.999333 106.496476 873.072579 136.399144 
L 873.072579 136.399144 
C 841.145825 166.301813 822.199129 207.518567 820.291068 251.220357 
L 830.320604 251.658256 
C 832.114182 210.578573 849.924075 171.834824 879.935224 143.726316 
L 879.935224 143.726316 
C 909.946373 115.617808 949.771991 100.380009 990.881025 101.277011 
L 990.881025 101.277011 
C 1031.990059 102.174013 1071.113109 119.134478 1099.869618 148.525302 
L 1099.869618 148.525302 
C 1128.626127 177.916125 1144.729091 217.399855 1144.729091 258.518674 
z
" clip-path="url(#pe164b62797)" style="fill: #cc2400; opacity: 0.72; stroke: #cc2400; stroke-width: 0.3; stroke-linejoin: miter"/>
   </g>
   <g id="patch_6">
    <path d="M 1139.709545 258.518674 
C 1139.709545 218.712157 1124.120506 180.488546 1096.281758 152.035728 
L 1096.281758 152.035728 
C 1068.44301 123.58291 1030.568568 107.163737 990.771524 106.295362 
L 990.771524 106.295362 
C 950.974481 105.426987 912.419893 120.178474 883.366547 147.389902 
L 883.366547 147.389902 
C 854.313201 174.60133 837.071708 212.108576 835.335372 251.877206 
C 869.94145 253.38814 869.829501 258.518674 840.21 258.518674 
L 984.128476 410.741986 
L 1134.54986 264.941192 
C 1104.95855 263.649208 1105.070499 258.518674 1139.709545 258.518674 
" clip-path="url(#pe164b62797)" style="fill: #cc2400; opacity: 0.72; stroke: #cc2400; stroke-width: 0.3; stroke-linejoin: miter"/>
   </g>
   <g id="patch_7">
    <path d="M 820.131818 258.518674 
C 820.131818 302.262098 837.262631 344.266067 867.854662 375.5329 
L 867.854662 375.5329 
C 898.446693 406.799733 940.066958 424.842781 983.799973 425.797038 
L 983.799973 425.797038 
C 1027.532988 426.751296 1069.900667 410.540872 1101.827421 380.638203 
L 1101.827421 380.638203 
C 1133.754175 350.735535 1152.700871 309.518781 1154.608932 265.81699 
L 1144.579396 265.379091 
C 1142.785818 306.458775 1124.975925 345.202523 1094.964776 373.311032 
L 1094.964776 373.311032 
C 1064.953627 401.41954 1025.128009 416.657339 984.018975 415.760337 
L 984.018975 415.760337 
C 942.909941 414.863334 903.786891 397.902869 875.030382 368.512046 
L 875.030382 368.512046 
C 846.273873 339.121223 830.170909 299.637493 830.170909 258.518674 
z
" clip-path="url(#pe164b62797)" style="fill: #cc1f4e; opacity: 0.72; stroke: #cc1f4e; stroke-width: 0.3; stroke-linejoin: miter"/>
   </g>
   <g id="text_7">
    <!-- DG -->
    <g transform="translate(986.676321 81.527774) rotate(-358.75) scale(0.06 -0.06)">
     <defs>
      <path id="DejaVuSans-47" d="M 3809 666 
L 3809 1919 
L 2778 1919 
L 2778 2438 
L 4434 2438 
L 4434 434 
Q 4069 175 3628 42 
Q 3188 -91 2688 -91 
Q 1594 -91 976 548 
Q 359 1188 359 2328 
Q 359 3472 976 4111 
Q 1594 4750 2688 4750 
Q 3144 4750 3555 4637 
Q 3966 4525 4313 4306 
L 4313 3634 
Q 3963 3931 3569 4081 
Q 3175 4231 2741 4231 
Q 1884 4231 1454 3753 
Q 1025 3275 1025 2328 
Q 1025 1384 1454 906 
Q 1884 428 2741 428 
Q 3075 428 3337 486 
Q 3600 544 3809 666 
z
" transform="scale(0.015625)"/>
     </defs>
     <use xlink:href="#DejaVuSans-44"/>
     <use xlink:href="#DejaVuSans-47" x="77.001953"/>
    </g>
   </g>
   <g id="text_8">
    <!-- Microglia -->
    <g transform="translate(970.038569 438.424812) rotate(-358.75) scale(0.06 -0.06)">
     <use xlink:href="#DejaVuSans-4d"/>
     <use xlink:href="#DejaVuSans-69" x="86.279297"/>
     <use xlink:href="#DejaVuSans-63" x="114.0625"/>
     <use xlink:href="#DejaVuSans-72" x="169.042969"/>
     <use xlink:href="#DejaVuSans-6f" x="207.90625"/>
     <use xlink:href="#DejaVuSans-67" x="269.087891"/>
     <use xlink:href="#DejaVuSans-6c" x="332.564453"/>
     <use xlink:href="#DejaVuSans-69" x="360.347656"/>
     <use xlink:href="#DejaVuSans-61" x="388.130859"/>
    </g>
   </g>
   <g id="text_9">
    <!-- 1 LR pairs · 1 interactions -->
    <g style="fill: #555555" transform="translate(945.791602 460.973674) scale(0.065 -0.065)">
     <use xlink:href="#DejaVuSans-31"/>
     <use xlink:href="#DejaVuSans-20" x="63.623047"/>
     <use xlink:href="#DejaVuSans-4c" x="95.410156"/>
     <use xlink:href="#DejaVuSans-52" x="151.123047"/>
     <use xlink:href="#DejaVuSans-20" x="220.605469"/>
     <use xlink:href="#DejaVuSans-70" x="252.392578"/>
     <use xlink:href="#DejaVuSans-61" x="315.869141"/>
     <use xlink:href="#DejaVuSans-69" x="377.148438"/>
     <use xlink:href="#DejaVuSans-72" x="404.931641"/>
     <use xlink:href="#DejaVuSans-73" x="446.044922"/>
     <use xlink:href="#DejaVuSans-20" x="498.144531"/>
     <use xlink:href="#DejaVuSans-b7" x="529.931641"/>
     <use xlink:href="#DejaVuSans-20" x="561.71875"/>
     <use xlink:href="#DejaVuSans-31" x="593.505859"/>
     <use xlink:href="#DejaVuSans-20" x="657.128906"/>
     <use xlink:href="#DejaVuSans-69" x="688.916016"/>
     <use xlink:href="#DejaVuSans-6e" x="716.699219"/>
     <use xlink:href="#DejaVuSans-74" x="780.078125"/>
     <use xlink:href="#DejaVuSans-65" x="819.287109"/>
     <use xlink:href="#DejaVuSans-72" x="880.810547"/>
     <use xlink:href="#DejaVuSans-61" x="921.923828"/>
     <use xlink:href="#DejaVuSans-63" x="983.203125"/>
     <use xlink:href="#DejaVuSans-74" x="1038.183594"/>
     <use xlink:href="#DejaVuSans-69" x="1077.392578"/>
     <use xlink:href="#DejaVuSans-6f" x="1105.175781"/>
     <use xlink:href="#DejaVuSans-6e" x="1166.357422"/>
     <use xlink:href="#DejaVuSans-73" x="1229.736328"/>
    </g>
   </g>
   <g id="text_10">
    <!-- Neurotrophic / -->
    <g transform="translate(946.739844 55.270861) scale(0.1 -0.1)">
     <defs>
      <path id="DejaVuSans-Bold-4e" d="M 588 4666 
L 1931 4666 
L 3628 1466 
L 3628 4666 
L 4769 4666 
L 4769 0 
L 3425 0 
L 1728 3200 
L 1728 0 
L 588 0 
L 588 4666 
z
" transform="scale(0.015625)"/>
      <path id="DejaVuSans-Bold-72" d="M 3138 2547 
Q 2991 2616 2845 2648 
Q 2700 2681 2553 2681 
Q 2122 2681 1889 2404 
Q 1656 2128 1656 1613 
L 1656 0 
L 538 0 
L 538 3500 
L 1656 3500 
L 1656 2925 
Q 1872 3269 2151 3426 
Q 2431 3584 2822 3584 
Q 2878 3584 2943 3579 
Q 3009 3575 3134 3559 
L 3138 2547 
z
" transform="scale(0.015625)"/>
      <path id="DejaVuSans-Bold-74" d="M 1759 4494 
L 1759 3500 
L 2913 3500 
L 2913 2700 
L 1759 2700 
L 1759 1216 
Q 1759 972 1856 886 
Q 1953 800 2241 800 
L 2816 800 
L 2816 0 
L 1856 0 
Q 1194 0 917 276 
Q 641 553 641 1216 
L 641 2700 
L 84 2700 
L 84 3500 
L 641 3500 
L 641 4494 
L 1759 4494 
z
" transform="scale(0.015625)"/>
      <path id="DejaVuSans-Bold-70" d="M 1656 506 
L 1656 -1331 
L 538 -1331 
L 538 3500 
L 1656 3500 
L 1656 2988 
Q 1888 3294 2169 3439 
Q 2450 3584 2816 3584 
Q 3463 3584 3878 3070 
Q 4294 2556 4294 1747 
Q 4294 938 3878 423 
Q 3463 -91 2816 -91 
Q 2450 -91 2169 54 
Q 1888 200 1656 506 
z
M 2400 2772 
Q 2041 2772 1848 2508 
Q 1656 2244 1656 1747 
Q 1656 1250 1848 986 
Q 2041 722 2400 722 
Q 2759 722 2948 984 
Q 3138 1247 3138 1747 
Q 3138 2247 2948 2509 
Q 2759 2772 2400 2772 
z
" transform="scale(0.015625)"/>
     </defs>
     <use xlink:href="#DejaVuSans-Bold-4e"/>
     <use xlink:href="#DejaVuSans-Bold-65" x="83.691406"/>
     <use xlink:href="#DejaVuSans-Bold-75" x="151.513672"/>
     <use xlink:href="#DejaVuSans-Bold-72" x="222.705078"/>
     <use xlink:href="#DejaVuSans-Bold-6f" x="272.021484"/>
     <use xlink:href="#DejaVuSans-Bold-74" x="340.722656"/>
     <use xlink:href="#DejaVuSans-Bold-72" x="388.525391"/>
     <use xlink:href="#DejaVuSans-Bold-6f" x="437.841797"/>
     <use xlink:href="#DejaVuSans-Bold-70" x="506.542969"/>
     <use xlink:href="#DejaVuSans-Bold-68" x="578.125"/>
     <use xlink:href="#DejaVuSans-Bold-69" x="649.316406"/>
     <use xlink:href="#DejaVuSans-Bold-63" x="683.59375"/>
     <use xlink:href="#DejaVuSans-Bold-20" x="742.871094"/>
     <use xlink:href="#DejaVuSans-Bold-2f" x="777.685547"/>
    </g>
    <!-- growth factors -->
    <g transform="translate(945.88125 66.468674) scale(0.1 -0.1)">
     <defs>
      <path id="DejaVuSans-Bold-77" d="M 225 3500 
L 1313 3500 
L 1900 1088 
L 2491 3500 
L 3425 3500 
L 4013 1113 
L 4603 3500 
L 5691 3500 
L 4769 0 
L 3547 0 
L 2956 2406 
L 2369 0 
L 1147 0 
L 225 3500 
z
" transform="scale(0.015625)"/>
      <path id="DejaVuSans-Bold-66" d="M 2841 4863 
L 2841 4128 
L 2222 4128 
Q 1984 4128 1890 4042 
Q 1797 3956 1797 3744 
L 1797 3500 
L 2753 3500 
L 2753 2700 
L 1797 2700 
L 1797 0 
L 678 0 
L 678 2700 
L 122 2700 
L 122 3500 
L 678 3500 
L 678 3744 
Q 678 4316 997 4589 
Q 1316 4863 1984 4863 
L 2841 4863 
z
" transform="scale(0.015625)"/>
     </defs>
     <use xlink:href="#DejaVuSans-Bold-67"/>
     <use xlink:href="#DejaVuSans-Bold-72" x="71.582031"/>
     <use xlink:href="#DejaVuSans-Bold-6f" x="120.898438"/>
     <use xlink:href="#DejaVuSans-Bold-77" x="189.599609"/>
     <use xlink:href="#DejaVuSans-Bold-74" x="281.982422"/>
     <use xlink:href="#DejaVuSans-Bold-68" x="329.785156"/>
     <use xlink:href="#DejaVuSans-Bold-20" x="400.976562"/>
     <use xlink:href="#DejaVuSans-Bold-66" x="435.791016"/>
     <use xlink:href="#DejaVuSans-Bold-61" x="479.296875"/>
     <use xlink:href="#DejaVuSans-Bold-63" x="546.777344"/>
     <use xlink:href="#DejaVuSans-Bold-74" x="606.054688"/>
     <use xlink:href="#DejaVuSans-Bold-6f" x="653.857422"/>
     <use xlink:href="#DejaVuSans-Bold-72" x="722.558594"/>
     <use xlink:href="#DejaVuSans-Bold-73" x="771.875"/>
    </g>
   </g>
  </g>
  <g id="axes_4">
   <g id="patch_8">
    <path d="M 1552.868182 258.518674 
C 1552.868182 229.766909 1545.459154 201.500253 1531.355736 176.445162 
L 1531.355736 176.445162 
C 1517.252318 151.390071 1496.930424 130.392021 1472.350198 115.476374 
L 1472.350198 115.476374 
C 1447.769973 100.560727 1419.760869 92.230808 1391.024497 91.290076 
L 1391.024497 91.290076 
C 1362.288126 90.349345 1333.794189 96.829546 1308.291062 110.105634 
L 1312.926598 119.010416 
C 1336.899537 106.530894 1363.683839 100.439505 1390.696028 101.323792 
L 1390.696028 101.323792 
C 1417.708216 102.20808 1444.036775 110.038204 1467.142186 124.058912 
L 1467.142186 124.058912 
C 1490.247598 138.07962 1509.350179 157.817787 1522.607392 181.369573 
L 1522.607392 181.369573 
C 1535.864605 204.921359 1542.829091 231.492015 1542.829091 258.518674 
z
" clip-path="url(#p8ed9d40e7e)" style="fill: #ff7391; opacity: 0.72; stroke: #ff7391; stroke-width: 0.3; stroke-linejoin: miter"/>
   </g>
   <g id="patch_9">
    <path d="M 1537.809545 258.518674 
C 1537.809545 232.354568 1531.067331 206.631911 1518.23322 183.831778 
L 1518.23322 183.831778 
C 1505.399109 161.031645 1486.906186 141.92342 1464.53818 128.350181 
L 1464.53818 128.350181 
C 1442.170175 114.776942 1416.68189 107.196716 1390.531793 106.34065 
L 1390.531793 106.34065 
C 1364.381695 105.484584 1338.452212 111.381568 1315.244366 123.462808 
C 1360.943028 211.249121 1358.90458 304.669896 1311.93 386.032254 
L 1458.785131 392.008691 
L 1532.64986 264.941192 
C 1503.05855 263.649208 1503.170499 258.518674 1537.809545 258.518674 
" clip-path="url(#p8ed9d40e7e)" style="fill: #ff7391; opacity: 0.72; stroke: #ff7391; stroke-width: 0.3; stroke-linejoin: miter"/>
   </g>
   <g id="patch_10">
    <path d="M 1301.890909 113.616878 
C 1289.492302 120.775217 1278.06371 129.49527 1267.885226 139.563325 
L 1267.885226 139.563325 
C 1257.706743 149.63138 1248.862544 160.964173 1241.569386 173.283958 
L 1241.569386 173.283958 
C 1234.276228 185.603744 1228.594425 198.808635 1224.663228 212.575005 
L 1224.663228 212.575005 
C 1220.732031 226.341376 1218.583952 240.555376 1218.271635 254.868647 
L 1228.308337 255.087649 
C 1228.601915 241.633174 1230.62111 228.272014 1234.316435 215.331626 
L 1234.316435 215.331626 
C 1238.01176 202.391237 1243.352654 189.978639 1250.208223 178.398041 
L 1250.208223 178.398041 
C 1257.063792 166.817443 1265.377338 156.164618 1274.945113 146.700646 
L 1274.945113 146.700646 
C 1284.512888 137.236674 1295.255764 129.039824 1306.910455 122.310986 
z
" clip-path="url(#p8ed9d40e7e)" style="fill: #cc2400; opacity: 0.72; stroke: #cc2400; stroke-width: 0.3; stroke-linejoin: miter"/>
   </g>
   <g id="patch_11">
    <path d="M 1309.420227 126.658039 
C 1298.137495 133.172128 1287.737476 141.107376 1278.475056 150.269306 
L 1278.475056 150.269306 
C 1269.212636 159.431236 1261.164415 169.744078 1254.527641 180.955083 
L 1254.527641 180.955083 
C 1247.890867 192.166087 1242.720427 204.182538 1239.143038 216.709936 
L 1239.143038 216.709936 
C 1235.565649 229.237333 1233.610896 242.172073 1233.326688 255.197149 
C 1267.957492 255.952796 1267.957492 261.084551 1238.345039 261.730698 
L 1254.527641 336.082265 
L 1311.93 386.032254 
C 1358.90458 304.669896 1358.90458 212.367452 1309.420227 126.658039 
" clip-path="url(#p8ed9d40e7e)" style="fill: #cc2400; opacity: 0.72; stroke: #cc2400; stroke-width: 0.3; stroke-linejoin: miter"/>
   </g>
   <g id="patch_12">
    <path d="M 1218.271635 262.168701 
C 1219.219004 305.585987 1237.010233 346.934 1267.885226 377.474023 
L 1267.885226 377.474023 
C 1298.76022 408.014046 1340.299841 425.353189 1383.724878 425.826901 
L 1383.724878 425.826901 
C 1427.149915 426.300614 1469.057902 409.871779 1500.591775 380.012558 
L 1500.591775 380.012558 
C 1532.125648 350.153337 1550.814646 309.203277 1552.708932 265.81699 
L 1542.679396 265.379091 
C 1540.898767 306.162201 1523.331109 344.655257 1493.689269 372.722925 
L 1493.689269 372.722925 
C 1464.047428 400.790593 1424.65392 416.233697 1383.834385 415.788407 
L 1383.834385 415.788407 
C 1343.014851 415.343118 1303.967607 399.044324 1274.945113 370.336702 
L 1274.945113 370.336702 
C 1245.922619 341.62908 1229.198864 302.761948 1228.308337 261.949699 
z
" clip-path="url(#p8ed9d40e7e)" style="fill: #ad5ccc; opacity: 0.72; stroke: #ad5ccc; stroke-width: 0.3; stroke-linejoin: miter"/>
   </g>
   <g id="text_11">
    <!-- CA2-FC-IG -->
    <g transform="translate(1464.299867 99.346035) rotate(-328.75) scale(0.06 -0.06)">
     <defs>
      <path id="DejaVuSans-32" d="M 1228 531 
L 3431 531 
L 3431 0 
L 469 0 
L 469 531 
Q 828 903 1448 1529 
Q 2069 2156 2228 2338 
Q 2531 2678 2651 2914 
Q 2772 3150 2772 3378 
Q 2772 3750 2511 3984 
Q 2250 4219 1831 4219 
Q 1534 4219 1204 4116 
Q 875 4013 500 3803 
L 500 4441 
Q 881 4594 1212 4672 
Q 1544 4750 1819 4750 
Q 2544 4750 2975 4387 
Q 3406 4025 3406 3419 
Q 3406 3131 3298 2873 
Q 3191 2616 2906 2266 
Q 2828 2175 2409 1742 
Q 1991 1309 1228 531 
z
" transform="scale(0.015625)"/>
      <path id="DejaVuSans-46" d="M 628 4666 
L 3309 4666 
L 3309 4134 
L 1259 4134 
L 1259 2759 
L 3109 2759 
L 3109 2228 
L 1259 2228 
L 1259 0 
L 628 0 
L 628 4666 
z
" transform="scale(0.015625)"/>
      <path id="DejaVuSans-49" d="M 628 4666 
L 1259 4666 
L 1259 0 
L 628 0 
L 628 4666 
z
" transform="scale(0.015625)"/>
     </defs>
     <use xlink:href="#DejaVuSans-43"/>
     <use xlink:href="#DejaVuSans-41" x="69.824219"/>
     <use xlink:href="#DejaVuSans-32" x="138.232422"/>
     <use xlink:href="#DejaVuSans-2d" x="201.855469"/>
     <use xlink:href="#DejaVuSans-46" x="237.939453"/>
     <use xlink:href="#DejaVuSans-43" x="295.458984"/>
     <use xlink:href="#DejaVuSans-2d" x="365.283203"/>
     <use xlink:href="#DejaVuSans-49" x="401.367188"/>
     <use xlink:href="#DejaVuSans-47" x="430.859375"/>
    </g>
   </g>
   <g id="text_12">
    <!-- DG -->
    <g transform="translate(1230.935679 172.374672) rotate(-59.375) scale(0.06 -0.06)">
     <use xlink:href="#DejaVuSans-44"/>
     <use xlink:href="#DejaVuSans-47" x="77.001953"/>
    </g>
   </g>
   <g id="text_13">
    <!-- Astro-NT -->
    <g transform="translate(1370.576853 438.609213) rotate(-359.375) scale(0.06 -0.06)">
     <defs>
      <path id="DejaVuSans-54" d="M -19 4666 
L 3928 4666 
L 3928 4134 
L 2272 4134 
L 2272 0 
L 1638 0 
L 1638 4134 
L -19 4134 
L -19 4666 
z
" transform="scale(0.015625)"/>
     </defs>
     <use xlink:href="#DejaVuSans-41"/>
     <use xlink:href="#DejaVuSans-73" x="68.408203"/>
     <use xlink:href="#DejaVuSans-74" x="120.507812"/>
     <use xlink:href="#DejaVuSans-72" x="159.716797"/>
     <use xlink:href="#DejaVuSans-6f" x="198.580078"/>
     <use xlink:href="#DejaVuSans-2d" x="261.636719"/>
     <use xlink:href="#DejaVuSans-4e" x="297.720703"/>
     <use xlink:href="#DejaVuSans-54" x="372.525391"/>
    </g>
   </g>
   <g id="text_14">
    <!-- 3 LR pairs · 3 interactions -->
    <g style="fill: #555555" transform="translate(1343.891602 460.973674) scale(0.065 -0.065)">
     <defs>
      <path id="DejaVuSans-33" d="M 2597 2516 
Q 3050 2419 3304 2112 
Q 3559 1806 3559 1356 
Q 3559 666 3084 287 
Q 2609 -91 1734 -91 
Q 1441 -91 1130 -33 
Q 819 25 488 141 
L 488 750 
Q 750 597 1062 519 
Q 1375 441 1716 441 
Q 2309 441 2620 675 
Q 2931 909 2931 1356 
Q 2931 1769 2642 2001 
Q 2353 2234 1838 2234 
L 1294 2234 
L 1294 2753 
L 1863 2753 
Q 2328 2753 2575 2939 
Q 2822 3125 2822 3475 
Q 2822 3834 2567 4026 
Q 2313 4219 1838 4219 
Q 1578 4219 1281 4162 
Q 984 4106 628 3988 
L 628 4550 
Q 988 4650 1302 4700 
Q 1616 4750 1894 4750 
Q 2613 4750 3031 4423 
Q 3450 4097 3450 3541 
Q 3450 3153 3228 2886 
Q 3006 2619 2597 2516 
z
" transform="scale(0.015625)"/>
     </defs>
     <use xlink:href="#DejaVuSans-33"/>
     <use xlink:href="#DejaVuSans-20" x="63.623047"/>
     <use xlink:href="#DejaVuSans-4c" x="95.410156"/>
     <use xlink:href="#DejaVuSans-52" x="151.123047"/>
     <use xlink:href="#DejaVuSans-20" x="220.605469"/>
     <use xlink:href="#DejaVuSans-70" x="252.392578"/>
     <use xlink:href="#DejaVuSans-61" x="315.869141"/>
     <use xlink:href="#DejaVuSans-69" x="377.148438"/>
     <use xlink:href="#DejaVuSans-72" x="404.931641"/>
     <use xlink:href="#DejaVuSans-73" x="446.044922"/>
     <use xlink:href="#DejaVuSans-20" x="498.144531"/>
     <use xlink:href="#DejaVuSans-b7" x="529.931641"/>
     <use xlink:href="#DejaVuSans-20" x="561.71875"/>
     <use xlink:href="#DejaVuSans-33" x="593.505859"/>
     <use xlink:href="#DejaVuSans-20" x="657.128906"/>
     <use xlink:href="#DejaVuSans-69" x="688.916016"/>
     <use xlink:href="#DejaVuSans-6e" x="716.699219"/>
     <use xlink:href="#DejaVuSans-74" x="780.078125"/>
     <use xlink:href="#DejaVuSans-65" x="819.287109"/>
     <use xlink:href="#DejaVuSans-72" x="880.810547"/>
     <use xlink:href="#DejaVuSans-61" x="921.923828"/>
     <use xlink:href="#DejaVuSans-63" x="983.203125"/>
     <use xlink:href="#DejaVuSans-74" x="1038.183594"/>
     <use xlink:href="#DejaVuSans-69" x="1077.392578"/>
     <use xlink:href="#DejaVuSans-6f" x="1105.175781"/>
     <use xlink:href="#DejaVuSans-6e" x="1166.357422"/>
     <use xlink:href="#DejaVuSans-73" x="1229.736328"/>
    </g>
   </g>
   <g id="text_15">
    <!-- ECM–Integrin -->
    <g transform="translate(1348.470312 55.192736) scale(0.1 -0.1)">
     <defs>
      <path id="DejaVuSans-Bold-45" d="M 588 4666 
L 3834 4666 
L 3834 3756 
L 1791 3756 
L 1791 2888 
L 3713 2888 
L 3713 1978 
L 1791 1978 
L 1791 909 
L 3903 909 
L 3903 0 
L 588 0 
L 588 4666 
z
" transform="scale(0.015625)"/>
      <path id="DejaVuSans-Bold-2013" d="M 344 2156 
L 2856 2156 
L 2856 1350 
L 344 1350 
L 344 2156 
z
" transform="scale(0.015625)"/>
      <path id="DejaVuSans-Bold-49" d="M 588 4666 
L 1791 4666 
L 1791 0 
L 588 0 
L 588 4666 
z
" transform="scale(0.015625)"/>
     </defs>
     <use xlink:href="#DejaVuSans-Bold-45"/>
     <use xlink:href="#DejaVuSans-Bold-43" x="68.310547"/>
     <use xlink:href="#DejaVuSans-Bold-4d" x="141.699219"/>
     <use xlink:href="#DejaVuSans-Bold-2013" x="241.210938"/>
     <use xlink:href="#DejaVuSans-Bold-49" x="291.210938"/>
     <use xlink:href="#DejaVuSans-Bold-6e" x="328.417969"/>
     <use xlink:href="#DejaVuSans-Bold-74" x="399.609375"/>
     <use xlink:href="#DejaVuSans-Bold-65" x="447.412109"/>
     <use xlink:href="#DejaVuSans-Bold-67" x="515.234375"/>
     <use xlink:href="#DejaVuSans-Bold-72" x="586.816406"/>
     <use xlink:href="#DejaVuSans-Bold-69" x="636.132812"/>
     <use xlink:href="#DejaVuSans-Bold-6e" x="670.410156"/>
    </g>
    <!-- remodeling -->
    <g transform="translate(1353.510937 66.468674) scale(0.1 -0.1)">
     <defs>
      <path id="DejaVuSans-Bold-6d" d="M 3781 2919 
Q 3994 3244 4286 3414 
Q 4578 3584 4928 3584 
Q 5531 3584 5847 3212 
Q 6163 2841 6163 2131 
L 6163 0 
L 5038 0 
L 5038 1825 
Q 5041 1866 5042 1909 
Q 5044 1953 5044 2034 
Q 5044 2406 4934 2573 
Q 4825 2741 4581 2741 
Q 4263 2741 4089 2478 
Q 3916 2216 3909 1719 
L 3909 0 
L 2784 0 
L 2784 1825 
Q 2784 2406 2684 2573 
Q 2584 2741 2328 2741 
Q 2006 2741 1831 2477 
Q 1656 2213 1656 1722 
L 1656 0 
L 531 0 
L 531 3500 
L 1656 3500 
L 1656 2988 
Q 1863 3284 2130 3434 
Q 2397 3584 2719 3584 
Q 3081 3584 3359 3409 
Q 3638 3234 3781 2919 
z
" transform="scale(0.015625)"/>
     </defs>
     <use xlink:href="#DejaVuSans-Bold-72"/>
     <use xlink:href="#DejaVuSans-Bold-65" x="49.316406"/>
     <use xlink:href="#DejaVuSans-Bold-6d" x="117.138672"/>
     <use xlink:href="#DejaVuSans-Bold-6f" x="221.337891"/>
     <use xlink:href="#DejaVuSans-Bold-64" x="290.039062"/>
     <use xlink:href="#DejaVuSans-Bold-65" x="361.621094"/>
     <use xlink:href="#DejaVuSans-Bold-6c" x="429.443359"/>
     <use xlink:href="#DejaVuSans-Bold-69" x="463.720703"/>
     <use xlink:href="#DejaVuSans-Bold-6e" x="497.998047"/>
     <use xlink:href="#DejaVuSans-Bold-67" x="569.189453"/>
    </g>
   </g>
  </g>
  <g id="axes_5">
   <g id="patch_13">
    <path d="M 358.568182 672.011225 
C 358.568182 643.671691 351.369981 615.796503 337.648731 591.000203 
L 337.648731 591.000203 
C 323.927481 566.203904 304.13283 545.299071 280.12141 530.246467 
L 280.12141 530.246467 
C 256.10999 515.193863 228.66866 506.486764 200.371267 504.941848 
L 200.371267 504.941848 
C 172.073875 503.396933 143.847732 509.064828 118.340297 521.413916 
L 122.71488 530.449755 
C 146.691868 518.841612 173.224443 513.51379 199.823991 514.966011 
L 199.823991 514.966011 
C 226.42354 516.418232 252.218391 524.602905 274.789126 538.752353 
L 274.789126 538.752353 
C 297.35986 552.9018 315.966832 572.552343 328.864807 595.860864 
L 328.864807 595.860864 
C 341.762782 619.169386 348.529091 645.372063 348.529091 672.011225 
z
" clip-path="url(#pd5e390c263)" style="fill: #0f3466; opacity: 0.72; stroke: #0f3466; stroke-width: 0.3; stroke-linejoin: miter"/>
   </g>
   <g id="patch_14">
    <path d="M 111.840729 524.737528 
C 99.418395 531.435591 87.893416 539.678428 77.540336 549.269682 
L 77.540336 549.269682 
C 67.187255 558.860937 58.089265 569.723536 50.463094 581.598719 
L 50.463094 581.598719 
C 42.836924 593.473901 36.743853 606.266242 32.329027 619.671008 
L 32.329027 619.671008 
C 27.914201 633.075774 25.213097 646.98525 24.290059 661.068092 
L 34.307656 661.72468 
C 35.175312 648.486808 37.714349 635.411901 41.864285 622.811421 
L 41.864285 622.811421 
C 46.014221 610.210941 51.741708 598.186141 58.910309 587.023469 
L 58.910309 587.023469 
C 66.078909 575.860798 74.631019 565.649954 84.362915 556.634175 
L 84.362915 556.634175 
C 94.094811 547.618396 104.928291 539.870129 116.605285 533.57395 
z
" clip-path="url(#pd5e390c263)" style="fill: #cc2400; opacity: 0.72; stroke: #cc2400; stroke-width: 0.3; stroke-linejoin: miter"/>
   </g>
   <g id="patch_15">
    <path d="M 118.987563 537.992161 
C 107.683239 544.087398 97.195509 551.58838 87.774205 560.316421 
L 87.774205 560.316421 
C 78.352902 569.044463 70.073731 578.929428 63.133916 589.735844 
L 63.133916 589.735844 
C 56.1941 600.54226 50.649406 612.18329 46.631915 624.381627 
L 46.631915 624.381627 
C 42.614423 636.579965 40.156419 649.237588 39.316454 662.052974 
C 138.073259 668.525837 217.559098 718.354996 263.940757 800.056808 
L 321.130424 751.472188 
L 338.34986 678.433743 
C 244.49012 674.335738 165.958147 625.104552 118.987563 537.992161 
" clip-path="url(#pd5e390c263)" style="fill: #cc2400; opacity: 0.72; stroke: #cc2400; stroke-width: 0.3; stroke-linejoin: miter"/>
   </g>
   <g id="patch_16">
    <path d="M 23.971635 668.361198 
C 23.663761 682.470898 25.142295 696.562861 28.372019 710.301396 
L 28.372019 710.301396 
C 31.601742 724.03993 36.556701 737.314638 43.118862 749.809296 
L 43.118862 749.809296 
C 49.681023 762.303955 57.797654 773.918161 67.275405 784.375248 
L 67.275405 784.375248 
C 76.753156 794.832335 87.515868 804.048273 99.307157 811.803526 
L 104.823727 803.415988 
C 93.739916 796.12605 83.622967 787.463068 74.713881 777.633407 
L 74.713881 777.633407 
C 65.804794 767.803745 58.175161 756.886391 52.00673 745.141412 
L 52.00673 745.141412 
C 45.838299 733.396433 41.180638 720.918208 38.144698 708.003985 
L 38.144698 708.003985 
C 35.108758 695.089763 33.718935 681.843318 34.008337 668.580199 
z
" clip-path="url(#pd5e390c263)" style="fill: #3dccb1; opacity: 0.72; stroke: #3dccb1; stroke-width: 0.3; stroke-linejoin: miter"/>
   </g>
   <g id="patch_17">
    <path d="M 39.026688 668.6897 
C 38.746522 681.529528 40.091989 694.353214 43.031037 706.85528 
L 43.031037 706.85528 
C 45.970085 719.357347 50.479098 731.437331 56.450664 742.80747 
L 56.450664 742.80747 
C 62.422231 754.177609 69.808365 764.746537 78.433118 774.262486 
L 78.433118 774.262486 
C 87.057872 783.778435 96.85194 792.164939 107.582013 799.222219 
C 161.966204 716.535073 219.555544 626.859149 269.456841 547.258238 
L 199.550353 519.978092 
L 127.089462 539.485593 
C 168.02826 624.045982 137.971841 670.848691 39.026688 668.6897 
" clip-path="url(#pd5e390c263)" style="fill: #3dccb1; opacity: 0.72; stroke: #3dccb1; stroke-width: 0.3; stroke-linejoin: miter"/>
   </g>
   <g id="patch_18">
    <path d="M 105.492321 815.680965 
C 117.610666 822.914508 130.595517 828.585763 144.137555 832.559633 
L 144.137555 832.559633 
C 157.679593 836.533503 171.67 838.778056 185.775503 839.239822 
L 185.775503 839.239822 
C 199.881006 839.701589 213.988258 838.376858 227.761205 835.297188 
L 227.761205 835.297188 
C 241.534152 832.217518 254.862119 827.407655 267.427615 820.982178 
L 262.856958 812.043921 
C 251.045392 818.08387 238.517103 822.60514 225.570533 825.50003 
L 225.570533 825.50003 
C 212.623962 828.39492 199.363145 829.640167 186.103972 829.206106 
L 186.103972 829.206106 
C 172.8448 828.772046 159.693818 826.662167 146.964302 822.926729 
L 146.964302 822.926729 
C 134.234786 819.191291 122.029026 813.860311 110.637781 807.060781 
z
" clip-path="url(#pd5e390c263)" style="fill: #99ffbc; opacity: 0.72; stroke: #99ffbc; stroke-width: 0.3; stroke-linejoin: miter"/>
   </g>
   <g id="patch_19">
    <path d="M 113.210512 802.750689 
C 124.238206 809.333213 136.05442 814.494055 148.377675 818.110276 
L 148.377675 818.110276 
C 160.70093 821.726498 173.4322 823.769041 186.268207 824.189248 
L 186.268207 824.189248 
C 199.104215 824.609456 211.941815 823.403951 224.475197 820.601451 
L 224.475197 820.601451 
C 237.008579 817.798952 249.137029 813.421977 260.57163 807.574792 
C 215.51257 719.458473 244.540841 672.011225 338.49 672.011225 
L 324.472845 598.291195 
L 269.456841 547.258238 
C 219.555544 626.859149 163.936179 717.770037 113.210512 802.750689 
" clip-path="url(#pd5e390c263)" style="fill: #99ffbc; opacity: 0.72; stroke: #99ffbc; stroke-width: 0.3; stroke-linejoin: miter"/>
   </g>
   <g id="patch_20">
    <path d="M 273.853132 817.51757 
C 286.126393 810.550109 297.468812 802.057818 307.610197 792.242994 
L 307.610197 792.242994 
C 317.751582 782.428171 326.61044 771.369685 333.97574 759.330964 
L 333.97574 759.330964 
C 341.341041 747.292244 347.153598 734.370028 351.27495 720.872143 
L 351.27495 720.872143 
C 355.396301 707.374258 357.793329 693.409168 358.408932 679.309541 
L 348.379396 678.871642 
C 347.800729 692.125291 345.547523 705.252476 341.673453 717.940488 
L 341.673453 717.940488 
C 337.799383 730.6285 332.335578 742.775383 325.412196 754.09178 
L 325.412196 754.09178 
C 318.488814 765.408177 310.161487 775.803154 300.628585 785.029088 
L 300.628585 785.029088 
C 291.095684 794.255022 280.43381 802.237776 268.896945 808.787189 
z
" clip-path="url(#pd5e390c263)" style="fill: #994567; opacity: 0.72; stroke: #994567; stroke-width: 0.3; stroke-linejoin: miter"/>
   </g>
   <g id="text_16">
    <!-- CA1-ProS -->
    <g transform="translate(273.534947 514.770839) rotate(-327.916667) scale(0.06 -0.06)">
     <use xlink:href="#DejaVuSans-43"/>
     <use xlink:href="#DejaVuSans-41" x="69.824219"/>
     <use xlink:href="#DejaVuSans-31" x="138.232422"/>
     <use xlink:href="#DejaVuSans-2d" x="201.855469"/>
     <use xlink:href="#DejaVuSans-50" x="237.939453"/>
     <use xlink:href="#DejaVuSans-72" x="296.492188"/>
     <use xlink:href="#DejaVuSans-6f" x="335.355469"/>
     <use xlink:href="#DejaVuSans-53" x="396.537109"/>
    </g>
   </g>
   <g id="text_17">
    <!-- DG -->
    <g transform="translate(39.869472 580.303466) rotate(-57.291667) scale(0.06 -0.06)">
     <use xlink:href="#DejaVuSans-44"/>
     <use xlink:href="#DejaVuSans-47" x="77.001953"/>
    </g>
   </g>
   <g id="text_18">
    <!-- Astro-TE -->
    <g transform="translate(25.91724 744.853991) rotate(-297.708333) scale(0.06 -0.06)">
     <defs>
      <path id="DejaVuSans-45" d="M 628 4666 
L 3578 4666 
L 3578 4134 
L 1259 4134 
L 1259 2753 
L 3481 2753 
L 3481 2222 
L 1259 2222 
L 1259 531 
L 3634 531 
L 3634 0 
L 628 0 
L 628 4666 
z
" transform="scale(0.015625)"/>
     </defs>
     <use xlink:href="#DejaVuSans-41"/>
     <use xlink:href="#DejaVuSans-73" x="68.408203"/>
     <use xlink:href="#DejaVuSans-74" x="120.507812"/>
     <use xlink:href="#DejaVuSans-72" x="159.716797"/>
     <use xlink:href="#DejaVuSans-6f" x="198.580078"/>
     <use xlink:href="#DejaVuSans-2d" x="261.636719"/>
     <use xlink:href="#DejaVuSans-54" x="288.595703"/>
     <use xlink:href="#DejaVuSans-45" x="349.679688"/>
    </g>
   </g>
   <g id="text_19">
    <!-- Oligo -->
    <g transform="translate(177.588175 851.903692) rotate(-358.125) scale(0.06 -0.06)">
     <defs>
      <path id="DejaVuSans-4f" d="M 2522 4238 
Q 1834 4238 1429 3725 
Q 1025 3213 1025 2328 
Q 1025 1447 1429 934 
Q 1834 422 2522 422 
Q 3209 422 3611 934 
Q 4013 1447 4013 2328 
Q 4013 3213 3611 3725 
Q 3209 4238 2522 4238 
z
M 2522 4750 
Q 3503 4750 4090 4092 
Q 4678 3434 4678 2328 
Q 4678 1225 4090 567 
Q 3503 -91 2522 -91 
Q 1538 -91 948 565 
Q 359 1222 359 2328 
Q 359 3434 948 4092 
Q 1538 4750 2522 4750 
z
" transform="scale(0.015625)"/>
     </defs>
     <use xlink:href="#DejaVuSans-4f"/>
     <use xlink:href="#DejaVuSans-6c" x="78.710938"/>
     <use xlink:href="#DejaVuSans-69" x="106.494141"/>
     <use xlink:href="#DejaVuSans-67" x="134.277344"/>
     <use xlink:href="#DejaVuSans-6f" x="197.753906"/>
    </g>
   </g>
   <g id="text_20">
    <!-- Endo -->
    <g transform="translate(341.067585 772.505465) rotate(-58.541667) scale(0.06 -0.06)">
     <use xlink:href="#DejaVuSans-45"/>
     <use xlink:href="#DejaVuSans-6e" x="63.183594"/>
     <use xlink:href="#DejaVuSans-64" x="126.5625"/>
     <use xlink:href="#DejaVuSans-6f" x="190.039062"/>
    </g>
   </g>
   <g id="text_21">
    <!-- 2 LR pairs · 3 interactions -->
    <g style="fill: #555555" transform="translate(149.591602 874.466225) scale(0.065 -0.065)">
     <use xlink:href="#DejaVuSans-32"/>
     <use xlink:href="#DejaVuSans-20" x="63.623047"/>
     <use xlink:href="#DejaVuSans-4c" x="95.410156"/>
     <use xlink:href="#DejaVuSans-52" x="151.123047"/>
     <use xlink:href="#DejaVuSans-20" x="220.605469"/>
     <use xlink:href="#DejaVuSans-70" x="252.392578"/>
     <use xlink:href="#DejaVuSans-61" x="315.869141"/>
     <use xlink:href="#DejaVuSans-69" x="377.148438"/>
     <use xlink:href="#DejaVuSans-72" x="404.931641"/>
     <use xlink:href="#DejaVuSans-73" x="446.044922"/>
     <use xlink:href="#DejaVuSans-20" x="498.144531"/>
     <use xlink:href="#DejaVuSans-b7" x="529.931641"/>
     <use xlink:href="#DejaVuSans-20" x="561.71875"/>
     <use xlink:href="#DejaVuSans-33" x="593.505859"/>
     <use xlink:href="#DejaVuSans-20" x="657.128906"/>
     <use xlink:href="#DejaVuSans-69" x="688.916016"/>
     <use xlink:href="#DejaVuSans-6e" x="716.699219"/>
     <use xlink:href="#DejaVuSans-74" x="780.078125"/>
     <use xlink:href="#DejaVuSans-65" x="819.287109"/>
     <use xlink:href="#DejaVuSans-72" x="880.810547"/>
     <use xlink:href="#DejaVuSans-61" x="921.923828"/>
     <use xlink:href="#DejaVuSans-63" x="983.203125"/>
     <use xlink:href="#DejaVuSans-74" x="1038.183594"/>
     <use xlink:href="#DejaVuSans-69" x="1077.392578"/>
     <use xlink:href="#DejaVuSans-6f" x="1105.175781"/>
     <use xlink:href="#DejaVuSans-6e" x="1166.357422"/>
     <use xlink:href="#DejaVuSans-73" x="1229.736328"/>
    </g>
   </g>
  </g>
  <g id="axes_6">
   <g id="patch_21">
    <path d="M 756.668182 672.011225 
C 756.668182 650.499312 752.51989 629.189227 744.450508 609.248127 
L 744.450508 609.248127 
C 736.381126 589.307027 724.542071 571.109093 709.58177 555.651027 
L 709.58177 555.651027 
C 694.621468 540.192962 676.820641 527.764826 657.15424 519.04731 
L 657.15424 519.04731 
C 637.487839 510.329795 616.324893 505.486477 594.824497 504.782627 
L 594.496028 514.816343 
C 614.706399 515.477962 634.599569 520.03068 653.085985 528.225145 
L 653.085985 528.225145 
C 671.572402 536.41961 688.30518 548.102058 702.367864 562.632639 
L 702.367864 562.632639 
C 716.430547 577.163221 727.559258 594.269279 735.144477 613.013913 
L 735.144477 613.013913 
C 742.729696 631.758547 746.629091 651.790026 746.629091 672.011225 
z
" clip-path="url(#p778dba8418)" style="fill: #0f3466; opacity: 0.72; stroke: #0f3466; stroke-width: 0.3; stroke-linejoin: miter"/>
   </g>
   <g id="patch_22">
    <path d="M 741.609545 672.011225 
C 741.609545 652.435384 737.8346 633.043207 730.491462 614.896806 
L 730.491462 614.896806 
C 723.148325 596.750405 712.374785 580.190285 698.76091 566.123445 
L 698.76091 566.123445 
C 685.147036 552.056606 668.948283 540.747002 651.051858 532.814063 
L 651.051858 532.814063 
C 633.155434 524.881123 613.897152 520.473704 594.331793 519.833201 
C 591.093627 618.748916 588.768699 725.298895 587.743893 819.242465 
L 694.038015 782.570659 
L 736.44986 678.433743 
C 706.85855 677.141759 706.970499 672.011225 741.609545 672.011225 
" clip-path="url(#p778dba8418)" style="fill: #0f3466; opacity: 0.72; stroke: #0f3466; stroke-width: 0.3; stroke-linejoin: miter"/>
   </g>
   <g id="patch_23">
    <path d="M 587.524878 504.702997 
C 566.014245 504.937651 544.750678 509.318149 524.898786 517.60457 
L 524.898786 517.60457 
C 505.046894 525.890991 486.979184 537.927846 471.685226 553.055876 
L 471.685226 553.055876 
C 456.391269 568.183905 444.158046 586.119241 435.655572 605.879563 
L 435.655572 605.879563 
C 427.153097 625.639885 422.540915 646.854404 422.071635 668.361198 
L 432.108337 668.580199 
C 432.54946 648.363813 436.884911 628.422166 444.877237 609.847463 
L 444.877237 609.847463 
C 452.869563 591.27276 464.368793 574.413544 478.745113 560.193197 
L 478.745113 560.193197 
C 493.121433 545.972849 510.10508 534.658205 528.765859 526.868969 
L 528.765859 526.868969 
C 547.426638 519.079733 567.41439 514.962066 587.634385 514.741491 
z
" clip-path="url(#p778dba8418)" style="fill: #cc2400; opacity: 0.72; stroke: #cc2400; stroke-width: 0.3; stroke-linejoin: miter"/>
   </g>
   <g id="patch_24">
    <path d="M 587.689139 519.760738 
C 568.114463 519.974273 548.764617 523.960526 530.699395 531.501169 
L 530.699395 531.501169 
C 512.634173 539.041812 496.192557 549.99535 482.275056 563.761857 
L 482.275056 563.761857 
C 468.357555 577.528364 457.225322 593.849519 449.48807 611.831413 
L 449.48807 611.831413 
C 441.750818 629.813306 437.553733 649.118518 437.126688 668.6897 
C 471.757492 669.445347 471.757492 674.577102 442.145039 675.223248 
L 482.275056 780.260592 
L 587.743893 819.242465 
C 588.768699 725.298895 588.768699 618.723554 587.689139 519.760738 
" clip-path="url(#p778dba8418)" style="fill: #cc2400; opacity: 0.72; stroke: #cc2400; stroke-width: 0.3; stroke-linejoin: miter"/>
   </g>
   <g id="patch_25">
    <path d="M 422.071635 675.661252 
C 423.019004 719.078537 440.810233 760.42655 471.685226 790.966574 
L 471.685226 790.966574 
C 502.56022 821.506597 544.099841 838.845739 587.524878 839.319452 
L 587.524878 839.319452 
C 630.949915 839.793164 672.857902 823.36433 704.391775 793.505109 
L 704.391775 793.505109 
C 735.925648 763.645888 754.614646 722.695828 756.508932 679.309541 
L 746.479396 678.871642 
C 744.698767 719.654752 727.131109 758.147808 697.489269 786.215476 
L 697.489269 786.215476 
C 667.847428 814.283144 628.45392 829.726248 587.634385 829.280958 
L 587.634385 829.280958 
C 546.814851 828.835668 507.767607 812.536874 478.745113 783.829253 
L 478.745113 783.829253 
C 449.722619 755.121631 432.998864 716.254499 432.108337 675.44225 
z
" clip-path="url(#p778dba8418)" style="fill: #99ffbc; opacity: 0.72; stroke: #99ffbc; stroke-width: 0.3; stroke-linejoin: miter"/>
   </g>
   <g id="text_22">
    <!-- CA1-ProS -->
    <g transform="translate(706.892579 539.048472) rotate(-314.0625) scale(0.06 -0.06)">
     <use xlink:href="#DejaVuSans-43"/>
     <use xlink:href="#DejaVuSans-41" x="69.824219"/>
     <use xlink:href="#DejaVuSans-31" x="138.232422"/>
     <use xlink:href="#DejaVuSans-2d" x="201.855469"/>
     <use xlink:href="#DejaVuSans-50" x="237.939453"/>
     <use xlink:href="#DejaVuSans-72" x="296.492188"/>
     <use xlink:href="#DejaVuSans-6f" x="335.355469"/>
     <use xlink:href="#DejaVuSans-53" x="396.537109"/>
    </g>
   </g>
   <g id="text_23">
    <!-- DG -->
    <g transform="translate(461.629543 549.480158) rotate(-44.6875) scale(0.06 -0.06)">
     <use xlink:href="#DejaVuSans-44"/>
     <use xlink:href="#DejaVuSans-47" x="77.001953"/>
    </g>
   </g>
   <g id="text_24">
    <!-- Oligo -->
    <g transform="translate(579.61576 852.158914) rotate(-359.375) scale(0.06 -0.06)">
     <use xlink:href="#DejaVuSans-4f"/>
     <use xlink:href="#DejaVuSans-6c" x="78.710938"/>
     <use xlink:href="#DejaVuSans-69" x="106.494141"/>
     <use xlink:href="#DejaVuSans-67" x="134.277344"/>
     <use xlink:href="#DejaVuSans-6f" x="197.753906"/>
    </g>
   </g>
   <g id="text_25">
    <!-- 2 LR pairs · 2 interactions -->
    <g style="fill: #555555" transform="translate(547.691602 874.466225) scale(0.065 -0.065)">
     <use xlink:href="#DejaVuSans-32"/>
     <use xlink:href="#DejaVuSans-20" x="63.623047"/>
     <use xlink:href="#DejaVuSans-4c" x="95.410156"/>
     <use xlink:href="#DejaVuSans-52" x="151.123047"/>
     <use xlink:href="#DejaVuSans-20" x="220.605469"/>
     <use xlink:href="#DejaVuSans-70" x="252.392578"/>
     <use xlink:href="#DejaVuSans-61" x="315.869141"/>
     <use xlink:href="#DejaVuSans-69" x="377.148438"/>
     <use xlink:href="#DejaVuSans-72" x="404.931641"/>
     <use xlink:href="#DejaVuSans-73" x="446.044922"/>
     <use xlink:href="#DejaVuSans-20" x="498.144531"/>
     <use xlink:href="#DejaVuSans-b7" x="529.931641"/>
     <use xlink:href="#DejaVuSans-20" x="561.71875"/>
     <use xlink:href="#DejaVuSans-32" x="593.505859"/>
     <use xlink:href="#DejaVuSans-20" x="657.128906"/>
     <use xlink:href="#DejaVuSans-69" x="688.916016"/>
     <use xlink:href="#DejaVuSans-6e" x="716.699219"/>
     <use xlink:href="#DejaVuSans-74" x="780.078125"/>
     <use xlink:href="#DejaVuSans-65" x="819.287109"/>
     <use xlink:href="#DejaVuSans-72" x="880.810547"/>
     <use xlink:href="#DejaVuSans-61" x="921.923828"/>
     <use xlink:href="#DejaVuSans-63" x="983.203125"/>
     <use xlink:href="#DejaVuSans-74" x="1038.183594"/>
     <use xlink:href="#DejaVuSans-69" x="1077.392578"/>
     <use xlink:href="#DejaVuSans-6f" x="1105.175781"/>
     <use xlink:href="#DejaVuSans-6e" x="1166.357422"/>
     <use xlink:href="#DejaVuSans-73" x="1229.736328"/>
    </g>
   </g>
  </g>
  <g id="axes_7">
   <g id="patch_26">
    <path d="M 1154.768182 672.011225 
C 1154.768182 628.899241 1138.127125 587.451061 1108.314625 556.308517 
L 1108.314625 556.308517 
C 1078.502125 525.165974 1037.819268 506.732811 994.748317 504.852293 
L 994.748317 504.852293 
C 951.677366 502.971774 909.542763 517.789049 877.129457 546.214755 
L 877.129457 546.214755 
C 844.716151 574.640461 824.525971 614.480554 820.768514 657.428484 
L 830.769404 658.303449 
C 834.301413 617.932394 853.280182 580.482707 883.74869 553.762543 
L 883.74869 553.762543 
C 914.217197 527.042379 953.823724 513.114141 994.310418 514.881829 
L 994.310418 514.881829 
C 1034.797112 516.649516 1073.038997 533.976689 1101.062747 563.25068 
L 1101.062747 563.25068 
C 1129.086497 592.524671 1144.729091 631.48596 1144.729091 672.011225 
z
" clip-path="url(#p6fb5dc1dd6)" style="fill: #cc2400; opacity: 0.72; stroke: #cc2400; stroke-width: 0.3; stroke-linejoin: miter"/>
   </g>
   <g id="patch_27">
    <path d="M 1139.709545 672.011225 
C 1139.709545 659.075697 1138.061125 646.192897 1134.804116 633.674121 
L 1134.804116 633.674121 
C 1131.547108 621.155344 1126.708063 609.102649 1120.403911 597.807272 
L 1120.403911 597.807272 
C 1114.099759 586.511894 1106.381895 576.06592 1097.436809 566.721761 
L 1097.436809 566.721761 
C 1088.491722 557.377602 1078.392339 549.211436 1067.382695 542.420587 
C 1015.426443 626.654501 934.20988 669.686711 840.35014 665.588706 
L 851.3859 740.345184 
L 904.759706 793.838696 
C 957.521751 716.104463 1040.740841 672.011225 1139.709545 672.011225 
" clip-path="url(#p6fb5dc1dd6)" style="fill: #cc2400; opacity: 0.72; stroke: #cc2400; stroke-width: 0.3; stroke-linejoin: miter"/>
   </g>
   <g id="patch_28">
    <path d="M 1067.382695 542.420587 
C 1056.373052 535.629738 1044.542905 530.269568 1032.178112 526.469598 
L 1032.178112 526.469598 
C 1019.813319 522.669627 1007.014684 520.460836 994.091468 519.896597 
L 994.091468 519.896597 
C 981.168252 519.332357 968.225811 520.417268 955.576881 523.125116 
L 955.576881 523.125116 
C 942.92795 525.832963 930.675651 530.141671 919.116041 535.947125 
C 963.533114 624.38879 959.473557 717.367948 910.152448 797.329643 
L 980.808532 824.125853 
L 1053.531191 803.589695 
C 1011.366886 719.633659 1015.426443 626.654501 1067.382695 542.420587 
" clip-path="url(#p6fb5dc1dd6)" style="fill: #cc2400; opacity: 0.72; stroke: #cc2400; stroke-width: 0.3; stroke-linejoin: miter"/>
   </g>
   <g id="patch_29">
    <path d="M 919.116041 535.947125 
C 907.556431 541.752579 896.783751 549.007451 887.058306 557.536437 
L 887.058306 557.536437 
C 877.332861 566.065423 868.733939 575.798991 861.469319 586.501943 
L 861.469319 586.501943 
C 854.204699 597.204895 848.333607 608.789975 843.997909 620.977247 
L 843.997909 620.977247 
C 839.662211 633.164519 836.897254 645.854627 835.769848 658.740931 
C 934.361947 667.366622 1013.421384 718.545094 1059.207669 800.58204 
L 1117.040638 751.94392 
L 1134.54986 678.433743 
C 1040.69012 674.335738 963.533114 624.38879 919.116041 535.947125 
" clip-path="url(#p6fb5dc1dd6)" style="fill: #cc2400; opacity: 0.72; stroke: #cc2400; stroke-width: 0.3; stroke-linejoin: miter"/>
   </g>
   <g id="patch_30">
    <path d="M 820.291068 664.712908 
C 819.671024 678.914244 820.863235 693.136707 823.838891 707.03663 
L 823.838891 707.03663 
C 826.814548 720.936554 831.549391 734.400619 837.929011 747.103487 
L 837.929011 747.103487 
C 844.308631 759.806355 852.281018 771.644466 861.65353 782.331768 
L 861.65353 782.331768 
C 871.026043 793.019069 881.722271 802.468435 893.483757 810.451533 
L 899.121731 802.145115 
C 888.065935 794.641002 878.01148 785.758599 869.201319 775.712535 
L 869.201319 775.712535 
C 860.391157 765.666471 852.897114 754.538648 846.900271 742.597952 
L 846.900271 742.597952 
C 840.903428 730.657256 836.452675 718.001034 833.655558 704.935106 
L 833.655558 704.935106 
C 830.858441 691.869178 829.737763 678.500063 830.320604 665.150807 
z
" clip-path="url(#p6fb5dc1dd6)" style="fill: #ad5ccc; opacity: 0.72; stroke: #ad5ccc; stroke-width: 0.3; stroke-linejoin: miter"/>
   </g>
   <g id="patch_31">
    <path d="M 899.611873 814.418519 
C 911.710382 821.88099 924.710544 827.771287 938.298229 831.947078 
L 938.298229 831.947078 
C 951.885913 836.12287 965.950347 838.550113 980.151683 839.170157 
L 980.151683 839.170157 
C 994.35302 839.7902 1008.575482 838.59799 1022.475406 835.622333 
L 1022.475406 835.622333 
C 1036.375329 832.646677 1049.839395 827.911833 1062.542263 821.532213 
L 1058.036727 812.560954 
C 1046.096031 818.557797 1033.43981 823.00855 1020.373881 825.805667 
L 1020.373881 825.805667 
C 1007.307953 828.602784 993.938839 829.723462 980.589582 829.140621 
L 980.589582 829.140621 
C 967.240326 828.55778 954.019759 826.276171 941.247335 822.350927 
L 941.247335 822.350927 
C 928.474912 818.425683 916.254759 812.888804 904.882161 805.874081 
z
" clip-path="url(#p6fb5dc1dd6)" style="fill: #3dccb1; opacity: 0.72; stroke: #3dccb1; stroke-width: 0.3; stroke-linejoin: miter"/>
   </g>
   <g id="patch_32">
    <path d="M 1068.992806 818.114424 
C 1081.405308 811.186784 1092.884401 802.705615 1103.152707 792.875849 
L 1103.152707 792.875849 
C 1113.421014 783.046084 1122.394823 771.947861 1129.857294 759.849352 
L 1129.857294 759.849352 
C 1137.319766 747.750842 1143.210062 734.75068 1147.385854 721.162996 
L 1147.385854 721.162996 
C 1151.561645 707.575311 1153.988888 693.510877 1154.608932 679.309541 
L 1144.579396 678.871642 
C 1143.996555 692.220898 1141.714947 705.441466 1137.789703 718.21389 
L 1137.789703 718.21389 
C 1133.864459 730.986313 1128.32758 743.206465 1121.312856 754.579064 
L 1121.312856 754.579064 
C 1114.298133 765.951663 1105.862753 776.383993 1096.210545 785.623972 
L 1096.210545 785.623972 
C 1086.558336 794.863951 1075.76799 802.836251 1064.100237 809.348232 
z
" clip-path="url(#p6fb5dc1dd6)" style="fill: #ff26cb; opacity: 0.72; stroke: #ff26cb; stroke-width: 0.3; stroke-linejoin: miter"/>
   </g>
   <g id="text_26">
    <!-- DG -->
    <g transform="translate(990.537541 495.045566) rotate(-357.5) scale(0.06 -0.06)">
     <use xlink:href="#DejaVuSans-44"/>
     <use xlink:href="#DejaVuSans-47" x="77.001953"/>
    </g>
   </g>
   <g id="text_27">
    <!-- Astro-NT -->
    <g transform="translate(820.540939 741.279998) rotate(-296.666667) scale(0.06 -0.06)">
     <use xlink:href="#DejaVuSans-41"/>
     <use xlink:href="#DejaVuSans-73" x="68.408203"/>
     <use xlink:href="#DejaVuSans-74" x="120.507812"/>
     <use xlink:href="#DejaVuSans-72" x="159.716797"/>
     <use xlink:href="#DejaVuSans-6f" x="198.580078"/>
     <use xlink:href="#DejaVuSans-2d" x="261.636719"/>
     <use xlink:href="#DejaVuSans-4e" x="297.720703"/>
     <use xlink:href="#DejaVuSans-54" x="372.525391"/>
    </g>
   </g>
   <g id="text_28">
    <!-- Astro-TE -->
    <g transform="translate(967.21438 851.542587) rotate(-357.5) scale(0.06 -0.06)">
     <use xlink:href="#DejaVuSans-41"/>
     <use xlink:href="#DejaVuSans-73" x="68.408203"/>
     <use xlink:href="#DejaVuSans-74" x="120.507812"/>
     <use xlink:href="#DejaVuSans-72" x="159.716797"/>
     <use xlink:href="#DejaVuSans-6f" x="198.580078"/>
     <use xlink:href="#DejaVuSans-2d" x="261.636719"/>
     <use xlink:href="#DejaVuSans-54" x="288.595703"/>
     <use xlink:href="#DejaVuSans-45" x="349.679688"/>
    </g>
   </g>
   <g id="text_29">
    <!-- OPC -->
    <g transform="translate(1137.568811 771.967171) rotate(-58.333333) scale(0.06 -0.06)">
     <use xlink:href="#DejaVuSans-4f"/>
     <use xlink:href="#DejaVuSans-50" x="78.710938"/>
     <use xlink:href="#DejaVuSans-43" x="139.013672"/>
    </g>
   </g>
   <g id="text_30">
    <!-- 1 LR pairs · 3 interactions -->
    <g style="fill: #555555" transform="translate(945.791602 874.466225) scale(0.065 -0.065)">
     <use xlink:href="#DejaVuSans-31"/>
     <use xlink:href="#DejaVuSans-20" x="63.623047"/>
     <use xlink:href="#DejaVuSans-4c" x="95.410156"/>
     <use xlink:href="#DejaVuSans-52" x="151.123047"/>
     <use xlink:href="#DejaVuSans-20" x="220.605469"/>
     <use xlink:href="#DejaVuSans-70" x="252.392578"/>
     <use xlink:href="#DejaVuSans-61" x="315.869141"/>
     <use xlink:href="#DejaVuSans-69" x="377.148438"/>
     <use xlink:href="#DejaVuSans-72" x="404.931641"/>
     <use xlink:href="#DejaVuSans-73" x="446.044922"/>
     <use xlink:href="#DejaVuSans-20" x="498.144531"/>
     <use xlink:href="#DejaVuSans-b7" x="529.931641"/>
     <use xlink:href="#DejaVuSans-20" x="561.71875"/>
     <use xlink:href="#DejaVuSans-33" x="593.505859"/>
     <use xlink:href="#DejaVuSans-20" x="657.128906"/>
     <use xlink:href="#DejaVuSans-69" x="688.916016"/>
     <use xlink:href="#DejaVuSans-6e" x="716.699219"/>
     <use xlink:href="#DejaVuSans-74" x="780.078125"/>
     <use xlink:href="#DejaVuSans-65" x="819.287109"/>
     <use xlink:href="#DejaVuSans-72" x="880.810547"/>
     <use xlink:href="#DejaVuSans-61" x="921.923828"/>
     <use xlink:href="#DejaVuSans-63" x="983.203125"/>
     <use xlink:href="#DejaVuSans-74" x="1038.183594"/>
     <use xlink:href="#DejaVuSans-69" x="1077.392578"/>
     <use xlink:href="#DejaVuSans-6f" x="1105.175781"/>
     <use xlink:href="#DejaVuSans-6e" x="1166.357422"/>
     <use xlink:href="#DejaVuSans-73" x="1229.736328"/>
    </g>
   </g>
  </g>
  <g id="axes_8">
   <g id="patch_33">
    <path d="M 1552.868182 672.011225 
C 1552.868182 628.2678 1535.737369 586.263832 1505.145338 554.996999 
L 1505.145338 554.996999 
C 1474.553307 523.730166 1432.933042 505.687118 1389.200027 504.73286 
L 1389.200027 504.73286 
C 1345.467012 503.778602 1303.099333 519.989027 1271.172579 549.891695 
L 1271.172579 549.891695 
C 1239.245825 579.794363 1220.299129 621.011117 1218.391068 664.712908 
L 1228.420604 665.150807 
C 1230.214182 624.071124 1248.024075 585.327375 1278.035224 557.218867 
L 1278.035224 557.218867 
C 1308.046373 529.110359 1347.871991 513.87256 1388.981025 514.769562 
L 1388.981025 514.769562 
C 1430.090059 515.666564 1469.213109 532.627029 1497.969618 562.017852 
L 1497.969618 562.017852 
C 1526.726127 591.408675 1542.829091 630.892405 1542.829091 672.011225 
z
" clip-path="url(#pf9fc4effed)" style="fill: #c973ff; opacity: 0.72; stroke: #c973ff; stroke-width: 0.3; stroke-linejoin: miter"/>
   </g>
   <g id="patch_34">
    <path d="M 1218.231818 672.011225 
C 1218.231818 715.754649 1235.362631 757.758617 1265.954662 789.02545 
L 1265.954662 789.02545 
C 1296.546693 820.292284 1338.166958 838.335331 1381.899973 839.289589 
L 1381.899973 839.289589 
C 1425.632988 840.243847 1468.000667 824.033423 1499.927421 794.130754 
L 1499.927421 794.130754 
C 1531.854175 764.228086 1550.800871 723.011332 1552.708932 679.309541 
L 1542.679396 678.871642 
C 1540.885818 719.951325 1523.075925 758.695074 1493.064776 786.803582 
L 1493.064776 786.803582 
C 1463.053627 814.912091 1423.228009 830.14989 1382.118975 829.252887 
L 1382.118975 829.252887 
C 1341.009941 828.355885 1301.886891 811.39542 1273.130382 782.004597 
L 1273.130382 782.004597 
C 1244.373873 752.613774 1228.270909 713.130044 1228.270909 672.011225 
z
" clip-path="url(#pf9fc4effed)" style="fill: #653d66; opacity: 0.72; stroke: #653d66; stroke-width: 0.3; stroke-linejoin: miter"/>
   </g>
   <g id="patch_35">
    <path d="M 1233.290455 672.011225 
C 1233.290455 711.817741 1248.879494 750.041352 1276.718242 778.49417 
L 1276.718242 778.49417 
C 1304.55699 806.946988 1342.431432 823.366162 1382.228476 824.234536 
L 1382.228476 824.234536 
C 1422.025519 825.102911 1460.580107 810.351425 1489.633453 783.139997 
L 1489.633453 783.139997 
C 1518.686799 755.928568 1535.928292 718.421322 1537.664628 678.652693 
C 1503.05855 677.141759 1503.170499 672.011225 1532.79 672.011225 
L 1388.871524 519.787913 
L 1238.45014 665.588706 
C 1268.04145 666.880691 1267.929501 672.011225 1233.290455 672.011225 
" clip-path="url(#pf9fc4effed)" style="fill: #653d66; opacity: 0.72; stroke: #653d66; stroke-width: 0.3; stroke-linejoin: miter"/>
   </g>
   <g id="text_31">
    <!-- CA3 -->
    <g transform="translate(1383.355409 494.98932) rotate(-358.75) scale(0.06 -0.06)">
     <use xlink:href="#DejaVuSans-43"/>
     <use xlink:href="#DejaVuSans-41" x="69.824219"/>
     <use xlink:href="#DejaVuSans-33" x="138.232422"/>
    </g>
   </g>
   <g id="text_32">
    <!-- VLMC -->
    <g transform="translate(1373.212986 852.028087) rotate(-358.75) scale(0.06 -0.06)">
     <defs>
      <path id="DejaVuSans-56" d="M 1831 0 
L 50 4666 
L 709 4666 
L 2188 738 
L 3669 4666 
L 4325 4666 
L 2547 0 
L 1831 0 
z
" transform="scale(0.015625)"/>
     </defs>
     <use xlink:href="#DejaVuSans-56"/>
     <use xlink:href="#DejaVuSans-4c" x="68.408203"/>
     <use xlink:href="#DejaVuSans-4d" x="124.121094"/>
     <use xlink:href="#DejaVuSans-43" x="210.400391"/>
    </g>
   </g>
   <g id="text_33">
    <!-- 1 LR pairs · 1 interactions -->
    <g style="fill: #555555" transform="translate(1343.891602 874.466225) scale(0.065 -0.065)">
     <use xlink:href="#DejaVuSans-31"/>
     <use xlink:href="#DejaVuSans-20" x="63.623047"/>
     <use xlink:href="#DejaVuSans-4c" x="95.410156"/>
     <use xlink:href="#DejaVuSans-52" x="151.123047"/>
     <use xlink:href="#DejaVuSans-20" x="220.605469"/>
     <use xlink:href="#DejaVuSans-70" x="252.392578"/>
     <use xlink:href="#DejaVuSans-61" x="315.869141"/>
     <use xlink:href="#DejaVuSans-69" x="377.148438"/>
     <use xlink:href="#DejaVuSans-72" x="404.931641"/>
     <use xlink:href="#DejaVuSans-73" x="446.044922"/>
     <use xlink:href="#DejaVuSans-20" x="498.144531"/>
     <use xlink:href="#DejaVuSans-b7" x="529.931641"/>
     <use xlink:href="#DejaVuSans-20" x="561.71875"/>
     <use xlink:href="#DejaVuSans-31" x="593.505859"/>
     <use xlink:href="#DejaVuSans-20" x="657.128906"/>
     <use xlink:href="#DejaVuSans-69" x="688.916016"/>
     <use xlink:href="#DejaVuSans-6e" x="716.699219"/>
     <use xlink:href="#DejaVuSans-74" x="780.078125"/>
     <use xlink:href="#DejaVuSans-65" x="819.287109"/>
     <use xlink:href="#DejaVuSans-72" x="880.810547"/>
     <use xlink:href="#DejaVuSans-61" x="921.923828"/>
     <use xlink:href="#DejaVuSans-63" x="983.203125"/>
     <use xlink:href="#DejaVuSans-74" x="1038.183594"/>
     <use xlink:href="#DejaVuSans-69" x="1077.392578"/>
     <use xlink:href="#DejaVuSans-6f" x="1105.175781"/>
     <use xlink:href="#DejaVuSans-6e" x="1166.357422"/>
     <use xlink:href="#DejaVuSans-73" x="1229.736328"/>
    </g>
   </g>
  </g>
  <g id="text_34">
   <!-- Upregulated in PPD -->
   <g style="fill: #d62728" transform="translate(20.598281 292.689766) rotate(-90) scale(0.11 -0.11)">
    <defs>
     <path id="DejaVuSans-Bold-55" d="M 588 4666 
L 1791 4666 
L 1791 1869 
Q 1791 1291 1980 1042 
Q 2169 794 2597 794 
Q 3028 794 3217 1042 
Q 3406 1291 3406 1869 
L 3406 4666 
L 4609 4666 
L 4609 1869 
Q 4609 878 4112 393 
Q 3616 -91 2597 -91 
Q 1581 -91 1084 393 
Q 588 878 588 1869 
L 588 4666 
z
" transform="scale(0.015625)"/>
     <path id="DejaVuSans-Bold-50" d="M 588 4666 
L 2584 4666 
Q 3475 4666 3951 4270 
Q 4428 3875 4428 3144 
Q 4428 2409 3951 2014 
Q 3475 1619 2584 1619 
L 1791 1619 
L 1791 0 
L 588 0 
L 588 4666 
z
M 1791 3794 
L 1791 2491 
L 2456 2491 
Q 2806 2491 2997 2661 
Q 3188 2831 3188 3144 
Q 3188 3456 2997 3625 
Q 2806 3794 2456 3794 
L 1791 3794 
z
" transform="scale(0.015625)"/>
     <path id="DejaVuSans-Bold-44" d="M 1791 3756 
L 1791 909 
L 2222 909 
Q 2959 909 3348 1275 
Q 3738 1641 3738 2338 
Q 3738 3031 3350 3393 
Q 2963 3756 2222 3756 
L 1791 3756 
z
M 588 4666 
L 1856 4666 
Q 2919 4666 3439 4514 
Q 3959 4363 4331 4000 
Q 4659 3684 4818 3271 
Q 4978 2859 4978 2338 
Q 4978 1809 4818 1395 
Q 4659 981 4331 666 
Q 3956 303 3431 151 
Q 2906 0 1856 0 
L 588 0 
L 588 4666 
z
" transform="scale(0.015625)"/>
    </defs>
    <use xlink:href="#DejaVuSans-Bold-55"/>
    <use xlink:href="#DejaVuSans-Bold-70" x="81.201172"/>
    <use xlink:href="#DejaVuSans-Bold-72" x="152.783203"/>
    <use xlink:href="#DejaVuSans-Bold-65" x="202.099609"/>
    <use xlink:href="#DejaVuSans-Bold-67" x="269.921875"/>
    <use xlink:href="#DejaVuSans-Bold-75" x="341.503906"/>
    <use xlink:href="#DejaVuSans-Bold-6c" x="412.695312"/>
    <use xlink:href="#DejaVuSans-Bold-61" x="446.972656"/>
    <use xlink:href="#DejaVuSans-Bold-74" x="514.453125"/>
    <use xlink:href="#DejaVuSans-Bold-65" x="562.255859"/>
    <use xlink:href="#DejaVuSans-Bold-64" x="630.078125"/>
    <use xlink:href="#DejaVuSans-Bold-20" x="701.660156"/>
    <use xlink:href="#DejaVuSans-Bold-69" x="736.474609"/>
    <use xlink:href="#DejaVuSans-Bold-6e" x="770.751953"/>
    <use xlink:href="#DejaVuSans-Bold-20" x="841.943359"/>
    <use xlink:href="#DejaVuSans-Bold-50" x="876.757812"/>
    <use xlink:href="#DejaVuSans-Bold-50" x="950.048828"/>
    <use xlink:href="#DejaVuSans-Bold-44" x="1023.339844"/>
   </g>
  </g>
  <g id="text_35">
   <!-- Downregulated in PPD -->
   <g style="fill: #1f77b4" transform="translate(20.598281 733.628125) rotate(-90) scale(0.11 -0.11)">
    <use xlink:href="#DejaVuSans-Bold-44"/>
    <use xlink:href="#DejaVuSans-Bold-6f" x="83.007812"/>
    <use xlink:href="#DejaVuSans-Bold-77" x="151.708984"/>
    <use xlink:href="#DejaVuSans-Bold-6e" x="244.091797"/>
    <use xlink:href="#DejaVuSans-Bold-72" x="315.283203"/>
    <use xlink:href="#DejaVuSans-Bold-65" x="364.599609"/>
    <use xlink:href="#DejaVuSans-Bold-67" x="432.421875"/>
    <use xlink:href="#DejaVuSans-Bold-75" x="504.003906"/>
    <use xlink:href="#DejaVuSans-Bold-6c" x="575.195312"/>
    <use xlink:href="#DejaVuSans-Bold-61" x="609.472656"/>
    <use xlink:href="#DejaVuSans-Bold-74" x="676.953125"/>
    <use xlink:href="#DejaVuSans-Bold-65" x="724.755859"/>
    <use xlink:href="#DejaVuSans-Bold-64" x="792.578125"/>
    <use xlink:href="#DejaVuSans-Bold-20" x="864.160156"/>
    <use xlink:href="#DejaVuSans-Bold-69" x="898.974609"/>
    <use xlink:href="#DejaVuSans-Bold-6e" x="933.251953"/>
    <use xlink:href="#DejaVuSans-Bold-20" x="1004.443359"/>
    <use xlink:href="#DejaVuSans-Bold-50" x="1039.257812"/>
    <use xlink:href="#DejaVuSans-Bold-50" x="1112.548828"/>
    <use xlink:href="#DejaVuSans-Bold-44" x="1185.839844"/>
   </g>
  </g>
  <g id="text_36">
   <!-- Hippocampal neuron ↔ glia cell-cell communication  (LIANA+, padj &lt; 0.05) -->
   <g transform="translate(515.677266 17.077969) scale(0.13 -0.13)">
    <defs>
     <path id="DejaVuSans-Bold-48" d="M 588 4666 
L 1791 4666 
L 1791 2888 
L 3566 2888 
L 3566 4666 
L 4769 4666 
L 4769 0 
L 3566 0 
L 3566 1978 
L 1791 1978 
L 1791 0 
L 588 0 
L 588 4666 
z
" transform="scale(0.015625)"/>
     <path id="DejaVuSans-Bold-2194" d="M 313 1788 
L 313 2225 
L 1541 3453 
L 1994 3000 
L 1375 2381 
L 3988 2381 
L 3369 3000 
L 3822 3453 
L 5050 2225 
L 5050 1788 
L 3822 559 
L 3369 1013 
L 3988 1631 
L 1375 1631 
L 1994 1013 
L 1541 559 
L 313 1788 
z
" transform="scale(0.015625)"/>
     <path id="DejaVuSans-Bold-2d" d="M 347 2297 
L 2309 2297 
L 2309 1388 
L 347 1388 
L 347 2297 
z
" transform="scale(0.015625)"/>
     <path id="DejaVuSans-Bold-28" d="M 2413 -844 
L 1484 -844 
Q 1006 -72 778 623 
Q 550 1319 550 2003 
Q 550 2688 779 3389 
Q 1009 4091 1484 4856 
L 2413 4856 
Q 2013 4116 1813 3408 
Q 1613 2700 1613 2009 
Q 1613 1319 1811 609 
Q 2009 -100 2413 -844 
z
" transform="scale(0.015625)"/>
     <path id="DejaVuSans-Bold-4c" d="M 588 4666 
L 1791 4666 
L 1791 909 
L 3903 909 
L 3903 0 
L 588 0 
L 588 4666 
z
" transform="scale(0.015625)"/>
     <path id="DejaVuSans-Bold-2b" d="M 3053 4013 
L 3053 2375 
L 4684 2375 
L 4684 1638 
L 3053 1638 
L 3053 0 
L 2309 0 
L 2309 1638 
L 678 1638 
L 678 2375 
L 2309 2375 
L 2309 4013 
L 3053 4013 
z
" transform="scale(0.015625)"/>
     <path id="DejaVuSans-Bold-2c" d="M 653 1209 
L 1778 1209 
L 1778 256 
L 1006 -909 
L 341 -909 
L 653 256 
L 653 1209 
z
" transform="scale(0.015625)"/>
     <path id="DejaVuSans-Bold-6a" d="M 538 3500 
L 1656 3500 
L 1656 63 
Q 1656 -641 1318 -1011 
Q 981 -1381 341 -1381 
L -213 -1381 
L -213 -647 
L -19 -647 
Q 300 -647 419 -503 
Q 538 -359 538 63 
L 538 3500 
z
M 538 4863 
L 1656 4863 
L 1656 3950 
L 538 3950 
L 538 4863 
z
" transform="scale(0.015625)"/>
     <path id="DejaVuSans-Bold-3c" d="M 4684 3041 
L 1672 2003 
L 4684 972 
L 4684 191 
L 678 1638 
L 678 2375 
L 4684 3822 
L 4684 3041 
z
" transform="scale(0.015625)"/>
     <path id="DejaVuSans-Bold-30" d="M 2944 2338 
Q 2944 3213 2780 3570 
Q 2616 3928 2228 3928 
Q 1841 3928 1675 3570 
Q 1509 3213 1509 2338 
Q 1509 1453 1675 1090 
Q 1841 728 2228 728 
Q 2613 728 2778 1090 
Q 2944 1453 2944 2338 
z
M 4147 2328 
Q 4147 1169 3647 539 
Q 3147 -91 2228 -91 
Q 1306 -91 806 539 
Q 306 1169 306 2328 
Q 306 3491 806 4120 
Q 1306 4750 2228 4750 
Q 3147 4750 3647 4120 
Q 4147 3491 4147 2328 
z
" transform="scale(0.015625)"/>
     <path id="DejaVuSans-Bold-2e" d="M 653 1209 
L 1778 1209 
L 1778 0 
L 653 0 
L 653 1209 
z
" transform="scale(0.015625)"/>
     <path id="DejaVuSans-Bold-35" d="M 678 4666 
L 3669 4666 
L 3669 3781 
L 1638 3781 
L 1638 3059 
Q 1775 3097 1914 3117 
Q 2053 3138 2203 3138 
Q 3056 3138 3531 2711 
Q 4006 2284 4006 1522 
Q 4006 766 3489 337 
Q 2972 -91 2053 -91 
Q 1656 -91 1267 -14 
Q 878 63 494 219 
L 494 1166 
Q 875 947 1217 837 
Q 1559 728 1863 728 
Q 2300 728 2551 942 
Q 2803 1156 2803 1522 
Q 2803 1891 2551 2103 
Q 2300 2316 1863 2316 
Q 1603 2316 1309 2248 
Q 1016 2181 678 2041 
L 678 4666 
z
" transform="scale(0.015625)"/>
     <path id="DejaVuSans-Bold-29" d="M 513 -844 
Q 913 -100 1113 609 
Q 1313 1319 1313 2009 
Q 1313 2700 1113 3408 
Q 913 4116 513 4856 
L 1441 4856 
Q 1916 4091 2145 3389 
Q 2375 2688 2375 2003 
Q 2375 1319 2147 623 
Q 1919 -72 1441 -844 
L 513 -844 
z
" transform="scale(0.015625)"/>
    </defs>
    <use xlink:href="#DejaVuSans-Bold-48"/>
    <use xlink:href="#DejaVuSans-Bold-69" x="83.691406"/>
    <use xlink:href="#DejaVuSans-Bold-70" x="117.96875"/>
    <use xlink:href="#DejaVuSans-Bold-70" x="189.550781"/>
    <use xlink:href="#DejaVuSans-Bold-6f" x="261.132812"/>
    <use xlink:href="#DejaVuSans-Bold-63" x="329.833984"/>
    <use xlink:href="#DejaVuSans-Bold-61" x="389.111328"/>
    <use xlink:href="#DejaVuSans-Bold-6d" x="456.591797"/>
    <use xlink:href="#DejaVuSans-Bold-70" x="560.791016"/>
    <use xlink:href="#DejaVuSans-Bold-61" x="632.373047"/>
    <use xlink:href="#DejaVuSans-Bold-6c" x="699.853516"/>
    <use xlink:href="#DejaVuSans-Bold-20" x="734.130859"/>
    <use xlink:href="#DejaVuSans-Bold-6e" x="768.945312"/>
    <use xlink:href="#DejaVuSans-Bold-65" x="840.136719"/>
    <use xlink:href="#DejaVuSans-Bold-75" x="907.958984"/>
    <use xlink:href="#DejaVuSans-Bold-72" x="979.150391"/>
    <use xlink:href="#DejaVuSans-Bold-6f" x="1028.466797"/>
    <use xlink:href="#DejaVuSans-Bold-6e" x="1097.167969"/>
    <use xlink:href="#DejaVuSans-Bold-20" x="1168.359375"/>
    <use xlink:href="#DejaVuSans-Bold-2194" x="1203.173828"/>
    <use xlink:href="#DejaVuSans-Bold-20" x="1286.962891"/>
    <use xlink:href="#DejaVuSans-Bold-67" x="1321.777344"/>
    <use xlink:href="#DejaVuSans-Bold-6c" x="1393.359375"/>
    <use xlink:href="#DejaVuSans-Bold-69" x="1427.636719"/>
    <use xlink:href="#DejaVuSans-Bold-61" x="1461.914062"/>
    <use xlink:href="#DejaVuSans-Bold-20" x="1529.394531"/>
    <use xlink:href="#DejaVuSans-Bold-63" x="1564.208984"/>
    <use xlink:href="#DejaVuSans-Bold-65" x="1623.486328"/>
    <use xlink:href="#DejaVuSans-Bold-6c" x="1691.308594"/>
    <use xlink:href="#DejaVuSans-Bold-6c" x="1725.585938"/>
    <use xlink:href="#DejaVuSans-Bold-2d" x="1759.863281"/>
    <use xlink:href="#DejaVuSans-Bold-63" x="1801.367188"/>
    <use xlink:href="#DejaVuSans-Bold-65" x="1860.644531"/>
    <use xlink:href="#DejaVuSans-Bold-6c" x="1928.466797"/>
    <use xlink:href="#DejaVuSans-Bold-6c" x="1962.744141"/>
    <use xlink:href="#DejaVuSans-Bold-20" x="1997.021484"/>
    <use xlink:href="#DejaVuSans-Bold-63" x="2031.835938"/>
    <use xlink:href="#DejaVuSans-Bold-6f" x="2091.113281"/>
    <use xlink:href="#DejaVuSans-Bold-6d" x="2159.814453"/>
    <use xlink:href="#DejaVuSans-Bold-6d" x="2264.013672"/>
    <use xlink:href="#DejaVuSans-Bold-75" x="2368.212891"/>
    <use xlink:href="#DejaVuSans-Bold-6e" x="2439.404297"/>
    <use xlink:href="#DejaVuSans-Bold-69" x="2510.595703"/>
    <use xlink:href="#DejaVuSans-Bold-63" x="2544.873047"/>
    <use xlink:href="#DejaVuSans-Bold-61" x="2604.150391"/>
    <use xlink:href="#DejaVuSans-Bold-74" x="2671.630859"/>
    <use xlink:href="#DejaVuSans-Bold-69" x="2719.433594"/>
    <use xlink:href="#DejaVuSans-Bold-6f" x="2753.710938"/>
    <use xlink:href="#DejaVuSans-Bold-6e" x="2822.412109"/>
    <use xlink:href="#DejaVuSans-Bold-20" x="2893.603516"/>
    <use xlink:href="#DejaVuSans-Bold-20" x="2928.417969"/>
    <use xlink:href="#DejaVuSans-Bold-28" x="2963.232422"/>
    <use xlink:href="#DejaVuSans-Bold-4c" x="3008.935547"/>
    <use xlink:href="#DejaVuSans-Bold-49" x="3072.65625"/>
    <use xlink:href="#DejaVuSans-Bold-41" x="3109.863281"/>
    <use xlink:href="#DejaVuSans-Bold-4e" x="3187.255859"/>
    <use xlink:href="#DejaVuSans-Bold-41" x="3270.947266"/>
    <use xlink:href="#DejaVuSans-Bold-2b" x="3348.339844"/>
    <use xlink:href="#DejaVuSans-Bold-2c" x="3432.128906"/>
    <use xlink:href="#DejaVuSans-Bold-20" x="3470.117188"/>
    <use xlink:href="#DejaVuSans-Bold-70" x="3504.931641"/>
    <use xlink:href="#DejaVuSans-Bold-61" x="3576.513672"/>
    <use xlink:href="#DejaVuSans-Bold-64" x="3643.994141"/>
    <use xlink:href="#DejaVuSans-Bold-6a" x="3715.576172"/>
    <use xlink:href="#DejaVuSans-Bold-20" x="3749.853516"/>
    <use xlink:href="#DejaVuSans-Bold-3c" x="3784.667969"/>
    <use xlink:href="#DejaVuSans-Bold-20" x="3868.457031"/>
    <use xlink:href="#DejaVuSans-Bold-30" x="3903.271484"/>
    <use xlink:href="#DejaVuSans-Bold-2e" x="3972.851562"/>
    <use xlink:href="#DejaVuSans-Bold-30" x="4010.839844"/>
    <use xlink:href="#DejaVuSans-Bold-35" x="4080.419922"/>
    <use xlink:href="#DejaVuSans-Bold-29" x="4150"/>
   </g>
  </g>
 </g>
 <defs>
  <clipPath id="pf3d0e311ed">
   <rect x="7.2" y="74.468674" width="368.1" height="368.1"/>
  </clipPath>
  <clipPath id="pe164b62797">
   <rect x="803.4" y="74.468674" width="368.1" height="368.1"/>
  </clipPath>
  <clipPath id="p8ed9d40e7e">
   <rect x="1201.5" y="74.468674" width="368.1" height="368.1"/>
  </clipPath>
  <clipPath id="pd5e390c263">
   <rect x="7.2" y="487.961225" width="368.1" height="368.1"/>
  </clipPath>
  <clipPath id="p778dba8418">
   <rect x="405.3" y="487.961225" width="368.1" height="368.1"/>
  </clipPath>
  <clipPath id="p6fb5dc1dd6">
   <rect x="803.4" y="487.961225" width="368.1" height="368.1"/>
  </clipPath>
  <clipPath id="pf9fc4effed">
   <rect x="1201.5" y="487.961225" width="368.1" height="368.1"/>
  </clipPath>
 </defs>
</svg>
