<?xml version="1.0" encoding="utf-8" standalone="no"?>
<!DOCTYPE svg PUBLIC "-//W3C//DTD SVG 1.1//EN"
  "http://www.w3.org/Graphics/SVG/1.1/DTD/svg11.dtd">
<svg xmlns:xlink="http://www.w3.org/1999/xlink" width="1553.8675pt" height="445.623422pt" viewBox="0 0 1553.8675 445.623422" xmlns="http://www.w3.org/2000/svg" version="1.1">
 <metadata>
  <rdf:RDF xmlns:dc="http://purl.org/dc/elements/1.1/" xmlns:cc="http://creativecommons.org/ns#" xmlns:rdf="http://www.w3.org/1999/02/22-rdf-syntax-ns#">
   <cc:Work>
    <dc:type rdf:resource="http://purl.org/dc/dcmitype/StillImage"/>
    <dc:date>2026-05-03T14:27:43.872741</dc:date>
    <dc:format>image/svg+xml</dc:format>
    <dc:creator>
     <cc:Agent>
      <dc:title>Matplotlib v3.9.4, https://matplotlib.org/</dc:title>
     </cc:Agent>
    </dc:creator>
   </cc:Work>
  </rdf:RDF>
 </metadata>
 <defs>
  <style type="text/css">*{stroke-linejoin: round; stroke-linecap: butt}</style>
 </defs>
 <g id="figure_1">
  <g id="patch_1">
   <path d="M 0 445.623422 
L 1553.8675 445.623422 
L 1553.8675 0 
L 0 0 
z
" style="fill: #ffffff"/>
  </g>
  <g id="axes_1">
   <g id="patch_2">
    <path d="M 336.678068 247.2295 
C 336.678068 217.509391 328.236662 188.400553 312.336474 163.291413 
L 312.336474 163.291413 
C 296.436286 138.182273 273.731375 118.1057 246.864715 105.398716 
L 246.864715 105.398716 
C 219.998054 92.691732 190.074811 87.877041 160.578211 91.5151 
L 160.578211 91.5151 
C 131.08161 95.153159 103.225003 107.094314 80.251048 125.948552 
L 86.22301 133.225409 
C 107.818528 115.502425 134.003739 104.277739 161.730543 100.857964 
L 161.730543 100.857964 
C 189.457347 97.438189 217.585196 101.963998 242.839857 113.908563 
L 242.839857 113.908563 
C 268.094518 125.853128 289.437134 144.725107 304.383311 168.327698 
L 304.383311 168.327698 
C 319.329487 191.93029 327.264409 219.292597 327.264409 247.2295 
z
" clip-path="url(#p54c38c0eda)" style="fill: #0f3466; opacity: 0.72; stroke: #0f3466; stroke-width: 0.3; stroke-linejoin: miter"/>
   </g>
   <g id="patch_3">
    <path d="M 75.055581 130.40554 
C 67.722648 136.979231 61.024937 144.228739 55.051115 152.058092 
L 55.051115 152.058092 
C 49.077294 159.887444 43.853899 168.261861 39.450082 177.070476 
L 39.450082 177.070476 
C 35.046264 185.879091 31.481587 195.082775 28.803242 204.559682 
L 28.803242 204.559682 
C 26.124897 214.03659 24.344782 223.744622 23.486462 233.555259 
L 32.864299 234.375714 
C 33.67112 225.153715 35.344428 216.028164 37.862073 207.119871 
L 37.862073 207.119871 
C 40.379717 198.211578 43.730514 189.560116 47.870102 181.280018 
L 47.870102 181.280018 
C 52.00969 172.99992 56.919681 165.127968 62.535073 157.768376 
L 62.535073 157.768376 
C 68.150466 150.408785 74.446314 143.594247 81.339271 137.414978 
z
" clip-path="url(#p54c38c0eda)" style="fill: #cc2400; opacity: 0.72; stroke: #cc2400; stroke-width: 0.3; stroke-linejoin: miter"/>
   </g>
   <g id="patch_4">
    <path d="M 84.481116 140.919696 
C 77.808147 146.901755 71.71323 153.498808 66.277052 160.623519 
L 66.277052 160.623519 
C 60.840875 167.748229 56.087586 175.368949 52.080112 183.384788 
L 52.080112 183.384788 
C 48.072638 191.400628 44.828782 199.77598 42.391488 208.399966 
L 42.391488 208.399966 
C 39.954194 217.023952 38.334289 225.858261 37.553218 234.785941 
C 130.003064 242.874254 178.693642 297.188449 176.771834 385.263644 
L 229.346294 381.124685 
L 271.944539 350.034585 
C 213.139672 284.437931 146.427828 210.021069 84.481116 140.919696 
" clip-path="url(#p54c38c0eda)" style="fill: #cc2400; opacity: 0.72; stroke: #cc2400; stroke-width: 0.3; stroke-linejoin: miter"/>
   </g>
   <g id="patch_5">
    <path d="M 23.03876 240.385866 
C 22.609192 250.224605 23.106926 260.081935 24.525373 269.827361 
L 24.525373 269.827361 
C 25.943819 279.572786 28.276678 289.163014 31.493065 298.471084 
L 31.493065 298.471084 
C 34.709452 307.779154 38.79508 316.763716 43.695859 325.305828 
L 43.695859 325.305828 
C 48.596638 333.847939 54.290799 341.909654 60.702958 349.384246 
L 67.847806 343.254961 
C 61.820376 336.228845 56.467865 328.650833 51.861132 320.621248 
L 51.861132 320.621248 
C 47.2544 312.591663 43.41391 304.146175 40.390506 295.396589 
L 40.390506 295.396589 
C 37.367103 286.647004 35.174215 277.632189 33.840875 268.471489 
L 33.840875 268.471489 
C 32.507535 259.310789 32.039665 250.044898 32.44346 240.796484 
z
" clip-path="url(#p54c38c0eda)" style="fill: #3dccb1; opacity: 0.72; stroke: #3dccb1; stroke-width: 0.3; stroke-linejoin: miter"/>
   </g>
   <g id="patch_6">
    <path d="M 37.14581 241.001793 
C 36.754902 249.955045 37.20784 258.925216 38.498627 267.793553 
L 38.498627 267.793553 
C 39.789413 276.66189 41.912315 285.388998 44.839227 293.859342 
L 44.839227 293.859342 
C 47.766139 302.329685 51.48406 310.505637 55.943769 318.278958 
L 55.943769 318.278958 
C 60.403478 326.05228 65.585164 333.38844 71.420229 340.190319 
C 141.856518 279.765786 183.051999 197.365651 188.813764 109.458112 
L 136.108804 111.299866 
L 92.194972 140.502266 
C 148.082584 208.601518 129.860471 245.049803 37.14581 241.001793 
" clip-path="url(#p54c38c0eda)" style="fill: #3dccb1; opacity: 0.72; stroke: #3dccb1; stroke-width: 0.3; stroke-linejoin: miter"/>
   </g>
   <g id="patch_7">
    <path d="M 65.272224 354.481248 
C 72.004317 361.669031 79.398211 368.207001 87.356018 374.008605 
L 87.356018 374.008605 
C 95.313826 379.810209 103.800198 384.849673 112.702785 389.060284 
L 112.702785 389.060284 
C 121.605373 393.270894 130.884629 396.633946 140.417709 399.104916 
L 140.417709 399.104916 
C 149.950789 401.575886 159.695344 403.143798 169.522371 403.787895 
L 170.138053 394.394392 
C 160.900649 393.78894 151.740767 392.315103 142.779671 389.992391 
L 142.779671 389.992391 
C 133.818576 387.669679 125.096075 384.50841 116.727643 380.550437 
L 116.727643 380.550437 
C 108.359211 376.592463 100.382021 371.855366 92.901682 366.401859 
L 92.901682 366.401859 
C 85.421343 360.948351 78.471083 354.802659 72.142916 348.046143 
z
" clip-path="url(#p54c38c0eda)" style="fill: #99ffbc; opacity: 0.72; stroke: #99ffbc; stroke-width: 0.3; stroke-linejoin: miter"/>
   </g>
   <g id="patch_8">
    <path d="M 75.578261 344.828591 
C 81.704466 351.369473 88.432909 357.319026 95.674514 362.598486 
L 95.674514 362.598486 
C 102.916119 367.877945 110.638717 372.463858 118.740072 376.295513 
L 118.740072 376.295513 
C 126.841427 380.127169 135.28555 383.187545 143.960653 385.436128 
L 143.960653 385.436128 
C 152.635755 387.684711 161.503301 389.111511 170.445895 389.69764 
C 176.515501 297.093349 216.255671 213.069818 280.553893 152.847962 
L 240.827428 118.163487 
L 188.813764 109.458112 
C 183.051999 197.365651 143.311829 281.389182 75.578261 344.828591 
" clip-path="url(#p54c38c0eda)" style="fill: #99ffbc; opacity: 0.72; stroke: #99ffbc; stroke-width: 0.3; stroke-linejoin: miter"/>
   </g>
   <g id="patch_9">
    <path d="M 176.361118 404.086482 
C 186.206887 404.301317 196.051014 403.588665 205.763177 401.95796 
L 205.763177 401.95796 
C 215.47534 400.327256 225.012395 397.785742 234.248084 394.367066 
L 234.248084 394.367066 
C 243.483774 390.94839 252.377071 386.667738 260.810239 381.58178 
L 260.810239 381.58178 
C 269.243408 376.495822 277.178987 370.627151 284.511919 364.05346 
L 278.228229 357.044022 
C 271.335273 363.223292 263.875829 368.739842 255.94865 373.520643 
L 255.94865 373.520643 
C 248.021471 378.301444 239.661772 382.325257 230.980224 385.538812 
L 230.980224 385.538812 
C 222.298676 388.752368 213.333844 391.14139 204.204411 392.674253 
L 204.204411 392.674253 
C 195.074978 394.207115 185.821498 394.877008 176.566476 394.675063 
z
" clip-path="url(#p54c38c0eda)" style="fill: #994567; opacity: 0.72; stroke: #994567; stroke-width: 0.3; stroke-linejoin: miter"/>
   </g>
   <g id="patch_10">
    <path d="M 289.508031 359.374091 
C 296.547244 352.486799 302.922361 344.95204 308.548985 336.869565 
L 308.548985 336.869565 
C 314.17561 328.78709 319.028746 320.192802 323.044145 311.200479 
L 323.044145 311.200479 
C 327.059545 302.208156 330.21937 292.857743 332.481789 283.273028 
L 332.481789 283.273028 
C 334.744208 273.688313 336.099171 263.911873 336.52874 254.073134 
L 327.12404 253.662516 
C 326.720246 262.91093 325.446581 272.100784 323.319907 281.110417 
L 323.319907 281.110417 
C 321.193233 290.120049 318.222997 298.909437 314.448522 307.36222 
L 314.448522 307.36222 
C 310.674046 315.815004 306.112098 323.893634 300.823071 331.491161 
L 300.823071 331.491161 
C 295.534044 339.088688 289.541434 346.171361 282.924574 352.645415 
z
" clip-path="url(#p54c38c0eda)" style="fill: #cc1f4e; opacity: 0.72; stroke: #cc1f4e; stroke-width: 0.3; stroke-linejoin: miter"/>
   </g>
   <g id="patch_11">
    <path d="M 279.632846 349.281078 
C 286.038529 343.013642 291.839886 336.157012 296.960114 328.801959 
L 296.960114 328.801959 
C 302.080342 321.446907 306.496696 313.626105 310.15071 305.443091 
L 310.15071 305.443091 
C 313.804723 297.260077 316.680164 288.751202 318.738966 280.029111 
L 318.738966 280.029111 
C 320.797767 271.30702 322.030783 262.410459 322.42169 253.457207 
C 289.971559 252.040404 290.076533 247.2295 317.85075 247.2295 
L 312.565871 194.757842 
L 280.553893 152.847962 
C 216.255671 213.069818 214.730933 282.947552 279.632846 349.281078 
" clip-path="url(#p54c38c0eda)" style="fill: #cc1f4e; opacity: 0.72; stroke: #cc1f4e; stroke-width: 0.3; stroke-linejoin: miter"/>
   </g>
   <g id="text_1">
    <!-- CA1-ProS -->
    <g transform="translate(238.276796 91.278707) rotate(-334.6875) scale(0.06 -0.06)">
     <defs>
      <path id="DejaVuSans-43" d="M 4122 4306 
L 4122 3641 
Q 3803 3938 3442 4084 
Q 3081 4231 2675 4231 
Q 1875 4231 1450 3742 
Q 1025 3253 1025 2328 
Q 1025 1406 1450 917 
Q 1875 428 2675 428 
Q 3081 428 3442 575 
Q 3803 722 4122 1019 
L 4122 359 
Q 3791 134 3420 21 
Q 3050 -91 2638 -91 
Q 1578 -91 968 557 
Q 359 1206 359 2328 
Q 359 3453 968 4101 
Q 1578 4750 2638 4750 
Q 3056 4750 3426 4639 
Q 3797 4528 4122 4306 
z
" transform="scale(0.015625)"/>
      <path id="DejaVuSans-41" d="M 2188 4044 
L 1331 1722 
L 3047 1722 
L 2188 4044 
z
M 1831 4666 
L 2547 4666 
L 4325 0 
L 3669 0 
L 3244 1197 
L 1141 1197 
L 716 0 
L 50 0 
L 1831 4666 
z
" transform="scale(0.015625)"/>
      <path id="DejaVuSans-31" d="M 794 531 
L 1825 531 
L 1825 4091 
L 703 3866 
L 703 4441 
L 1819 4666 
L 2450 4666 
L 2450 531 
L 3481 531 
L 3481 0 
L 794 0 
L 794 531 
z
" transform="scale(0.015625)"/>
      <path id="DejaVuSans-2d" d="M 313 2009 
L 1997 2009 
L 1997 1497 
L 313 1497 
L 313 2009 
z
" transform="scale(0.015625)"/>
      <path id="DejaVuSans-50" d="M 1259 4147 
L 1259 2394 
L 2053 2394 
Q 2494 2394 2734 2622 
Q 2975 2850 2975 3272 
Q 2975 3691 2734 3919 
Q 2494 4147 2053 4147 
L 1259 4147 
z
M 628 4666 
L 2053 4666 
Q 2838 4666 3239 4311 
Q 3641 3956 3641 3272 
Q 3641 2581 3239 2228 
Q 2838 1875 2053 1875 
L 1259 1875 
L 1259 0 
L 628 0 
L 628 4666 
z
" transform="scale(0.015625)"/>
      <path id="DejaVuSans-72" d="M 2631 2963 
Q 2534 3019 2420 3045 
Q 2306 3072 2169 3072 
Q 1681 3072 1420 2755 
Q 1159 2438 1159 1844 
L 1159 0 
L 581 0 
L 581 3500 
L 1159 3500 
L 1159 2956 
Q 1341 3275 1631 3429 
Q 1922 3584 2338 3584 
Q 2397 3584 2469 3576 
Q 2541 3569 2628 3553 
L 2631 2963 
z
" transform="scale(0.015625)"/>
      <path id="DejaVuSans-6f" d="M 1959 3097 
Q 1497 3097 1228 2736 
Q 959 2375 959 1747 
Q 959 1119 1226 758 
Q 1494 397 1959 397 
Q 2419 397 2687 759 
Q 2956 1122 2956 1747 
Q 2956 2369 2687 2733 
Q 2419 3097 1959 3097 
z
M 1959 3584 
Q 2709 3584 3137 3096 
Q 3566 2609 3566 1747 
Q 3566 888 3137 398 
Q 2709 -91 1959 -91 
Q 1206 -91 779 398 
Q 353 888 353 1747 
Q 353 2609 779 3096 
Q 1206 3584 1959 3584 
z
" transform="scale(0.015625)"/>
      <path id="DejaVuSans-53" d="M 3425 4513 
L 3425 3897 
Q 3066 4069 2747 4153 
Q 2428 4238 2131 4238 
Q 1616 4238 1336 4038 
Q 1056 3838 1056 3469 
Q 1056 3159 1242 3001 
Q 1428 2844 1947 2747 
L 2328 2669 
Q 3034 2534 3370 2195 
Q 3706 1856 3706 1288 
Q 3706 609 3251 259 
Q 2797 -91 1919 -91 
Q 1588 -91 1214 -16 
Q 841 59 441 206 
L 441 856 
Q 825 641 1194 531 
Q 1563 422 1919 422 
Q 2459 422 2753 634 
Q 3047 847 3047 1241 
Q 3047 1584 2836 1778 
Q 2625 1972 2144 2069 
L 1759 2144 
Q 1053 2284 737 2584 
Q 422 2884 422 3419 
Q 422 4038 858 4394 
Q 1294 4750 2059 4750 
Q 2388 4750 2728 4690 
Q 3069 4631 3425 4513 
z
" transform="scale(0.015625)"/>
     </defs>
     <use xlink:href="#DejaVuSans-43"/>
     <use xlink:href="#DejaVuSans-41" x="69.824219"/>
     <use xlink:href="#DejaVuSans-31" x="138.232422"/>
     <use xlink:href="#DejaVuSans-2d" x="201.855469"/>
     <use xlink:href="#DejaVuSans-50" x="237.939453"/>
     <use xlink:href="#DejaVuSans-72" x="296.492188"/>
     <use xlink:href="#DejaVuSans-6f" x="335.355469"/>
     <use xlink:href="#DejaVuSans-53" x="396.537109"/>
    </g>
   </g>
   <g id="text_2">
    <!-- DG -->
    <g transform="translate(29.244855 177.149879) rotate(-63.4375) scale(0.06 -0.06)">
     <defs>
      <path id="DejaVuSans-44" d="M 1259 4147 
L 1259 519 
L 2022 519 
Q 2988 519 3436 956 
Q 3884 1394 3884 2338 
Q 3884 3275 3436 3711 
Q 2988 4147 2022 4147 
L 1259 4147 
z
M 628 4666 
L 1925 4666 
Q 3281 4666 3915 4102 
Q 4550 3538 4550 2338 
Q 4550 1131 3912 565 
Q 3275 0 1925 0 
L 628 0 
L 628 4666 
z
" transform="scale(0.015625)"/>
      <path id="DejaVuSans-47" d="M 3809 666 
L 3809 1919 
L 2778 1919 
L 2778 2438 
L 4434 2438 
L 4434 434 
Q 4069 175 3628 42 
Q 3188 -91 2688 -91 
Q 1594 -91 976 548 
Q 359 1188 359 2328 
Q 359 3472 976 4111 
Q 1594 4750 2688 4750 
Q 3144 4750 3555 4637 
Q 3966 4525 4313 4306 
L 4313 3634 
Q 3963 3931 3569 4081 
Q 3175 4231 2741 4231 
Q 1884 4231 1454 3753 
Q 1025 3275 1025 2328 
Q 1025 1384 1454 906 
Q 1884 428 2741 428 
Q 3075 428 3337 486 
Q 3600 544 3809 666 
z
" transform="scale(0.015625)"/>
     </defs>
     <use xlink:href="#DejaVuSans-44"/>
     <use xlink:href="#DejaVuSans-47" x="77.001953"/>
    </g>
   </g>
   <g id="text_3">
    <!-- Astro-TE -->
    <g transform="translate(15.724439 290.816013) rotate(-289.0625) scale(0.06 -0.06)">
     <defs>
      <path id="DejaVuSans-73" d="M 2834 3397 
L 2834 2853 
Q 2591 2978 2328 3040 
Q 2066 3103 1784 3103 
Q 1356 3103 1142 2972 
Q 928 2841 928 2578 
Q 928 2378 1081 2264 
Q 1234 2150 1697 2047 
L 1894 2003 
Q 2506 1872 2764 1633 
Q 3022 1394 3022 966 
Q 3022 478 2636 193 
Q 2250 -91 1575 -91 
Q 1294 -91 989 -36 
Q 684 19 347 128 
L 347 722 
Q 666 556 975 473 
Q 1284 391 1588 391 
Q 1994 391 2212 530 
Q 2431 669 2431 922 
Q 2431 1156 2273 1281 
Q 2116 1406 1581 1522 
L 1381 1569 
Q 847 1681 609 1914 
Q 372 2147 372 2553 
Q 372 3047 722 3315 
Q 1072 3584 1716 3584 
Q 2034 3584 2315 3537 
Q 2597 3491 2834 3397 
z
" transform="scale(0.015625)"/>
      <path id="DejaVuSans-74" d="M 1172 4494 
L 1172 3500 
L 2356 3500 
L 2356 3053 
L 1172 3053 
L 1172 1153 
Q 1172 725 1289 603 
Q 1406 481 1766 481 
L 2356 481 
L 2356 0 
L 1766 0 
Q 1100 0 847 248 
Q 594 497 594 1153 
L 594 3053 
L 172 3053 
L 172 3500 
L 594 3500 
L 594 4494 
L 1172 4494 
z
" transform="scale(0.015625)"/>
      <path id="DejaVuSans-54" d="M -19 4666 
L 3928 4666 
L 3928 4134 
L 2272 4134 
L 2272 0 
L 1638 0 
L 1638 4134 
L -19 4134 
L -19 4666 
z
" transform="scale(0.015625)"/>
      <path id="DejaVuSans-45" d="M 628 4666 
L 3578 4666 
L 3578 4134 
L 1259 4134 
L 1259 2753 
L 3481 2753 
L 3481 2222 
L 1259 2222 
L 1259 531 
L 3634 531 
L 3634 0 
L 628 0 
L 628 4666 
z
" transform="scale(0.015625)"/>
     </defs>
     <use xlink:href="#DejaVuSans-41"/>
     <use xlink:href="#DejaVuSans-73" x="68.408203"/>
     <use xlink:href="#DejaVuSans-74" x="120.507812"/>
     <use xlink:href="#DejaVuSans-72" x="159.716797"/>
     <use xlink:href="#DejaVuSans-6f" x="198.580078"/>
     <use xlink:href="#DejaVuSans-2d" x="261.636719"/>
     <use xlink:href="#DejaVuSans-54" x="288.595703"/>
     <use xlink:href="#DejaVuSans-45" x="349.679688"/>
    </g>
   </g>
   <g id="text_4">
    <!-- Oligo -->
    <g transform="translate(100.376761 396.951665) rotate(-334.6875) scale(0.06 -0.06)">
     <defs>
      <path id="DejaVuSans-4f" d="M 2522 4238 
Q 1834 4238 1429 3725 
Q 1025 3213 1025 2328 
Q 1025 1447 1429 934 
Q 1834 422 2522 422 
Q 3209 422 3611 934 
Q 4013 1447 4013 2328 
Q 4013 3213 3611 3725 
Q 3209 4238 2522 4238 
z
M 2522 4750 
Q 3503 4750 4090 4092 
Q 4678 3434 4678 2328 
Q 4678 1225 4090 567 
Q 3503 -91 2522 -91 
Q 1538 -91 948 565 
Q 359 1222 359 2328 
Q 359 3434 948 4092 
Q 1538 4750 2522 4750 
z
" transform="scale(0.015625)"/>
      <path id="DejaVuSans-6c" d="M 603 4863 
L 1178 4863 
L 1178 0 
L 603 0 
L 603 4863 
z
" transform="scale(0.015625)"/>
      <path id="DejaVuSans-69" d="M 603 3500 
L 1178 3500 
L 1178 0 
L 603 0 
L 603 3500 
z
M 603 4863 
L 1178 4863 
L 1178 4134 
L 603 4134 
L 603 4863 
z
" transform="scale(0.015625)"/>
      <path id="DejaVuSans-67" d="M 2906 1791 
Q 2906 2416 2648 2759 
Q 2391 3103 1925 3103 
Q 1463 3103 1205 2759 
Q 947 2416 947 1791 
Q 947 1169 1205 825 
Q 1463 481 1925 481 
Q 2391 481 2648 825 
Q 2906 1169 2906 1791 
z
M 3481 434 
Q 3481 -459 3084 -895 
Q 2688 -1331 1869 -1331 
Q 1566 -1331 1297 -1286 
Q 1028 -1241 775 -1147 
L 775 -588 
Q 1028 -725 1275 -790 
Q 1522 -856 1778 -856 
Q 2344 -856 2625 -561 
Q 2906 -266 2906 331 
L 2906 616 
Q 2728 306 2450 153 
Q 2172 0 1784 0 
Q 1141 0 747 490 
Q 353 981 353 1791 
Q 353 2603 747 3093 
Q 1141 3584 1784 3584 
Q 2172 3584 2450 3431 
Q 2728 3278 2906 2969 
L 2906 3500 
L 3481 3500 
L 3481 434 
z
" transform="scale(0.015625)"/>
     </defs>
     <use xlink:href="#DejaVuSans-4f"/>
     <use xlink:href="#DejaVuSans-6c" x="78.710938"/>
     <use xlink:href="#DejaVuSans-69" x="106.494141"/>
     <use xlink:href="#DejaVuSans-67" x="134.277344"/>
     <use xlink:href="#DejaVuSans-6f" x="197.753906"/>
    </g>
   </g>
   <g id="text_5">
    <!-- Endo -->
    <g transform="translate(231.485608 408.615901) rotate(-20.3125) scale(0.06 -0.06)">
     <defs>
      <path id="DejaVuSans-6e" d="M 3513 2113 
L 3513 0 
L 2938 0 
L 2938 2094 
Q 2938 2591 2744 2837 
Q 2550 3084 2163 3084 
Q 1697 3084 1428 2787 
Q 1159 2491 1159 1978 
L 1159 0 
L 581 0 
L 581 3500 
L 1159 3500 
L 1159 2956 
Q 1366 3272 1645 3428 
Q 1925 3584 2291 3584 
Q 2894 3584 3203 3211 
Q 3513 2838 3513 2113 
z
" transform="scale(0.015625)"/>
      <path id="DejaVuSans-64" d="M 2906 2969 
L 2906 4863 
L 3481 4863 
L 3481 0 
L 2906 0 
L 2906 525 
Q 2725 213 2448 61 
Q 2172 -91 1784 -91 
Q 1150 -91 751 415 
Q 353 922 353 1747 
Q 353 2572 751 3078 
Q 1150 3584 1784 3584 
Q 2172 3584 2448 3432 
Q 2725 3281 2906 2969 
z
M 947 1747 
Q 947 1113 1208 752 
Q 1469 391 1925 391 
Q 2381 391 2643 752 
Q 2906 1113 2906 1747 
Q 2906 2381 2643 2742 
Q 2381 3103 1925 3103 
Q 1469 3103 1208 2742 
Q 947 2381 947 1747 
z
" transform="scale(0.015625)"/>
     </defs>
     <use xlink:href="#DejaVuSans-45"/>
     <use xlink:href="#DejaVuSans-6e" x="63.183594"/>
     <use xlink:href="#DejaVuSans-64" x="126.5625"/>
     <use xlink:href="#DejaVuSans-6f" x="190.039062"/>
    </g>
   </g>
   <g id="text_6">
    <!-- Microglia -->
    <g transform="translate(328.872728 328.568938) rotate(-65.9375) scale(0.06 -0.06)">
     <defs>
      <path id="DejaVuSans-4d" d="M 628 4666 
L 1569 4666 
L 2759 1491 
L 3956 4666 
L 4897 4666 
L 4897 0 
L 4281 0 
L 4281 4097 
L 3078 897 
L 2444 897 
L 1241 4097 
L 1241 0 
L 628 0 
L 628 4666 
z
" transform="scale(0.015625)"/>
      <path id="DejaVuSans-63" d="M 3122 3366 
L 3122 2828 
Q 2878 2963 2633 3030 
Q 2388 3097 2138 3097 
Q 1578 3097 1268 2742 
Q 959 2388 959 1747 
Q 959 1106 1268 751 
Q 1578 397 2138 397 
Q 2388 397 2633 464 
Q 2878 531 3122 666 
L 3122 134 
Q 2881 22 2623 -34 
Q 2366 -91 2075 -91 
Q 1284 -91 818 406 
Q 353 903 353 1747 
Q 353 2603 823 3093 
Q 1294 3584 2113 3584 
Q 2378 3584 2631 3529 
Q 2884 3475 3122 3366 
z
" transform="scale(0.015625)"/>
      <path id="DejaVuSans-61" d="M 2194 1759 
Q 1497 1759 1228 1600 
Q 959 1441 959 1056 
Q 959 750 1161 570 
Q 1363 391 1709 391 
Q 2188 391 2477 730 
Q 2766 1069 2766 1631 
L 2766 1759 
L 2194 1759 
z
M 3341 1997 
L 3341 0 
L 2766 0 
L 2766 531 
Q 2569 213 2275 61 
Q 1981 -91 1556 -91 
Q 1019 -91 701 211 
Q 384 513 384 1019 
Q 384 1609 779 1909 
Q 1175 2209 1959 2209 
L 2766 2209 
L 2766 2266 
Q 2766 2663 2505 2880 
Q 2244 3097 1772 3097 
Q 1472 3097 1187 3025 
Q 903 2953 641 2809 
L 641 3341 
Q 956 3463 1253 3523 
Q 1550 3584 1831 3584 
Q 2591 3584 2966 3190 
Q 3341 2797 3341 1997 
z
" transform="scale(0.015625)"/>
     </defs>
     <use xlink:href="#DejaVuSans-4d"/>
     <use xlink:href="#DejaVuSans-69" x="86.279297"/>
     <use xlink:href="#DejaVuSans-63" x="114.0625"/>
     <use xlink:href="#DejaVuSans-72" x="169.042969"/>
     <use xlink:href="#DejaVuSans-6f" x="207.90625"/>
     <use xlink:href="#DejaVuSans-67" x="269.087891"/>
     <use xlink:href="#DejaVuSans-6c" x="332.564453"/>
     <use xlink:href="#DejaVuSans-69" x="360.347656"/>
     <use xlink:href="#DejaVuSans-61" x="388.130859"/>
    </g>
   </g>
   <g id="text_7">
    <!-- 2 LR pairs · 4 interactions -->
    <g style="fill: #555555" transform="translate(138.125352 437.071625) scale(0.065 -0.065)">
     <defs>
      <path id="DejaVuSans-32" d="M 1228 531 
L 3431 531 
L 3431 0 
L 469 0 
L 469 531 
Q 828 903 1448 1529 
Q 2069 2156 2228 2338 
Q 2531 2678 2651 2914 
Q 2772 3150 2772 3378 
Q 2772 3750 2511 3984 
Q 2250 4219 1831 4219 
Q 1534 4219 1204 4116 
Q 875 4013 500 3803 
L 500 4441 
Q 881 4594 1212 4672 
Q 1544 4750 1819 4750 
Q 2544 4750 2975 4387 
Q 3406 4025 3406 3419 
Q 3406 3131 3298 2873 
Q 3191 2616 2906 2266 
Q 2828 2175 2409 1742 
Q 1991 1309 1228 531 
z
" transform="scale(0.015625)"/>
      <path id="DejaVuSans-20" transform="scale(0.015625)"/>
      <path id="DejaVuSans-4c" d="M 628 4666 
L 1259 4666 
L 1259 531 
L 3531 531 
L 3531 0 
L 628 0 
L 628 4666 
z
" transform="scale(0.015625)"/>
      <path id="DejaVuSans-52" d="M 2841 2188 
Q 3044 2119 3236 1894 
Q 3428 1669 3622 1275 
L 4263 0 
L 3584 0 
L 2988 1197 
Q 2756 1666 2539 1819 
Q 2322 1972 1947 1972 
L 1259 1972 
L 1259 0 
L 628 0 
L 628 4666 
L 2053 4666 
Q 2853 4666 3247 4331 
Q 3641 3997 3641 3322 
Q 3641 2881 3436 2590 
Q 3231 2300 2841 2188 
z
M 1259 4147 
L 1259 2491 
L 2053 2491 
Q 2509 2491 2742 2702 
Q 2975 2913 2975 3322 
Q 2975 3731 2742 3939 
Q 2509 4147 2053 4147 
L 1259 4147 
z
" transform="scale(0.015625)"/>
      <path id="DejaVuSans-70" d="M 1159 525 
L 1159 -1331 
L 581 -1331 
L 581 3500 
L 1159 3500 
L 1159 2969 
Q 1341 3281 1617 3432 
Q 1894 3584 2278 3584 
Q 2916 3584 3314 3078 
Q 3713 2572 3713 1747 
Q 3713 922 3314 415 
Q 2916 -91 2278 -91 
Q 1894 -91 1617 61 
Q 1341 213 1159 525 
z
M 3116 1747 
Q 3116 2381 2855 2742 
Q 2594 3103 2138 3103 
Q 1681 3103 1420 2742 
Q 1159 2381 1159 1747 
Q 1159 1113 1420 752 
Q 1681 391 2138 391 
Q 2594 391 2855 752 
Q 3116 1113 3116 1747 
z
" transform="scale(0.015625)"/>
      <path id="DejaVuSans-b7" d="M 684 2619 
L 1344 2619 
L 1344 1825 
L 684 1825 
L 684 2619 
z
" transform="scale(0.015625)"/>
      <path id="DejaVuSans-34" d="M 2419 4116 
L 825 1625 
L 2419 1625 
L 2419 4116 
z
M 2253 4666 
L 3047 4666 
L 3047 1625 
L 3713 1625 
L 3713 1100 
L 3047 1100 
L 3047 0 
L 2419 0 
L 2419 1100 
L 313 1100 
L 313 1709 
L 2253 4666 
z
" transform="scale(0.015625)"/>
      <path id="DejaVuSans-65" d="M 3597 1894 
L 3597 1613 
L 953 1613 
Q 991 1019 1311 708 
Q 1631 397 2203 397 
Q 2534 397 2845 478 
Q 3156 559 3463 722 
L 3463 178 
Q 3153 47 2828 -22 
Q 2503 -91 2169 -91 
Q 1331 -91 842 396 
Q 353 884 353 1716 
Q 353 2575 817 3079 
Q 1281 3584 2069 3584 
Q 2775 3584 3186 3129 
Q 3597 2675 3597 1894 
z
M 3022 2063 
Q 3016 2534 2758 2815 
Q 2500 3097 2075 3097 
Q 1594 3097 1305 2825 
Q 1016 2553 972 2059 
L 3022 2063 
z
" transform="scale(0.015625)"/>
     </defs>
     <use xlink:href="#DejaVuSans-32"/>
     <use xlink:href="#DejaVuSans-20" x="63.623047"/>
     <use xlink:href="#DejaVuSans-4c" x="95.410156"/>
     <use xlink:href="#DejaVuSans-52" x="151.123047"/>
     <use xlink:href="#DejaVuSans-20" x="220.605469"/>
     <use xlink:href="#DejaVuSans-70" x="252.392578"/>
     <use xlink:href="#DejaVuSans-61" x="315.869141"/>
     <use xlink:href="#DejaVuSans-69" x="377.148438"/>
     <use xlink:href="#DejaVuSans-72" x="404.931641"/>
     <use xlink:href="#DejaVuSans-73" x="446.044922"/>
     <use xlink:href="#DejaVuSans-20" x="498.144531"/>
     <use xlink:href="#DejaVuSans-b7" x="529.931641"/>
     <use xlink:href="#DejaVuSans-20" x="561.71875"/>
     <use xlink:href="#DejaVuSans-34" x="593.505859"/>
     <use xlink:href="#DejaVuSans-20" x="657.128906"/>
     <use xlink:href="#DejaVuSans-69" x="688.916016"/>
     <use xlink:href="#DejaVuSans-6e" x="716.699219"/>
     <use xlink:href="#DejaVuSans-74" x="780.078125"/>
     <use xlink:href="#DejaVuSans-65" x="819.287109"/>
     <use xlink:href="#DejaVuSans-72" x="880.810547"/>
     <use xlink:href="#DejaVuSans-61" x="921.923828"/>
     <use xlink:href="#DejaVuSans-63" x="983.203125"/>
     <use xlink:href="#DejaVuSans-74" x="1038.183594"/>
     <use xlink:href="#DejaVuSans-69" x="1077.392578"/>
     <use xlink:href="#DejaVuSans-6f" x="1105.175781"/>
     <use xlink:href="#DejaVuSans-6e" x="1166.357422"/>
     <use xlink:href="#DejaVuSans-73" x="1229.736328"/>
    </g>
   </g>
   <g id="text_8">
    <!-- Axon guidance -->
    <g transform="translate(138.23375 66.64575) scale(0.1 -0.1)">
     <defs>
      <path id="DejaVuSans-Bold-41" d="M 3419 850 
L 1538 850 
L 1241 0 
L 31 0 
L 1759 4666 
L 3194 4666 
L 4922 0 
L 3713 0 
L 3419 850 
z
M 1838 1716 
L 3116 1716 
L 2478 3572 
L 1838 1716 
z
" transform="scale(0.015625)"/>
      <path id="DejaVuSans-Bold-78" d="M 1422 1791 
L 159 3500 
L 1344 3500 
L 2059 2463 
L 2784 3500 
L 3969 3500 
L 2706 1797 
L 4031 0 
L 2847 0 
L 2059 1106 
L 1281 0 
L 97 0 
L 1422 1791 
z
" transform="scale(0.015625)"/>
      <path id="DejaVuSans-Bold-6f" d="M 2203 2784 
Q 1831 2784 1636 2517 
Q 1441 2250 1441 1747 
Q 1441 1244 1636 976 
Q 1831 709 2203 709 
Q 2569 709 2762 976 
Q 2956 1244 2956 1747 
Q 2956 2250 2762 2517 
Q 2569 2784 2203 2784 
z
M 2203 3584 
Q 3106 3584 3614 3096 
Q 4122 2609 4122 1747 
Q 4122 884 3614 396 
Q 3106 -91 2203 -91 
Q 1297 -91 786 396 
Q 275 884 275 1747 
Q 275 2609 786 3096 
Q 1297 3584 2203 3584 
z
" transform="scale(0.015625)"/>
      <path id="DejaVuSans-Bold-6e" d="M 4056 2131 
L 4056 0 
L 2931 0 
L 2931 347 
L 2931 1631 
Q 2931 2084 2911 2256 
Q 2891 2428 2841 2509 
Q 2775 2619 2662 2680 
Q 2550 2741 2406 2741 
Q 2056 2741 1856 2470 
Q 1656 2200 1656 1722 
L 1656 0 
L 538 0 
L 538 3500 
L 1656 3500 
L 1656 2988 
Q 1909 3294 2193 3439 
Q 2478 3584 2822 3584 
Q 3428 3584 3742 3212 
Q 4056 2841 4056 2131 
z
" transform="scale(0.015625)"/>
      <path id="DejaVuSans-Bold-20" transform="scale(0.015625)"/>
      <path id="DejaVuSans-Bold-67" d="M 2919 594 
Q 2688 288 2409 144 
Q 2131 0 1766 0 
Q 1125 0 706 504 
Q 288 1009 288 1791 
Q 288 2575 706 3076 
Q 1125 3578 1766 3578 
Q 2131 3578 2409 3434 
Q 2688 3291 2919 2981 
L 2919 3500 
L 4044 3500 
L 4044 353 
Q 4044 -491 3511 -936 
Q 2978 -1381 1966 -1381 
Q 1638 -1381 1331 -1331 
Q 1025 -1281 716 -1178 
L 716 -306 
Q 1009 -475 1290 -558 
Q 1572 -641 1856 -641 
Q 2406 -641 2662 -400 
Q 2919 -159 2919 353 
L 2919 594 
z
M 2181 2772 
Q 1834 2772 1640 2515 
Q 1447 2259 1447 1791 
Q 1447 1309 1634 1061 
Q 1822 813 2181 813 
Q 2531 813 2725 1069 
Q 2919 1325 2919 1791 
Q 2919 2259 2725 2515 
Q 2531 2772 2181 2772 
z
" transform="scale(0.015625)"/>
      <path id="DejaVuSans-Bold-75" d="M 500 1363 
L 500 3500 
L 1625 3500 
L 1625 3150 
Q 1625 2866 1622 2436 
Q 1619 2006 1619 1863 
Q 1619 1441 1641 1255 
Q 1663 1069 1716 984 
Q 1784 875 1895 815 
Q 2006 756 2150 756 
Q 2500 756 2700 1025 
Q 2900 1294 2900 1772 
L 2900 3500 
L 4019 3500 
L 4019 0 
L 2900 0 
L 2900 506 
Q 2647 200 2364 54 
Q 2081 -91 1741 -91 
Q 1134 -91 817 281 
Q 500 653 500 1363 
z
" transform="scale(0.015625)"/>
      <path id="DejaVuSans-Bold-69" d="M 538 3500 
L 1656 3500 
L 1656 0 
L 538 0 
L 538 3500 
z
M 538 4863 
L 1656 4863 
L 1656 3950 
L 538 3950 
L 538 4863 
z
" transform="scale(0.015625)"/>
      <path id="DejaVuSans-Bold-64" d="M 2919 2988 
L 2919 4863 
L 4044 4863 
L 4044 0 
L 2919 0 
L 2919 506 
Q 2688 197 2409 53 
Q 2131 -91 1766 -91 
Q 1119 -91 703 423 
Q 288 938 288 1747 
Q 288 2556 703 3070 
Q 1119 3584 1766 3584 
Q 2128 3584 2408 3439 
Q 2688 3294 2919 2988 
z
M 2181 722 
Q 2541 722 2730 984 
Q 2919 1247 2919 1747 
Q 2919 2247 2730 2509 
Q 2541 2772 2181 2772 
Q 1825 2772 1636 2509 
Q 1447 2247 1447 1747 
Q 1447 1247 1636 984 
Q 1825 722 2181 722 
z
" transform="scale(0.015625)"/>
      <path id="DejaVuSans-Bold-61" d="M 2106 1575 
Q 1756 1575 1579 1456 
Q 1403 1338 1403 1106 
Q 1403 894 1545 773 
Q 1688 653 1941 653 
Q 2256 653 2472 879 
Q 2688 1106 2688 1447 
L 2688 1575 
L 2106 1575 
z
M 3816 1997 
L 3816 0 
L 2688 0 
L 2688 519 
Q 2463 200 2181 54 
Q 1900 -91 1497 -91 
Q 953 -91 614 226 
Q 275 544 275 1050 
Q 275 1666 698 1953 
Q 1122 2241 2028 2241 
L 2688 2241 
L 2688 2328 
Q 2688 2594 2478 2717 
Q 2269 2841 1825 2841 
Q 1466 2841 1156 2769 
Q 847 2697 581 2553 
L 581 3406 
Q 941 3494 1303 3539 
Q 1666 3584 2028 3584 
Q 2975 3584 3395 3211 
Q 3816 2838 3816 1997 
z
" transform="scale(0.015625)"/>
      <path id="DejaVuSans-Bold-63" d="M 3366 3391 
L 3366 2478 
Q 3138 2634 2908 2709 
Q 2678 2784 2431 2784 
Q 1963 2784 1702 2511 
Q 1441 2238 1441 1747 
Q 1441 1256 1702 982 
Q 1963 709 2431 709 
Q 2694 709 2930 787 
Q 3166 866 3366 1019 
L 3366 103 
Q 3103 6 2833 -42 
Q 2563 -91 2291 -91 
Q 1344 -91 809 395 
Q 275 881 275 1747 
Q 275 2613 809 3098 
Q 1344 3584 2291 3584 
Q 2566 3584 2833 3536 
Q 3100 3488 3366 3391 
z
" transform="scale(0.015625)"/>
      <path id="DejaVuSans-Bold-65" d="M 4031 1759 
L 4031 1441 
L 1416 1441 
Q 1456 1047 1700 850 
Q 1944 653 2381 653 
Q 2734 653 3104 758 
Q 3475 863 3866 1075 
L 3866 213 
Q 3469 63 3072 -14 
Q 2675 -91 2278 -91 
Q 1328 -91 801 392 
Q 275 875 275 1747 
Q 275 2603 792 3093 
Q 1309 3584 2216 3584 
Q 3041 3584 3536 3087 
Q 4031 2591 4031 1759 
z
M 2881 2131 
Q 2881 2450 2695 2645 
Q 2509 2841 2209 2841 
Q 1884 2841 1681 2658 
Q 1478 2475 1428 2131 
L 2881 2131 
z
" transform="scale(0.015625)"/>
     </defs>
     <use xlink:href="#DejaVuSans-Bold-41"/>
     <use xlink:href="#DejaVuSans-Bold-78" x="77.392578"/>
     <use xlink:href="#DejaVuSans-Bold-6f" x="141.894531"/>
     <use xlink:href="#DejaVuSans-Bold-6e" x="210.595703"/>
     <use xlink:href="#DejaVuSans-Bold-20" x="281.787109"/>
     <use xlink:href="#DejaVuSans-Bold-67" x="316.601562"/>
     <use xlink:href="#DejaVuSans-Bold-75" x="388.183594"/>
     <use xlink:href="#DejaVuSans-Bold-69" x="459.375"/>
     <use xlink:href="#DejaVuSans-Bold-64" x="493.652344"/>
     <use xlink:href="#DejaVuSans-Bold-61" x="565.234375"/>
     <use xlink:href="#DejaVuSans-Bold-6e" x="632.714844"/>
     <use xlink:href="#DejaVuSans-Bold-63" x="703.90625"/>
     <use xlink:href="#DejaVuSans-Bold-65" x="763.183594"/>
    </g>
   </g>
  </g>
  <g id="axes_2">
   <g id="patch_12">
    <path d="M 734.778068 247.2295 
C 734.778068 227.057772 730.888213 207.075298 723.321551 188.376521 
L 723.321551 188.376521 
C 715.754889 169.677744 704.653403 152.613535 690.625123 138.118502 
L 690.625123 138.118502 
C 676.596843 123.623469 659.905001 111.969601 641.46381 103.795184 
L 641.46381 103.795184 
C 623.022619 95.620766 603.178116 91.079185 583.017188 90.419185 
L 582.709182 99.827804 
C 601.660454 100.448204 620.314287 104.71729 637.649006 112.401243 
L 637.649006 112.401243 
C 654.983726 120.085195 670.674057 131.039831 683.860641 144.665162 
L 683.860641 144.665162 
C 697.047224 158.290493 707.48262 174.33085 714.595283 191.9077 
L 714.595283 191.9077 
C 721.707945 209.48455 725.364409 228.268075 725.364409 247.2295 
z
" clip-path="url(#p2b90171dc4)" style="fill: #0f3466; opacity: 0.72; stroke: #0f3466; stroke-width: 0.3; stroke-linejoin: miter"/>
   </g>
   <g id="patch_13">
    <path d="M 720.65758 247.2295 
C 720.65758 228.873227 717.117812 210.689176 710.232149 193.673289 
L 710.232149 193.673289 
C 703.346486 176.657402 693.244134 161.128972 680.478399 147.938492 
L 680.478399 147.938492 
C 667.712665 134.748011 652.523088 124.142992 635.741604 116.704272 
L 635.741604 116.704272 
C 618.960121 109.265552 600.901623 105.132714 582.555179 104.532113 
C 579.51875 197.285415 577.338664 297.197367 576.377703 385.288286 
L 676.049739 350.901121 
L 715.819341 253.251898 
C 688.071559 252.040404 688.176533 247.2295 720.65758 247.2295 
" clip-path="url(#p2b90171dc4)" style="fill: #0f3466; opacity: 0.72; stroke: #0f3466; stroke-width: 0.3; stroke-linejoin: miter"/>
   </g>
   <g id="patch_14">
    <path d="M 576.172332 90.344516 
C 556.001804 90.564551 536.06295 94.672146 517.447824 102.442325 
L 517.447824 102.442325 
C 498.832697 110.212505 481.890599 121.499469 467.54945 135.685027 
L 467.54945 135.685027 
C 453.208301 149.870586 441.737203 166.688557 433.76443 185.217818 
L 433.76443 185.217818 
C 425.791657 203.747079 421.466812 223.63994 421.026768 243.806868 
L 430.438187 244.012226 
C 430.851829 225.055314 434.917183 206.356024 442.411589 188.938519 
L 442.411589 188.938519 
C 449.905996 171.521013 460.688828 155.712121 474.169508 142.377696 
L 474.169508 142.377696 
C 487.650188 129.043271 503.575761 118.433525 521.073979 111.129556 
L 521.073979 111.129556 
C 538.572198 103.825587 557.314721 99.964448 576.275017 99.757615 
z
" clip-path="url(#p2b90171dc4)" style="fill: #cc2400; opacity: 0.72; stroke: #cc2400; stroke-width: 0.3; stroke-linejoin: miter"/>
   </g>
   <g id="patch_15">
    <path d="M 576.32636 104.464165 
C 557.971179 104.664397 539.826822 108.402307 522.887057 115.473171 
L 522.887057 115.473171 
C 505.947292 122.544035 490.529983 132.815172 477.479537 145.72403 
L 477.479537 145.72403 
C 464.429092 158.632888 453.990393 173.937242 446.735169 190.798869 
L 446.735169 190.798869 
C 439.479945 207.660497 435.544337 225.763001 435.143897 244.114905 
C 467.617213 244.823476 467.617213 249.635524 439.849606 250.241416 
L 477.479537 348.73497 
L 576.377703 385.288286 
C 577.338664 297.197367 577.338664 197.261633 576.32636 104.464165 
" clip-path="url(#p2b90171dc4)" style="fill: #cc2400; opacity: 0.72; stroke: #cc2400; stroke-width: 0.3; stroke-linejoin: miter"/>
   </g>
   <g id="patch_16">
    <path d="M 421.026768 250.652132 
C 421.915116 291.364536 438.597958 330.136582 467.54945 358.773973 
L 467.54945 358.773973 
C 496.500942 387.411363 535.45266 403.670283 576.172332 404.114484 
L 576.172332 404.114484 
C 616.892005 404.558684 656.189139 389.15336 685.758463 361.154358 
L 685.758463 361.154358 
C 715.327787 333.155356 732.852467 294.756471 734.62874 254.073134 
L 725.22404 253.662516 
C 723.554344 291.904853 707.081145 327.999805 679.28598 354.318867 
L 679.28598 354.318867 
C 651.490816 380.637929 614.551509 395.118933 576.275017 394.701385 
L 576.275017 394.701385 
C 537.998525 394.283836 501.383911 379.000451 474.169508 352.081304 
L 474.169508 352.081304 
C 446.955106 325.162157 431.273234 288.716434 430.438187 250.446774 
z
" clip-path="url(#p2b90171dc4)" style="fill: #99ffbc; opacity: 0.72; stroke: #99ffbc; stroke-width: 0.3; stroke-linejoin: miter"/>
   </g>
   <g id="text_9">
    <!-- CA1-ProS -->
    <g transform="translate(687.561412 121.878407) rotate(-314.0625) scale(0.06 -0.06)">
     <use xlink:href="#DejaVuSans-43"/>
     <use xlink:href="#DejaVuSans-41" x="69.824219"/>
     <use xlink:href="#DejaVuSans-31" x="138.232422"/>
     <use xlink:href="#DejaVuSans-2d" x="201.855469"/>
     <use xlink:href="#DejaVuSans-50" x="237.939453"/>
     <use xlink:href="#DejaVuSans-72" x="296.492188"/>
     <use xlink:href="#DejaVuSans-6f" x="335.355469"/>
     <use xlink:href="#DejaVuSans-53" x="396.537109"/>
    </g>
   </g>
   <g id="text_10">
    <!-- DG -->
    <g transform="translate(457.860291 132.479854) rotate(-44.6875) scale(0.06 -0.06)">
     <use xlink:href="#DejaVuSans-44"/>
     <use xlink:href="#DejaVuSans-47" x="77.001953"/>
    </g>
   </g>
   <g id="text_11">
    <!-- Oligo -->
    <g transform="translate(568.268899 416.432784) rotate(-359.375) scale(0.06 -0.06)">
     <use xlink:href="#DejaVuSans-4f"/>
     <use xlink:href="#DejaVuSans-6c" x="78.710938"/>
     <use xlink:href="#DejaVuSans-69" x="106.494141"/>
     <use xlink:href="#DejaVuSans-67" x="134.277344"/>
     <use xlink:href="#DejaVuSans-6f" x="197.753906"/>
    </g>
   </g>
   <g id="text_12">
    <!-- 2 LR pairs · 2 interactions -->
    <g style="fill: #555555" transform="translate(536.225352 437.071625) scale(0.065 -0.065)">
     <use xlink:href="#DejaVuSans-32"/>
     <use xlink:href="#DejaVuSans-20" x="63.623047"/>
     <use xlink:href="#DejaVuSans-4c" x="95.410156"/>
     <use xlink:href="#DejaVuSans-52" x="151.123047"/>
     <use xlink:href="#DejaVuSans-20" x="220.605469"/>
     <use xlink:href="#DejaVuSans-70" x="252.392578"/>
     <use xlink:href="#DejaVuSans-61" x="315.869141"/>
     <use xlink:href="#DejaVuSans-69" x="377.148438"/>
     <use xlink:href="#DejaVuSans-72" x="404.931641"/>
     <use xlink:href="#DejaVuSans-73" x="446.044922"/>
     <use xlink:href="#DejaVuSans-20" x="498.144531"/>
     <use xlink:href="#DejaVuSans-b7" x="529.931641"/>
     <use xlink:href="#DejaVuSans-20" x="561.71875"/>
     <use xlink:href="#DejaVuSans-32" x="593.505859"/>
     <use xlink:href="#DejaVuSans-20" x="657.128906"/>
     <use xlink:href="#DejaVuSans-69" x="688.916016"/>
     <use xlink:href="#DejaVuSans-6e" x="716.699219"/>
     <use xlink:href="#DejaVuSans-74" x="780.078125"/>
     <use xlink:href="#DejaVuSans-65" x="819.287109"/>
     <use xlink:href="#DejaVuSans-72" x="880.810547"/>
     <use xlink:href="#DejaVuSans-61" x="921.923828"/>
     <use xlink:href="#DejaVuSans-63" x="983.203125"/>
     <use xlink:href="#DejaVuSans-74" x="1038.183594"/>
     <use xlink:href="#DejaVuSans-69" x="1077.392578"/>
     <use xlink:href="#DejaVuSans-6f" x="1105.175781"/>
     <use xlink:href="#DejaVuSans-6e" x="1166.357422"/>
     <use xlink:href="#DejaVuSans-73" x="1229.736328"/>
    </g>
   </g>
   <g id="text_13">
    <!-- Cell adhesion / CAMs -->
    <g transform="translate(519.267344 66.64575) scale(0.1 -0.1)">
     <defs>
      <path id="DejaVuSans-Bold-43" d="M 4288 256 
Q 3956 84 3597 -3 
Q 3238 -91 2847 -91 
Q 1681 -91 1000 561 
Q 319 1213 319 2328 
Q 319 3447 1000 4098 
Q 1681 4750 2847 4750 
Q 3238 4750 3597 4662 
Q 3956 4575 4288 4403 
L 4288 3438 
Q 3953 3666 3628 3772 
Q 3303 3878 2944 3878 
Q 2300 3878 1931 3465 
Q 1563 3053 1563 2328 
Q 1563 1606 1931 1193 
Q 2300 781 2944 781 
Q 3303 781 3628 887 
Q 3953 994 4288 1222 
L 4288 256 
z
" transform="scale(0.015625)"/>
      <path id="DejaVuSans-Bold-6c" d="M 538 4863 
L 1656 4863 
L 1656 0 
L 538 0 
L 538 4863 
z
" transform="scale(0.015625)"/>
      <path id="DejaVuSans-Bold-68" d="M 4056 2131 
L 4056 0 
L 2931 0 
L 2931 347 
L 2931 1625 
Q 2931 2084 2911 2256 
Q 2891 2428 2841 2509 
Q 2775 2619 2662 2680 
Q 2550 2741 2406 2741 
Q 2056 2741 1856 2470 
Q 1656 2200 1656 1722 
L 1656 0 
L 538 0 
L 538 4863 
L 1656 4863 
L 1656 2988 
Q 1909 3294 2193 3439 
Q 2478 3584 2822 3584 
Q 3428 3584 3742 3212 
Q 4056 2841 4056 2131 
z
" transform="scale(0.015625)"/>
      <path id="DejaVuSans-Bold-73" d="M 3272 3391 
L 3272 2541 
Q 2913 2691 2578 2766 
Q 2244 2841 1947 2841 
Q 1628 2841 1473 2761 
Q 1319 2681 1319 2516 
Q 1319 2381 1436 2309 
Q 1553 2238 1856 2203 
L 2053 2175 
Q 2913 2066 3209 1816 
Q 3506 1566 3506 1031 
Q 3506 472 3093 190 
Q 2681 -91 1863 -91 
Q 1516 -91 1145 -36 
Q 775 19 384 128 
L 384 978 
Q 719 816 1070 734 
Q 1422 653 1784 653 
Q 2113 653 2278 743 
Q 2444 834 2444 1013 
Q 2444 1163 2330 1236 
Q 2216 1309 1875 1350 
L 1678 1375 
Q 931 1469 631 1722 
Q 331 1975 331 2491 
Q 331 3047 712 3315 
Q 1094 3584 1881 3584 
Q 2191 3584 2531 3537 
Q 2872 3491 3272 3391 
z
" transform="scale(0.015625)"/>
      <path id="DejaVuSans-Bold-2f" d="M 1644 4666 
L 2338 4666 
L 691 -594 
L 0 -594 
L 1644 4666 
z
" transform="scale(0.015625)"/>
      <path id="DejaVuSans-Bold-4d" d="M 588 4666 
L 2119 4666 
L 3181 2169 
L 4250 4666 
L 5778 4666 
L 5778 0 
L 4641 0 
L 4641 3413 
L 3566 897 
L 2803 897 
L 1728 3413 
L 1728 0 
L 588 0 
L 588 4666 
z
" transform="scale(0.015625)"/>
     </defs>
     <use xlink:href="#DejaVuSans-Bold-43"/>
     <use xlink:href="#DejaVuSans-Bold-65" x="73.388672"/>
     <use xlink:href="#DejaVuSans-Bold-6c" x="141.210938"/>
     <use xlink:href="#DejaVuSans-Bold-6c" x="175.488281"/>
     <use xlink:href="#DejaVuSans-Bold-20" x="209.765625"/>
     <use xlink:href="#DejaVuSans-Bold-61" x="244.580078"/>
     <use xlink:href="#DejaVuSans-Bold-64" x="312.060547"/>
     <use xlink:href="#DejaVuSans-Bold-68" x="383.642578"/>
     <use xlink:href="#DejaVuSans-Bold-65" x="454.833984"/>
     <use xlink:href="#DejaVuSans-Bold-73" x="522.65625"/>
     <use xlink:href="#DejaVuSans-Bold-69" x="582.177734"/>
     <use xlink:href="#DejaVuSans-Bold-6f" x="616.455078"/>
     <use xlink:href="#DejaVuSans-Bold-6e" x="685.15625"/>
     <use xlink:href="#DejaVuSans-Bold-20" x="756.347656"/>
     <use xlink:href="#DejaVuSans-Bold-2f" x="791.162109"/>
     <use xlink:href="#DejaVuSans-Bold-20" x="827.685547"/>
     <use xlink:href="#DejaVuSans-Bold-43" x="862.5"/>
     <use xlink:href="#DejaVuSans-Bold-41" x="935.888672"/>
     <use xlink:href="#DejaVuSans-Bold-4d" x="1013.28125"/>
     <use xlink:href="#DejaVuSans-Bold-73" x="1112.792969"/>
    </g>
   </g>
  </g>
  <g id="axes_3">
   <g id="patch_17">
    <path d="M 1132.878068 247.2295 
C 1132.878068 207.099194 1117.500718 168.494398 1089.908608 139.354787 
L 1089.908608 139.354787 
C 1062.316498 110.215175 1024.607397 92.756171 984.536766 90.568487 
L 984.536766 90.568487 
C 944.466134 88.380803 905.080456 101.630766 874.480006 127.593314 
L 874.480006 127.593314 
C 843.879555 153.555863 824.39082 190.257121 820.021959 230.148906 
L 829.379666 231.173742 
C 833.486395 193.675463 851.805807 159.176281 880.57023 134.771485 
L 880.57023 134.771485 
C 909.334653 110.36669 946.357191 97.911725 984.023585 99.968148 
L 984.023585 99.968148 
C 1021.689978 102.02457 1057.136533 118.436035 1083.073117 145.82727 
L 1083.073117 145.82727 
C 1109.0097 173.218504 1123.464409 209.507012 1123.464409 247.2295 
z
" clip-path="url(#p37882223a3)" style="fill: #cc2400; opacity: 0.72; stroke: #cc2400; stroke-width: 0.3; stroke-linejoin: miter"/>
   </g>
   <g id="patch_18">
    <path d="M 1118.75758 247.2295 
C 1118.75758 238.202681 1117.901508 229.196204 1116.200863 220.331032 
L 1116.200863 220.331032 
C 1114.500218 211.46586 1111.962664 202.78195 1108.622283 194.395931 
L 1108.622283 194.395931 
C 1105.281901 186.009912 1101.153747 177.959581 1096.293264 170.353059 
L 1096.293264 170.353059 
C 1091.432782 162.746538 1085.861877 155.618108 1079.655371 149.063511 
C 1012.268817 212.871404 926.119901 243.961251 838.212362 238.199486 
L 840.173726 291.274973 
L 869.735823 335.399079 
C 937.529245 279.140876 1025.95459 247.2295 1118.75758 247.2295 
" clip-path="url(#p37882223a3)" style="fill: #cc2400; opacity: 0.72; stroke: #cc2400; stroke-width: 0.3; stroke-linejoin: miter"/>
   </g>
   <g id="patch_19">
    <path d="M 1079.655371 149.063511 
C 1073.448865 142.508914 1066.634731 136.55769 1059.304487 131.289769 
L 1059.304487 131.289769 
C 1051.974243 126.021848 1044.160928 121.460973 1035.969478 117.668399 
L 1035.969478 117.668399 
C 1027.778029 113.875825 1019.245364 110.868646 1010.486085 108.687249 
L 1010.486085 108.687249 
C 1001.726806 106.505853 992.78039 105.160071 983.766994 104.667978 
C 978.707885 197.332967 938.9578 280.787865 873.682851 339.94963 
L 913.185936 375.451187 
L 965.45145 384.894191 
C 972.171776 297.054732 1012.268817 212.871404 1079.655371 149.063511 
" clip-path="url(#p37882223a3)" style="fill: #cc2400; opacity: 0.72; stroke: #cc2400; stroke-width: 0.3; stroke-linejoin: miter"/>
   </g>
   <g id="patch_20">
    <path d="M 983.766994 104.667978 
C 974.753598 104.175886 965.713846 104.5397 956.769147 105.754536 
L 956.769147 105.754536 
C 947.824448 106.969372 939.015117 109.029753 930.459469 111.908008 
L 930.459469 111.908008 
C 921.903821 114.786263 913.640417 118.469418 905.780239 122.908008 
L 905.780239 122.908008 
C 897.920062 127.346597 890.498538 132.520615 883.615343 138.360571 
C 943.654807 209.125375 974.34875 297.173585 971.466324 385.222577 
L 1024.44922 381.525682 
L 1067.582456 350.535712 
C 1009.136236 284.619305 978.707885 197.332967 983.766994 104.667978 
" clip-path="url(#p37882223a3)" style="fill: #cc2400; opacity: 0.72; stroke: #cc2400; stroke-width: 0.3; stroke-linejoin: miter"/>
   </g>
   <g id="patch_21">
    <path d="M 883.615343 138.360571 
C 876.732147 144.200527 870.418304 150.6801 864.758613 157.712266 
L 864.758613 157.712266 
C 859.098921 164.744431 854.118889 172.297495 849.885401 180.270013 
L 849.885401 180.270013 
C 845.651914 188.242532 842.184053 196.598572 839.528392 205.225909 
L 839.528392 205.225909 
C 836.872732 213.853245 835.041241 222.712993 834.05852 231.686159 
C 926.309919 241.789331 1010.735603 283.137627 1072.001428 346.441908 
L 1106.191472 305.798395 
L 1113.919341 253.251898 
C 1025.907029 249.409197 943.654807 209.125375 883.615343 138.360571 
" clip-path="url(#p37882223a3)" style="fill: #cc2400; opacity: 0.72; stroke: #cc2400; stroke-width: 0.3; stroke-linejoin: miter"/>
   </g>
   <g id="patch_22">
    <path d="M 819.425355 236.968121 
C 818.776583 246.866464 819.067997 256.804027 820.295682 266.647344 
L 820.295682 266.647344 
C 821.523368 276.490661 823.681792 286.195366 826.741965 295.631119 
L 826.741965 295.631119 
C 829.802138 305.066872 833.750269 314.191145 838.53333 322.881394 
L 838.53333 322.881394 
C 843.316391 331.571643 848.912826 339.788699 855.24747 347.422203 
L 862.491647 341.410641 
C 856.537081 334.235147 851.276433 326.511114 846.780355 318.342281 
L 846.780355 318.342281 
C 842.284278 310.173447 838.573035 301.59663 835.696472 292.727022 
L 835.696472 292.727022 
C 832.819909 283.857414 830.790991 274.734991 829.636966 265.482273 
L 829.636966 265.482273 
C 828.482942 256.229556 828.209013 246.888246 828.818858 237.583803 
z
" clip-path="url(#p37882223a3)" style="fill: #ad5ccc; opacity: 0.72; stroke: #ad5ccc; stroke-width: 0.3; stroke-linejoin: miter"/>
   </g>
   <g id="patch_23">
    <path d="M 859.732728 352.593284 
C 866.394312 359.943209 873.737924 366.64481 881.664936 372.60808 
L 881.664936 372.60808 
C 889.591947 378.57135 898.06663 383.769412 906.975164 388.132453 
L 906.975164 388.132453 
C 915.883697 392.495493 925.185931 396.003848 934.756928 398.610398 
L 934.756928 398.610398 
C 944.327926 401.216947 954.124551 402.909944 964.015228 403.666649 
L 964.733339 394.28042 
C 955.436103 393.569117 946.227275 391.977701 937.230537 389.527544 
L 937.230537 389.527544 
C 928.2338 387.077387 919.4897 383.779534 911.115679 379.678276 
L 911.115679 379.678276 
C 902.741657 375.577017 894.775455 370.690839 887.324065 365.085365 
L 887.324065 365.085365 
C 879.872674 359.479892 872.969678 353.180387 866.70779 346.271457 
z
" clip-path="url(#p37882223a3)" style="fill: #3dccb1; opacity: 0.72; stroke: #3dccb1; stroke-width: 0.3; stroke-linejoin: miter"/>
   </g>
   <g id="patch_24">
    <path d="M 970.850312 404.039815 
C 980.764582 404.364375 990.687291 403.747969 1000.485168 402.198876 
L 1000.485168 402.198876 
C 1010.283046 400.649784 1019.911934 398.174986 1029.242509 394.807722 
L 1029.242509 394.807722 
C 1038.573084 391.440458 1047.563292 387.195904 1056.092391 382.131067 
L 1056.092391 382.131067 
C 1064.621489 377.06623 1072.651036 371.203937 1080.073189 364.622923 
L 1073.827823 357.579318 
C 1066.850999 363.765471 1059.303225 369.276026 1051.285872 374.036973 
L 1051.285872 374.036973 
C 1043.26852 378.79792 1034.817724 382.787801 1026.046983 385.953029 
L 1026.046983 385.953029 
C 1017.276243 389.118257 1008.225088 391.444567 999.015083 392.900714 
L 999.015083 392.900714 
C 989.805078 394.356861 980.477732 394.936282 971.158318 394.631196 
z
" clip-path="url(#p37882223a3)" style="fill: #ff26cb; opacity: 0.72; stroke: #ff26cb; stroke-width: 0.3; stroke-linejoin: miter"/>
   </g>
   <g id="patch_25">
    <path d="M 1085.094748 359.970873 
C 1092.222777 353.072373 1098.680513 345.513422 1104.381226 337.395543 
L 1104.381226 337.395543 
C 1110.081939 329.277663 1114.999934 320.637442 1119.069159 311.590923 
L 1119.069159 311.590923 
C 1123.138385 302.544404 1126.340501 293.132361 1128.6325 283.481204 
L 1128.6325 283.481204 
C 1130.9245 273.830047 1132.296053 263.983274 1132.72874 254.073134 
L 1123.32404 253.662516 
C 1122.917315 262.978048 1121.628055 272.234014 1119.473575 281.306102 
L 1119.473575 281.306102 
C 1117.319096 290.37819 1114.309107 299.22551 1110.484035 307.729238 
L 1110.484035 307.729238 
C 1106.658963 316.232965 1102.036047 324.354773 1096.677377 331.98558 
L 1096.677377 331.98558 
C 1091.318708 339.616387 1085.248435 346.721801 1078.548088 353.206391 
z
" clip-path="url(#p37882223a3)" style="fill: #cc1f4e; opacity: 0.72; stroke: #cc1f4e; stroke-width: 0.3; stroke-linejoin: miter"/>
   </g>
   <g id="text_14">
    <!-- DG -->
    <g transform="translate(980.404801 81.23683) rotate(-356.875) scale(0.06 -0.06)">
     <use xlink:href="#DejaVuSans-44"/>
     <use xlink:href="#DejaVuSans-47" x="77.001953"/>
    </g>
   </g>
   <g id="text_15">
    <!-- Astro-NT -->
    <g transform="translate(810.930295 287.084307) rotate(-287.96875) scale(0.06 -0.06)">
     <defs>
      <path id="DejaVuSans-4e" d="M 628 4666 
L 1478 4666 
L 3547 763 
L 3547 4666 
L 4159 4666 
L 4159 0 
L 3309 0 
L 1241 3903 
L 1241 0 
L 628 0 
L 628 4666 
z
" transform="scale(0.015625)"/>
     </defs>
     <use xlink:href="#DejaVuSans-41"/>
     <use xlink:href="#DejaVuSans-73" x="68.408203"/>
     <use xlink:href="#DejaVuSans-74" x="120.507812"/>
     <use xlink:href="#DejaVuSans-72" x="159.716797"/>
     <use xlink:href="#DejaVuSans-6f" x="198.580078"/>
     <use xlink:href="#DejaVuSans-2d" x="261.636719"/>
     <use xlink:href="#DejaVuSans-4e" x="297.720703"/>
     <use xlink:href="#DejaVuSans-54" x="372.525391"/>
    </g>
   </g>
   <g id="text_16">
    <!-- Astro-TE -->
    <g transform="translate(890.396524 393.824412) rotate(-333.90625) scale(0.06 -0.06)">
     <use xlink:href="#DejaVuSans-41"/>
     <use xlink:href="#DejaVuSans-73" x="68.408203"/>
     <use xlink:href="#DejaVuSans-74" x="120.507812"/>
     <use xlink:href="#DejaVuSans-72" x="159.716797"/>
     <use xlink:href="#DejaVuSans-6f" x="198.580078"/>
     <use xlink:href="#DejaVuSans-2d" x="261.636719"/>
     <use xlink:href="#DejaVuSans-54" x="288.595703"/>
     <use xlink:href="#DejaVuSans-45" x="349.679688"/>
    </g>
   </g>
   <g id="text_17">
    <!-- OPC -->
    <g transform="translate(1027.559759 408.601787) rotate(-19.84375) scale(0.06 -0.06)">
     <use xlink:href="#DejaVuSans-4f"/>
     <use xlink:href="#DejaVuSans-50" x="78.710938"/>
     <use xlink:href="#DejaVuSans-43" x="139.013672"/>
    </g>
   </g>
   <g id="text_18">
    <!-- Microglia -->
    <g transform="translate(1124.850355 328.975212) rotate(-65.78125) scale(0.06 -0.06)">
     <use xlink:href="#DejaVuSans-4d"/>
     <use xlink:href="#DejaVuSans-69" x="86.279297"/>
     <use xlink:href="#DejaVuSans-63" x="114.0625"/>
     <use xlink:href="#DejaVuSans-72" x="169.042969"/>
     <use xlink:href="#DejaVuSans-6f" x="207.90625"/>
     <use xlink:href="#DejaVuSans-67" x="269.087891"/>
     <use xlink:href="#DejaVuSans-6c" x="332.564453"/>
     <use xlink:href="#DejaVuSans-69" x="360.347656"/>
     <use xlink:href="#DejaVuSans-61" x="388.130859"/>
    </g>
   </g>
   <g id="text_19">
    <!-- 2 LR pairs · 4 interactions -->
    <g style="fill: #555555" transform="translate(934.325352 437.071625) scale(0.065 -0.065)">
     <use xlink:href="#DejaVuSans-32"/>
     <use xlink:href="#DejaVuSans-20" x="63.623047"/>
     <use xlink:href="#DejaVuSans-4c" x="95.410156"/>
     <use xlink:href="#DejaVuSans-52" x="151.123047"/>
     <use xlink:href="#DejaVuSans-20" x="220.605469"/>
     <use xlink:href="#DejaVuSans-70" x="252.392578"/>
     <use xlink:href="#DejaVuSans-61" x="315.869141"/>
     <use xlink:href="#DejaVuSans-69" x="377.148438"/>
     <use xlink:href="#DejaVuSans-72" x="404.931641"/>
     <use xlink:href="#DejaVuSans-73" x="446.044922"/>
     <use xlink:href="#DejaVuSans-20" x="498.144531"/>
     <use xlink:href="#DejaVuSans-b7" x="529.931641"/>
     <use xlink:href="#DejaVuSans-20" x="561.71875"/>
     <use xlink:href="#DejaVuSans-34" x="593.505859"/>
     <use xlink:href="#DejaVuSans-20" x="657.128906"/>
     <use xlink:href="#DejaVuSans-69" x="688.916016"/>
     <use xlink:href="#DejaVuSans-6e" x="716.699219"/>
     <use xlink:href="#DejaVuSans-74" x="780.078125"/>
     <use xlink:href="#DejaVuSans-65" x="819.287109"/>
     <use xlink:href="#DejaVuSans-72" x="880.810547"/>
     <use xlink:href="#DejaVuSans-61" x="921.923828"/>
     <use xlink:href="#DejaVuSans-63" x="983.203125"/>
     <use xlink:href="#DejaVuSans-74" x="1038.183594"/>
     <use xlink:href="#DejaVuSans-69" x="1077.392578"/>
     <use xlink:href="#DejaVuSans-6f" x="1105.175781"/>
     <use xlink:href="#DejaVuSans-6e" x="1166.357422"/>
     <use xlink:href="#DejaVuSans-73" x="1229.736328"/>
    </g>
   </g>
   <g id="text_20">
    <!-- Neurotrophic / -->
    <g transform="translate(935.273594 55.447938) scale(0.1 -0.1)">
     <defs>
      <path id="DejaVuSans-Bold-4e" d="M 588 4666 
L 1931 4666 
L 3628 1466 
L 3628 4666 
L 4769 4666 
L 4769 0 
L 3425 0 
L 1728 3200 
L 1728 0 
L 588 0 
L 588 4666 
z
" transform="scale(0.015625)"/>
      <path id="DejaVuSans-Bold-72" d="M 3138 2547 
Q 2991 2616 2845 2648 
Q 2700 2681 2553 2681 
Q 2122 2681 1889 2404 
Q 1656 2128 1656 1613 
L 1656 0 
L 538 0 
L 538 3500 
L 1656 3500 
L 1656 2925 
Q 1872 3269 2151 3426 
Q 2431 3584 2822 3584 
Q 2878 3584 2943 3579 
Q 3009 3575 3134 3559 
L 3138 2547 
z
" transform="scale(0.015625)"/>
      <path id="DejaVuSans-Bold-74" d="M 1759 4494 
L 1759 3500 
L 2913 3500 
L 2913 2700 
L 1759 2700 
L 1759 1216 
Q 1759 972 1856 886 
Q 1953 800 2241 800 
L 2816 800 
L 2816 0 
L 1856 0 
Q 1194 0 917 276 
Q 641 553 641 1216 
L 641 2700 
L 84 2700 
L 84 3500 
L 641 3500 
L 641 4494 
L 1759 4494 
z
" transform="scale(0.015625)"/>
      <path id="DejaVuSans-Bold-70" d="M 1656 506 
L 1656 -1331 
L 538 -1331 
L 538 3500 
L 1656 3500 
L 1656 2988 
Q 1888 3294 2169 3439 
Q 2450 3584 2816 3584 
Q 3463 3584 3878 3070 
Q 4294 2556 4294 1747 
Q 4294 938 3878 423 
Q 3463 -91 2816 -91 
Q 2450 -91 2169 54 
Q 1888 200 1656 506 
z
M 2400 2772 
Q 2041 2772 1848 2508 
Q 1656 2244 1656 1747 
Q 1656 1250 1848 986 
Q 2041 722 2400 722 
Q 2759 722 2948 984 
Q 3138 1247 3138 1747 
Q 3138 2247 2948 2509 
Q 2759 2772 2400 2772 
z
" transform="scale(0.015625)"/>
     </defs>
     <use xlink:href="#DejaVuSans-Bold-4e"/>
     <use xlink:href="#DejaVuSans-Bold-65" x="83.691406"/>
     <use xlink:href="#DejaVuSans-Bold-75" x="151.513672"/>
     <use xlink:href="#DejaVuSans-Bold-72" x="222.705078"/>
     <use xlink:href="#DejaVuSans-Bold-6f" x="272.021484"/>
     <use xlink:href="#DejaVuSans-Bold-74" x="340.722656"/>
     <use xlink:href="#DejaVuSans-Bold-72" x="388.525391"/>
     <use xlink:href="#DejaVuSans-Bold-6f" x="437.841797"/>
     <use xlink:href="#DejaVuSans-Bold-70" x="506.542969"/>
     <use xlink:href="#DejaVuSans-Bold-68" x="578.125"/>
     <use xlink:href="#DejaVuSans-Bold-69" x="649.316406"/>
     <use xlink:href="#DejaVuSans-Bold-63" x="683.59375"/>
     <use xlink:href="#DejaVuSans-Bold-20" x="742.871094"/>
     <use xlink:href="#DejaVuSans-Bold-2f" x="777.685547"/>
    </g>
    <!-- growth factors -->
    <g transform="translate(934.415 66.64575) scale(0.1 -0.1)">
     <defs>
      <path id="DejaVuSans-Bold-77" d="M 225 3500 
L 1313 3500 
L 1900 1088 
L 2491 3500 
L 3425 3500 
L 4013 1113 
L 4603 3500 
L 5691 3500 
L 4769 0 
L 3547 0 
L 2956 2406 
L 2369 0 
L 1147 0 
L 225 3500 
z
" transform="scale(0.015625)"/>
      <path id="DejaVuSans-Bold-66" d="M 2841 4863 
L 2841 4128 
L 2222 4128 
Q 1984 4128 1890 4042 
Q 1797 3956 1797 3744 
L 1797 3500 
L 2753 3500 
L 2753 2700 
L 1797 2700 
L 1797 0 
L 678 0 
L 678 2700 
L 122 2700 
L 122 3500 
L 678 3500 
L 678 3744 
Q 678 4316 997 4589 
Q 1316 4863 1984 4863 
L 2841 4863 
z
" transform="scale(0.015625)"/>
     </defs>
     <use xlink:href="#DejaVuSans-Bold-67"/>
     <use xlink:href="#DejaVuSans-Bold-72" x="71.582031"/>
     <use xlink:href="#DejaVuSans-Bold-6f" x="120.898438"/>
     <use xlink:href="#DejaVuSans-Bold-77" x="189.599609"/>
     <use xlink:href="#DejaVuSans-Bold-74" x="281.982422"/>
     <use xlink:href="#DejaVuSans-Bold-68" x="329.785156"/>
     <use xlink:href="#DejaVuSans-Bold-20" x="400.976562"/>
     <use xlink:href="#DejaVuSans-Bold-66" x="435.791016"/>
     <use xlink:href="#DejaVuSans-Bold-61" x="479.296875"/>
     <use xlink:href="#DejaVuSans-Bold-63" x="546.777344"/>
     <use xlink:href="#DejaVuSans-Bold-74" x="606.054688"/>
     <use xlink:href="#DejaVuSans-Bold-6f" x="653.857422"/>
     <use xlink:href="#DejaVuSans-Bold-72" x="722.558594"/>
     <use xlink:href="#DejaVuSans-Bold-73" x="771.875"/>
    </g>
   </g>
  </g>
  <g id="axes_4">
   <g id="patch_26">
    <path d="M 1530.978068 247.2295 
C 1530.978068 237.309919 1530.03733 227.412691 1528.16849 217.670744 
L 1528.16849 217.670744 
C 1526.299649 207.928797 1523.511128 198.386038 1519.840379 189.170633 
L 1519.840379 189.170633 
C 1516.16963 179.955227 1511.633197 171.10871 1506.292008 162.749895 
L 1506.292008 162.749895 
C 1500.950818 154.39108 1494.828944 146.557641 1488.008608 139.354787 
L 1481.173117 145.82727 
C 1487.584233 152.597953 1493.338794 159.961385 1498.359512 167.818671 
L 1498.359512 167.818671 
C 1503.380231 175.675957 1507.644478 183.991684 1511.094982 192.654165 
L 1511.094982 192.654165 
C 1514.545486 201.316646 1517.166695 210.286839 1518.923405 219.44427 
L 1518.923405 219.44427 
C 1520.680116 228.6017 1521.564409 237.905093 1521.564409 247.2295 
z
" clip-path="url(#p8fc524a475)" style="fill: #c973ff; opacity: 0.72; stroke: #c973ff; stroke-width: 0.3; stroke-linejoin: miter"/>
   </g>
   <g id="patch_27">
    <path d="M 1483.194748 134.488127 
C 1468.906563 120.660035 1452.120075 109.673957 1433.72909 102.114854 
L 1433.72909 102.114854 
C 1415.338105 94.555751 1395.677857 90.561411 1375.795168 90.344516 
L 1375.795168 90.344516 
C 1355.912479 90.127621 1336.169773 93.692124 1317.618264 100.848231 
L 1317.618264 100.848231 
C 1299.066754 108.004338 1282.0446 118.621606 1267.458157 132.134713 
L 1273.855693 139.0404 
C 1287.566949 126.33808 1303.567774 116.357848 1321.006193 109.631107 
L 1321.006193 109.631107 
C 1338.444612 102.904367 1357.002755 99.553734 1375.692483 99.757615 
L 1375.692483 99.757615 
C 1394.38221 99.961497 1412.862843 103.716176 1430.150369 110.821733 
L 1430.150369 110.821733 
C 1447.437895 117.927289 1463.217194 128.254203 1476.648088 141.252609 
z
" clip-path="url(#p8fc524a475)" style="fill: #ff7391; opacity: 0.72; stroke: #ff7391; stroke-width: 0.3; stroke-linejoin: miter"/>
   </g>
   <g id="patch_28">
    <path d="M 1473.374758 144.634851 
C 1460.37251 132.051287 1445.096805 122.053956 1428.361009 115.175172 
L 1428.361009 115.175172 
C 1411.625213 108.296388 1393.734387 104.661539 1375.64114 104.464165 
L 1375.64114 104.464165 
C 1357.547893 104.26679 1339.582031 107.510488 1322.700157 114.022545 
L 1322.700157 114.022545 
C 1305.818284 120.534602 1290.328124 130.196316 1277.054461 142.493243 
C 1340.123499 210.57181 1338.556835 282.370974 1275.924614 344.323684 
L 1369.412321 389.926887 
L 1465.682456 350.535712 
C 1407.236236 284.619305 1408.835603 211.321373 1473.374758 144.634851 
" clip-path="url(#p8fc524a475)" style="fill: #ff7391; opacity: 0.72; stroke: #ff7391; stroke-width: 0.3; stroke-linejoin: miter"/>
   </g>
   <g id="patch_29">
    <path d="M 1262.539277 136.8952 
C 1255.563435 143.947556 1249.272133 151.645582 1243.749867 159.885891 
L 1243.749867 159.885891 
C 1238.227602 168.126199 1233.499263 176.87165 1229.628354 186.004785 
L 1229.628354 186.004785 
C 1225.757446 195.137921 1222.761414 204.617577 1220.680499 214.316438 
L 1220.680499 214.316438 
C 1218.599584 224.015298 1217.443163 233.889648 1217.226768 243.806868 
L 1226.638187 244.012226 
C 1226.841598 234.690039 1227.928634 225.40815 1229.884694 216.291221 
L 1229.884694 216.291221 
C 1231.840755 207.174293 1234.657024 198.263415 1238.295678 189.678268 
L 1238.295678 189.678268 
C 1241.934332 181.093121 1246.378971 172.872397 1251.5699 165.126507 
L 1251.5699 165.126507 
C 1256.76083 157.380617 1262.674654 150.144472 1269.231946 143.515258 
z
" clip-path="url(#p8fc524a475)" style="fill: #cc2400; opacity: 0.72; stroke: #cc2400; stroke-width: 0.3; stroke-linejoin: miter"/>
   </g>
   <g id="patch_30">
    <path d="M 1272.57828 146.825287 
C 1266.230263 153.242931 1260.505178 160.248135 1255.479917 167.746816 
L 1255.479917 167.746816 
C 1250.454655 175.245496 1246.151867 183.203856 1242.62934 191.515009 
L 1242.62934 191.515009 
C 1239.106813 199.826163 1236.380425 208.45265 1234.486792 217.278613 
L 1234.486792 217.278613 
C 1232.593159 226.104576 1231.540816 235.090234 1231.343897 244.114905 
C 1263.817213 244.823476 1263.817213 249.635524 1236.049606 250.241416 
L 1242.62934 302.943991 
L 1275.924614 344.323684 
C 1338.556835 282.370974 1338.556835 212.088026 1272.57828 146.825287 
" clip-path="url(#p8fc524a475)" style="fill: #cc2400; opacity: 0.72; stroke: #cc2400; stroke-width: 0.3; stroke-linejoin: miter"/>
   </g>
   <g id="patch_31">
    <path d="M 1217.226768 250.652132 
C 1217.879871 280.583397 1227.083062 309.70295 1243.749867 334.573109 
L 1243.749867 334.573109 
C 1260.416673 359.443268 1283.851213 379.025644 1311.286945 391.008457 
L 1311.286945 391.008457 
C 1338.722677 402.99127 1369.014093 406.874208 1398.585168 402.198876 
L 1398.585168 402.198876 
C 1428.156244 397.523544 1455.772313 384.485148 1478.173189 364.622923 
L 1471.927823 357.579318 
C 1450.870999 376.249809 1424.911894 388.505902 1397.115083 392.900714 
L 1397.115083 392.900714 
C 1369.318272 397.295526 1340.844342 393.645563 1315.054753 382.381719 
L 1315.054753 382.381719 
C 1289.265165 371.117875 1267.236697 352.710442 1251.5699 329.332493 
L 1251.5699 329.332493 
C 1235.903103 305.954543 1227.252104 278.582164 1226.638187 250.446774 
z
" clip-path="url(#p8fc524a475)" style="fill: #ad5ccc; opacity: 0.72; stroke: #ad5ccc; stroke-width: 0.3; stroke-linejoin: miter"/>
   </g>
   <g id="patch_32">
    <path d="M 1483.194748 359.970873 
C 1490.322777 353.072373 1496.780513 345.513422 1502.481226 337.395543 
L 1502.481226 337.395543 
C 1508.181939 329.277663 1513.099934 320.637442 1517.169159 311.590923 
L 1517.169159 311.590923 
C 1521.238385 302.544404 1524.440501 293.132361 1526.7325 283.481204 
L 1526.7325 283.481204 
C 1529.0245 273.830047 1530.396053 263.983274 1530.82874 254.073134 
L 1521.42404 253.662516 
C 1521.017315 262.978048 1519.728055 272.234014 1517.573575 281.306102 
L 1517.573575 281.306102 
C 1515.419096 290.37819 1512.409107 299.22551 1508.584035 307.729238 
L 1508.584035 307.729238 
C 1504.758963 316.232965 1500.136047 324.354773 1494.777377 331.98558 
L 1494.777377 331.98558 
C 1489.418708 339.616387 1483.348435 346.721801 1476.648088 353.206391 
z
" clip-path="url(#p8fc524a475)" style="fill: #653d66; opacity: 0.72; stroke: #653d66; stroke-width: 0.3; stroke-linejoin: miter"/>
   </g>
   <g id="patch_33">
    <path d="M 1473.374758 349.824149 
C 1479.861265 343.546515 1485.737805 336.667869 1490.925453 329.280599 
L 1490.925453 329.280599 
C 1496.113102 321.893328 1500.588477 314.030727 1504.291472 305.798395 
L 1504.291472 305.798395 
C 1507.994468 297.566063 1510.908393 289.001104 1512.994113 280.218551 
L 1512.994113 280.218551 
C 1515.079833 271.435998 1516.327946 262.475435 1516.72169 253.457207 
C 1484.271559 252.040404 1484.376533 247.2295 1512.15075 247.2295 
L 1506.722283 194.395931 
L 1474.337625 152.299752 
C 1410.368817 212.871404 1408.835603 283.137627 1473.374758 349.824149 
" clip-path="url(#p8fc524a475)" style="fill: #653d66; opacity: 0.72; stroke: #653d66; stroke-width: 0.3; stroke-linejoin: miter"/>
   </g>
   <g id="text_21">
    <!-- CA3 -->
    <g transform="translate(1526.046496 180.180045) rotate(-291.71875) scale(0.06 -0.06)">
     <defs>
      <path id="DejaVuSans-33" d="M 2597 2516 
Q 3050 2419 3304 2112 
Q 3559 1806 3559 1356 
Q 3559 666 3084 287 
Q 2609 -91 1734 -91 
Q 1441 -91 1130 -33 
Q 819 25 488 141 
L 488 750 
Q 750 597 1062 519 
Q 1375 441 1716 441 
Q 2309 441 2620 675 
Q 2931 909 2931 1356 
Q 2931 1769 2642 2001 
Q 2353 2234 1838 2234 
L 1294 2234 
L 1294 2753 
L 1863 2753 
Q 2328 2753 2575 2939 
Q 2822 3125 2822 3475 
Q 2822 3834 2567 4026 
Q 2313 4219 1838 4219 
Q 1578 4219 1281 4162 
Q 984 4106 628 3988 
L 628 4550 
Q 988 4650 1302 4700 
Q 1616 4750 1894 4750 
Q 2613 4750 3031 4423 
Q 3450 4097 3450 3541 
Q 3450 3153 3228 2886 
Q 3006 2619 2597 2516 
z
" transform="scale(0.015625)"/>
     </defs>
     <use xlink:href="#DejaVuSans-43"/>
     <use xlink:href="#DejaVuSans-41" x="69.824219"/>
     <use xlink:href="#DejaVuSans-33" x="138.232422"/>
    </g>
   </g>
   <g id="text_22">
    <!-- CA2-FC-IG -->
    <g transform="translate(1360.644945 81.086177) rotate(-359.375) scale(0.06 -0.06)">
     <defs>
      <path id="DejaVuSans-46" d="M 628 4666 
L 3309 4666 
L 3309 4134 
L 1259 4134 
L 1259 2759 
L 3109 2759 
L 3109 2228 
L 1259 2228 
L 1259 0 
L 628 0 
L 628 4666 
z
" transform="scale(0.015625)"/>
      <path id="DejaVuSans-49" d="M 628 4666 
L 1259 4666 
L 1259 0 
L 628 0 
L 628 4666 
z
" transform="scale(0.015625)"/>
     </defs>
     <use xlink:href="#DejaVuSans-43"/>
     <use xlink:href="#DejaVuSans-41" x="69.824219"/>
     <use xlink:href="#DejaVuSans-32" x="138.232422"/>
     <use xlink:href="#DejaVuSans-2d" x="201.855469"/>
     <use xlink:href="#DejaVuSans-46" x="237.939453"/>
     <use xlink:href="#DejaVuSans-43" x="295.458984"/>
     <use xlink:href="#DejaVuSans-2d" x="365.283203"/>
     <use xlink:href="#DejaVuSans-49" x="401.367188"/>
     <use xlink:href="#DejaVuSans-47" x="430.859375"/>
    </g>
   </g>
   <g id="text_23">
    <!-- DG -->
    <g transform="translate(1219.448173 186.723712) rotate(-67.03125) scale(0.06 -0.06)">
     <use xlink:href="#DejaVuSans-44"/>
     <use xlink:href="#DejaVuSans-47" x="77.001953"/>
    </g>
   </g>
   <g id="text_24">
    <!-- Astro-NT -->
    <g transform="translate(1294.401902 397.168994) rotate(-336.40625) scale(0.06 -0.06)">
     <use xlink:href="#DejaVuSans-41"/>
     <use xlink:href="#DejaVuSans-73" x="68.408203"/>
     <use xlink:href="#DejaVuSans-74" x="120.507812"/>
     <use xlink:href="#DejaVuSans-72" x="159.716797"/>
     <use xlink:href="#DejaVuSans-6f" x="198.580078"/>
     <use xlink:href="#DejaVuSans-2d" x="261.636719"/>
     <use xlink:href="#DejaVuSans-4e" x="297.720703"/>
     <use xlink:href="#DejaVuSans-54" x="372.525391"/>
    </g>
   </g>
   <g id="text_25">
    <!-- VLMC -->
    <g transform="translate(1525.032485 324.346314) rotate(-65.78125) scale(0.06 -0.06)">
     <defs>
      <path id="DejaVuSans-56" d="M 1831 0 
L 50 4666 
L 709 4666 
L 2188 738 
L 3669 4666 
L 4325 4666 
L 2547 0 
L 1831 0 
z
" transform="scale(0.015625)"/>
     </defs>
     <use xlink:href="#DejaVuSans-56"/>
     <use xlink:href="#DejaVuSans-4c" x="68.408203"/>
     <use xlink:href="#DejaVuSans-4d" x="124.121094"/>
     <use xlink:href="#DejaVuSans-43" x="210.400391"/>
    </g>
   </g>
   <g id="text_26">
    <!-- 4 LR pairs · 4 interactions -->
    <g style="fill: #555555" transform="translate(1332.425352 437.071625) scale(0.065 -0.065)">
     <use xlink:href="#DejaVuSans-34"/>
     <use xlink:href="#DejaVuSans-20" x="63.623047"/>
     <use xlink:href="#DejaVuSans-4c" x="95.410156"/>
     <use xlink:href="#DejaVuSans-52" x="151.123047"/>
     <use xlink:href="#DejaVuSans-20" x="220.605469"/>
     <use xlink:href="#DejaVuSans-70" x="252.392578"/>
     <use xlink:href="#DejaVuSans-61" x="315.869141"/>
     <use xlink:href="#DejaVuSans-69" x="377.148438"/>
     <use xlink:href="#DejaVuSans-72" x="404.931641"/>
     <use xlink:href="#DejaVuSans-73" x="446.044922"/>
     <use xlink:href="#DejaVuSans-20" x="498.144531"/>
     <use xlink:href="#DejaVuSans-b7" x="529.931641"/>
     <use xlink:href="#DejaVuSans-20" x="561.71875"/>
     <use xlink:href="#DejaVuSans-34" x="593.505859"/>
     <use xlink:href="#DejaVuSans-20" x="657.128906"/>
     <use xlink:href="#DejaVuSans-69" x="688.916016"/>
     <use xlink:href="#DejaVuSans-6e" x="716.699219"/>
     <use xlink:href="#DejaVuSans-74" x="780.078125"/>
     <use xlink:href="#DejaVuSans-65" x="819.287109"/>
     <use xlink:href="#DejaVuSans-72" x="880.810547"/>
     <use xlink:href="#DejaVuSans-61" x="921.923828"/>
     <use xlink:href="#DejaVuSans-63" x="983.203125"/>
     <use xlink:href="#DejaVuSans-74" x="1038.183594"/>
     <use xlink:href="#DejaVuSans-69" x="1077.392578"/>
     <use xlink:href="#DejaVuSans-6f" x="1105.175781"/>
     <use xlink:href="#DejaVuSans-6e" x="1166.357422"/>
     <use xlink:href="#DejaVuSans-73" x="1229.736328"/>
    </g>
   </g>
   <g id="text_27">
    <!-- ECM–Integrin -->
    <g transform="translate(1337.004062 55.369813) scale(0.1 -0.1)">
     <defs>
      <path id="DejaVuSans-Bold-45" d="M 588 4666 
L 3834 4666 
L 3834 3756 
L 1791 3756 
L 1791 2888 
L 3713 2888 
L 3713 1978 
L 1791 1978 
L 1791 909 
L 3903 909 
L 3903 0 
L 588 0 
L 588 4666 
z
" transform="scale(0.015625)"/>
      <path id="DejaVuSans-Bold-2013" d="M 344 2156 
L 2856 2156 
L 2856 1350 
L 344 1350 
L 344 2156 
z
" transform="scale(0.015625)"/>
      <path id="DejaVuSans-Bold-49" d="M 588 4666 
L 1791 4666 
L 1791 0 
L 588 0 
L 588 4666 
z
" transform="scale(0.015625)"/>
     </defs>
     <use xlink:href="#DejaVuSans-Bold-45"/>
     <use xlink:href="#DejaVuSans-Bold-43" x="68.310547"/>
     <use xlink:href="#DejaVuSans-Bold-4d" x="141.699219"/>
     <use xlink:href="#DejaVuSans-Bold-2013" x="241.210938"/>
     <use xlink:href="#DejaVuSans-Bold-49" x="291.210938"/>
     <use xlink:href="#DejaVuSans-Bold-6e" x="328.417969"/>
     <use xlink:href="#DejaVuSans-Bold-74" x="399.609375"/>
     <use xlink:href="#DejaVuSans-Bold-65" x="447.412109"/>
     <use xlink:href="#DejaVuSans-Bold-67" x="515.234375"/>
     <use xlink:href="#DejaVuSans-Bold-72" x="586.816406"/>
     <use xlink:href="#DejaVuSans-Bold-69" x="636.132812"/>
     <use xlink:href="#DejaVuSans-Bold-6e" x="670.410156"/>
    </g>
    <!-- remodeling -->
    <g transform="translate(1342.044687 66.64575) scale(0.1 -0.1)">
     <defs>
      <path id="DejaVuSans-Bold-6d" d="M 3781 2919 
Q 3994 3244 4286 3414 
Q 4578 3584 4928 3584 
Q 5531 3584 5847 3212 
Q 6163 2841 6163 2131 
L 6163 0 
L 5038 0 
L 5038 1825 
Q 5041 1866 5042 1909 
Q 5044 1953 5044 2034 
Q 5044 2406 4934 2573 
Q 4825 2741 4581 2741 
Q 4263 2741 4089 2478 
Q 3916 2216 3909 1719 
L 3909 0 
L 2784 0 
L 2784 1825 
Q 2784 2406 2684 2573 
Q 2584 2741 2328 2741 
Q 2006 2741 1831 2477 
Q 1656 2213 1656 1722 
L 1656 0 
L 531 0 
L 531 3500 
L 1656 3500 
L 1656 2988 
Q 1863 3284 2130 3434 
Q 2397 3584 2719 3584 
Q 3081 3584 3359 3409 
Q 3638 3234 3781 2919 
z
" transform="scale(0.015625)"/>
     </defs>
     <use xlink:href="#DejaVuSans-Bold-72"/>
     <use xlink:href="#DejaVuSans-Bold-65" x="49.316406"/>
     <use xlink:href="#DejaVuSans-Bold-6d" x="117.138672"/>
     <use xlink:href="#DejaVuSans-Bold-6f" x="221.337891"/>
     <use xlink:href="#DejaVuSans-Bold-64" x="290.039062"/>
     <use xlink:href="#DejaVuSans-Bold-65" x="361.621094"/>
     <use xlink:href="#DejaVuSans-Bold-6c" x="429.443359"/>
     <use xlink:href="#DejaVuSans-Bold-69" x="463.720703"/>
     <use xlink:href="#DejaVuSans-Bold-6e" x="497.998047"/>
     <use xlink:href="#DejaVuSans-Bold-67" x="569.189453"/>
    </g>
   </g>
  </g>
  <g id="text_28">
   <!-- Hippocampal neuron ↔ glia cell-cell communication  (LIANA+, padj &lt; 0.05) -->
   <g transform="translate(504.211016 17.077969) scale(0.13 -0.13)">
    <defs>
     <path id="DejaVuSans-Bold-48" d="M 588 4666 
L 1791 4666 
L 1791 2888 
L 3566 2888 
L 3566 4666 
L 4769 4666 
L 4769 0 
L 3566 0 
L 3566 1978 
L 1791 1978 
L 1791 0 
L 588 0 
L 588 4666 
z
" transform="scale(0.015625)"/>
     <path id="DejaVuSans-Bold-2194" d="M 313 1788 
L 313 2225 
L 1541 3453 
L 1994 3000 
L 1375 2381 
L 3988 2381 
L 3369 3000 
L 3822 3453 
L 5050 2225 
L 5050 1788 
L 3822 559 
L 3369 1013 
L 3988 1631 
L 1375 1631 
L 1994 1013 
L 1541 559 
L 313 1788 
z
" transform="scale(0.015625)"/>
     <path id="DejaVuSans-Bold-2d" d="M 347 2297 
L 2309 2297 
L 2309 1388 
L 347 1388 
L 347 2297 
z
" transform="scale(0.015625)"/>
     <path id="DejaVuSans-Bold-28" d="M 2413 -844 
L 1484 -844 
Q 1006 -72 778 623 
Q 550 1319 550 2003 
Q 550 2688 779 3389 
Q 1009 4091 1484 4856 
L 2413 4856 
Q 2013 4116 1813 3408 
Q 1613 2700 1613 2009 
Q 1613 1319 1811 609 
Q 2009 -100 2413 -844 
z
" transform="scale(0.015625)"/>
     <path id="DejaVuSans-Bold-4c" d="M 588 4666 
L 1791 4666 
L 1791 909 
L 3903 909 
L 3903 0 
L 588 0 
L 588 4666 
z
" transform="scale(0.015625)"/>
     <path id="DejaVuSans-Bold-2b" d="M 3053 4013 
L 3053 2375 
L 4684 2375 
L 4684 1638 
L 3053 1638 
L 3053 0 
L 2309 0 
L 2309 1638 
L 678 1638 
L 678 2375 
L 2309 2375 
L 2309 4013 
L 3053 4013 
z
" transform="scale(0.015625)"/>
     <path id="DejaVuSans-Bold-2c" d="M 653 1209 
L 1778 1209 
L 1778 256 
L 1006 -909 
L 341 -909 
L 653 256 
L 653 1209 
z
" transform="scale(0.015625)"/>
     <path id="DejaVuSans-Bold-6a" d="M 538 3500 
L 1656 3500 
L 1656 63 
Q 1656 -641 1318 -1011 
Q 981 -1381 341 -1381 
L -213 -1381 
L -213 -647 
L -19 -647 
Q 300 -647 419 -503 
Q 538 -359 538 63 
L 538 3500 
z
M 538 4863 
L 1656 4863 
L 1656 3950 
L 538 3950 
L 538 4863 
z
" transform="scale(0.015625)"/>
     <path id="DejaVuSans-Bold-3c" d="M 4684 3041 
L 1672 2003 
L 4684 972 
L 4684 191 
L 678 1638 
L 678 2375 
L 4684 3822 
L 4684 3041 
z
" transform="scale(0.015625)"/>
     <path id="DejaVuSans-Bold-30" d="M 2944 2338 
Q 2944 3213 2780 3570 
Q 2616 3928 2228 3928 
Q 1841 3928 1675 3570 
Q 1509 3213 1509 2338 
Q 1509 1453 1675 1090 
Q 1841 728 2228 728 
Q 2613 728 2778 1090 
Q 2944 1453 2944 2338 
z
M 4147 2328 
Q 4147 1169 3647 539 
Q 3147 -91 2228 -91 
Q 1306 -91 806 539 
Q 306 1169 306 2328 
Q 306 3491 806 4120 
Q 1306 4750 2228 4750 
Q 3147 4750 3647 4120 
Q 4147 3491 4147 2328 
z
" transform="scale(0.015625)"/>
     <path id="DejaVuSans-Bold-2e" d="M 653 1209 
L 1778 1209 
L 1778 0 
L 653 0 
L 653 1209 
z
" transform="scale(0.015625)"/>
     <path id="DejaVuSans-Bold-35" d="M 678 4666 
L 3669 4666 
L 3669 3781 
L 1638 3781 
L 1638 3059 
Q 1775 3097 1914 3117 
Q 2053 3138 2203 3138 
Q 3056 3138 3531 2711 
Q 4006 2284 4006 1522 
Q 4006 766 3489 337 
Q 2972 -91 2053 -91 
Q 1656 -91 1267 -14 
Q 878 63 494 219 
L 494 1166 
Q 875 947 1217 837 
Q 1559 728 1863 728 
Q 2300 728 2551 942 
Q 2803 1156 2803 1522 
Q 2803 1891 2551 2103 
Q 2300 2316 1863 2316 
Q 1603 2316 1309 2248 
Q 1016 2181 678 2041 
L 678 4666 
z
" transform="scale(0.015625)"/>
     <path id="DejaVuSans-Bold-29" d="M 513 -844 
Q 913 -100 1113 609 
Q 1313 1319 1313 2009 
Q 1313 2700 1113 3408 
Q 913 4116 513 4856 
L 1441 4856 
Q 1916 4091 2145 3389 
Q 2375 2688 2375 2003 
Q 2375 1319 2147 623 
Q 1919 -72 1441 -844 
L 513 -844 
z
" transform="scale(0.015625)"/>
    </defs>
    <use xlink:href="#DejaVuSans-Bold-48"/>
    <use xlink:href="#DejaVuSans-Bold-69" x="83.691406"/>
    <use xlink:href="#DejaVuSans-Bold-70" x="117.96875"/>
    <use xlink:href="#DejaVuSans-Bold-70" x="189.550781"/>
    <use xlink:href="#DejaVuSans-Bold-6f" x="261.132812"/>
    <use xlink:href="#DejaVuSans-Bold-63" x="329.833984"/>
    <use xlink:href="#DejaVuSans-Bold-61" x="389.111328"/>
    <use xlink:href="#DejaVuSans-Bold-6d" x="456.591797"/>
    <use xlink:href="#DejaVuSans-Bold-70" x="560.791016"/>
    <use xlink:href="#DejaVuSans-Bold-61" x="632.373047"/>
    <use xlink:href="#DejaVuSans-Bold-6c" x="699.853516"/>
    <use xlink:href="#DejaVuSans-Bold-20" x="734.130859"/>
    <use xlink:href="#DejaVuSans-Bold-6e" x="768.945312"/>
    <use xlink:href="#DejaVuSans-Bold-65" x="840.136719"/>
    <use xlink:href="#DejaVuSans-Bold-75" x="907.958984"/>
    <use xlink:href="#DejaVuSans-Bold-72" x="979.150391"/>
    <use xlink:href="#DejaVuSans-Bold-6f" x="1028.466797"/>
    <use xlink:href="#DejaVuSans-Bold-6e" x="1097.167969"/>
    <use xlink:href="#DejaVuSans-Bold-20" x="1168.359375"/>
    <use xlink:href="#DejaVuSans-Bold-2194" x="1203.173828"/>
    <use xlink:href="#DejaVuSans-Bold-20" x="1286.962891"/>
    <use xlink:href="#DejaVuSans-Bold-67" x="1321.777344"/>
    <use xlink:href="#DejaVuSans-Bold-6c" x="1393.359375"/>
    <use xlink:href="#DejaVuSans-Bold-69" x="1427.636719"/>
    <use xlink:href="#DejaVuSans-Bold-61" x="1461.914062"/>
    <use xlink:href="#DejaVuSans-Bold-20" x="1529.394531"/>
    <use xlink:href="#DejaVuSans-Bold-63" x="1564.208984"/>
    <use xlink:href="#DejaVuSans-Bold-65" x="1623.486328"/>
    <use xlink:href="#DejaVuSans-Bold-6c" x="1691.308594"/>
    <use xlink:href="#DejaVuSans-Bold-6c" x="1725.585938"/>
    <use xlink:href="#DejaVuSans-Bold-2d" x="1759.863281"/>
    <use xlink:href="#DejaVuSans-Bold-63" x="1801.367188"/>
    <use xlink:href="#DejaVuSans-Bold-65" x="1860.644531"/>
    <use xlink:href="#DejaVuSans-Bold-6c" x="1928.466797"/>
    <use xlink:href="#DejaVuSans-Bold-6c" x="1962.744141"/>
    <use xlink:href="#DejaVuSans-Bold-20" x="1997.021484"/>
    <use xlink:href="#DejaVuSans-Bold-63" x="2031.835938"/>
    <use xlink:href="#DejaVuSans-Bold-6f" x="2091.113281"/>
    <use xlink:href="#DejaVuSans-Bold-6d" x="2159.814453"/>
    <use xlink:href="#DejaVuSans-Bold-6d" x="2264.013672"/>
    <use xlink:href="#DejaVuSans-Bold-75" x="2368.212891"/>
    <use xlink:href="#DejaVuSans-Bold-6e" x="2439.404297"/>
    <use xlink:href="#DejaVuSans-Bold-69" x="2510.595703"/>
    <use xlink:href="#DejaVuSans-Bold-63" x="2544.873047"/>
    <use xlink:href="#DejaVuSans-Bold-61" x="2604.150391"/>
    <use xlink:href="#DejaVuSans-Bold-74" x="2671.630859"/>
    <use xlink:href="#DejaVuSans-Bold-69" x="2719.433594"/>
    <use xlink:href="#DejaVuSans-Bold-6f" x="2753.710938"/>
    <use xlink:href="#DejaVuSans-Bold-6e" x="2822.412109"/>
    <use xlink:href="#DejaVuSans-Bold-20" x="2893.603516"/>
    <use xlink:href="#DejaVuSans-Bold-20" x="2928.417969"/>
    <use xlink:href="#DejaVuSans-Bold-28" x="2963.232422"/>
    <use xlink:href="#DejaVuSans-Bold-4c" x="3008.935547"/>
    <use xlink:href="#DejaVuSans-Bold-49" x="3072.65625"/>
    <use xlink:href="#DejaVuSans-Bold-41" x="3109.863281"/>
    <use xlink:href="#DejaVuSans-Bold-4e" x="3187.255859"/>
    <use xlink:href="#DejaVuSans-Bold-41" x="3270.947266"/>
    <use xlink:href="#DejaVuSans-Bold-2b" x="3348.339844"/>
    <use xlink:href="#DejaVuSans-Bold-2c" x="3432.128906"/>
    <use xlink:href="#DejaVuSans-Bold-20" x="3470.117188"/>
    <use xlink:href="#DejaVuSans-Bold-70" x="3504.931641"/>
    <use xlink:href="#DejaVuSans-Bold-61" x="3576.513672"/>
    <use xlink:href="#DejaVuSans-Bold-64" x="3643.994141"/>
    <use xlink:href="#DejaVuSans-Bold-6a" x="3715.576172"/>
    <use xlink:href="#DejaVuSans-Bold-20" x="3749.853516"/>
    <use xlink:href="#DejaVuSans-Bold-3c" x="3784.667969"/>
    <use xlink:href="#DejaVuSans-Bold-20" x="3868.457031"/>
    <use xlink:href="#DejaVuSans-Bold-30" x="3903.271484"/>
    <use xlink:href="#DejaVuSans-Bold-2e" x="3972.851562"/>
    <use xlink:href="#DejaVuSans-Bold-30" x="4010.839844"/>
    <use xlink:href="#DejaVuSans-Bold-35" x="4080.419922"/>
    <use xlink:href="#DejaVuSans-Bold-29" x="4150"/>
   </g>
  </g>
 </g>
 <defs>
  <clipPath id="p54c38c0eda">
   <rect x="7.2" y="74.64575" width="345.1675" height="345.1675"/>
  </clipPath>
  <clipPath id="p2b90171dc4">
   <rect x="405.3" y="74.64575" width="345.1675" height="345.1675"/>
  </clipPath>
  <clipPath id="p37882223a3">
   <rect x="803.4" y="74.64575" width="345.1675" height="345.1675"/>
  </clipPath>
  <clipPath id="p8fc524a475">
   <rect x="1201.5" y="74.64575" width="345.1675" height="345.1675"/>
  </clipPath>
 </defs>
</svg>
